<?xml version="1.0" encoding="utf-8"?>
<svg width="300px" height="300px" viewBox="0 0 300 316" xmlns="http://www.w3.org/2000/svg" xmlns:xlink="http://www.w3.org/1999/xlink">
  <defs>
    <symbol id="symbol-1" viewBox="0 0 75.9891 137.2121">
      <circle style="fill: rgb(216, 216, 216); stroke-width: 5px; stroke: rgb(102, 102, 102);" cx="243.248" cy="327.315" r="21.703" transform="matrix(0.8386710286140442, -0.544638991355896, 0.544638991355896, 0.8386710286140442, -336.30639595590213, -34.83714732185037)"/>
      <circle style="fill: rgb(216, 216, 216); stroke-width: 5px; stroke: rgb(102, 102, 102);" cx="271.904" cy="253.912" r="21.703" transform="matrix(0.8386710286140442, -0.544638991355896, 0.544638991355896, 0.8386710286140442, -336.30639595590213, -34.83714732185037)"/>
      <line style="stroke-width: 5px; marker-start: url(#marker-0); stroke: rgb(102, 102, 102);" x1="260.613" y1="282.91" x2="251.477" y2="305.225" transform="matrix(0.8386710286140442, -0.544638991355896, 0.544638991355896, 0.8386710286140442, -336.30639595590213, -34.83714732185037)"/>
    </symbol>
    <marker id="marker-0" viewBox="0 0 12.641 9.03" overflow="visible" orient="auto" refX="6.32" refY="4.51">
      <polyline style="fill: none; stroke-miterlimit: 2; stroke-width: 5px; stroke: rgb(105, 105, 105);" points="2 3.775 10.625 0 14.641 9.03" transform="matrix(-0.390731, -0.920505, 0.920505, -0.390731, 7.415497, 13.938211)"/>
    </marker>
    <symbol id="symbol-2" viewBox="0 0 75.9891 137.2121">
      <circle style="stroke-width: 5px; stroke: rgb(102, 102, 102); fill: rgb(255, 255, 255);" cx="243.248" cy="327.315" r="21.703" transform="matrix(0.8386710286140442, -0.544638991355896, 0.544638991355896, 0.8386710286140442, -336.3063959559022, -34.83714732185041)"/>
      <circle style="stroke-width: 5px; stroke: rgb(102, 102, 102); fill: rgb(255, 255, 255);" cx="271.904" cy="253.912" r="21.703" transform="matrix(0.8386710286140442, -0.544638991355896, 0.544638991355896, 0.8386710286140442, -336.3063959559022, -34.83714732185041)"/>
      <line style="stroke-width: 5px; marker-start: url(#marker-0); stroke: rgb(102, 102, 102); fill: rgb(255, 255, 255);" x1="222.038" y1="264.931" x2="212.902" y2="287.246" transform="matrix(0.8386710286140442, -0.544638991355896, 0.544638991355896, 0.8386710286140442, -294.1620401819764, -40.768025007397284)"/>
    </symbol>
  </defs>
  <circle cx="149.556" cy="75.923" r="58.77" style="fill: rgb(250, 250, 250); stroke: rgb(182, 182, 182);"/>
  <use width="75.98909759521484" height="137.21209716796875" transform="matrix(0.2765410244464874, 0, 0, 0.2765410244464874, 113.61116027832031, 46.40361404418945)" style="stroke-width: 23.94px; stroke: rgb(166, 172, 148);" xlink:href="#symbol-1"/>
  <use width="75.98909759521484" height="137.21209716796875" transform="matrix(0.1981469988822937, 0.19290700554847717, -0.19290700554847717, 0.1981469988822937, 133.51339721679688, 24.367387771606445)" style="stroke-width: 23.94px; stroke: rgb(166, 172, 148);" xlink:href="#symbol-1"/>
  <use width="75.98909759521484" height="137.21209716796875" transform="matrix(-0.2722580134868622, 0, 0, 0.2765410244464874, 170.22499084472656, 92.06504821777344)" style="stroke-width: 23.94px; stroke: rgb(166, 172, 148);" xlink:href="#symbol-1"/>
  <use width="75.98909759521484" height="137.21209716796875" transform="matrix(-0.2650029957294464, 0.07100701332092285, 0.06689099967479706, 0.2661899924278259, 166.87742614746094, 68.52098083496094)" style="stroke-width: 23.94px; stroke: rgb(166, 172, 148);" xlink:href="#symbol-1"/>
  <use width="75.98909759521484" height="137.21209716796875" transform="matrix(0.1892780214548111, -0.20161600410938263, 0.20161600410938263, 0.1892780214548111, 114.66513061523438, 76.51591491699219)" style="stroke-width: 23.94px; stroke: rgb(166, 172, 148);" xlink:href="#symbol-1"/>
  <use width="75.98909759521484" height="137.21209716796875" transform="matrix(-0.23920601606369019, -0.13434799015522003, -0.13811999559402466, 0.23718000948429108, 186.51368713378906, 59.13473892211914)" style="stroke-width: 23.94px; stroke: rgb(166, 172, 148);" xlink:href="#symbol-1"/>
  <use width="75.98909759521484" height="137.21209716796875" transform="matrix(-0.11469900608062744, 0.24922502040863037, 0.2475080043077469, 0.11862199753522873, 140.87452697753906, 76.32643127441406)" style="stroke-width: 23.94px; stroke: rgb(166, 172, 148);" xlink:href="#symbol-1"/>
  <use width="75.98909759521484" height="137.21209716796875" transform="matrix(0.2761630117893219, 0.014466000720858574, -0.014466000720858574, 0.2761630117893219, 118.74931335449219, 89.783203125)" style="stroke-width: 23.94px; stroke: rgb(166, 172, 148);" xlink:href="#symbol-1"/>
  <use width="75.98909759521484" height="137.21209716796875" transform="matrix(-0.05494500324130058, 0.27102798223495483, -0.27102798223495483, -0.05494500324130058, 153.28709411621094, 48.09885025024414)" style="stroke-width: 23.94px; stroke: rgb(166, 172, 148);" xlink:href="#symbol-1"/>
  <use width="75.98909759521484" height="137.21209716796875" transform="matrix(0.26814496517181396, 0.06762100011110306, -0.06762100011110306, 0.26814496517181396, 103.44917297363281, 56.379032135009766)" xlink:href="#symbol-2"/>
  <use width="75.98909759521484" height="137.21209716796875" transform="matrix(-0.24999602138996124, -0.10313500463962555, -0.10546300560235977, 0.25564199686050415, 209.24769592285156, 77.38702392578125)" xlink:href="#symbol-2"/>
  <use width="75.98909759521484" height="137.21209716796875" transform="matrix(0.26814496517181396, 0.06762100011110306, -0.06762100011110306, 0.26814496517181396, 104.45210266113281, 34.4138069152832)" xlink:href="#symbol-2"/>
  <use width="75.98909759521484" height="137.21209716796875" transform="matrix(-0.24999602138996124, -0.10313500463962555, -0.10546300560235977, 0.25564199686050415, 204.1148223876953, 52.746097564697266)" xlink:href="#symbol-2"/>
  <use width="75.98909759521484" height="137.21209716796875" transform="matrix(0.20366300642490387, -0.18707400560379028, 0.18707400560379028, 0.20366300642490387, 100.36869812011719, 106.79399108886719)" style="stroke-width: 23.94px; stroke: rgb(166, 172, 148);" xlink:href="#symbol-1"/>
  <use width="75.98909759521484" height="137.21209716796875" transform="matrix(-0.157819002866745, -0.22185099124908447, -0.22534099221229553, 0.16030000150203705, 189.04295349121094, 114.53829956054688)" style="stroke-width: 23.94px; stroke: rgb(166, 172, 148);" xlink:href="#symbol-1"/>
  <use width="75.98909759521484" height="137.21209716796875" transform="matrix(-0.2650029957294464, 0.07100701332092285, 0.06689099967479706, 0.2661899924278259, 182.44667053222656, 80.72122192382812)" style="stroke-width: 23.94px; stroke: rgb(166, 172, 148);" xlink:href="#symbol-1"/>
  <use width="75.98909759521484" height="137.21209716796875" transform="matrix(0.164015993475914, -0.22265298664569855, 0.22265298664569855, 0.164015993475914, 138.28892517089844, 40.21413040161133)" xlink:href="#symbol-2"/>
  <use width="75.98909759521484" height="137.21209716796875" transform="matrix(0.2639999985694885, -0.08233300596475601, 0.08233300596475601, 0.2639999985694885, 148.9274139404297, 23.104936599731445)" xlink:href="#symbol-2"/>
  <circle cx="151.482" cy="197.23" r="57.981" style="fill: rgb(250, 250, 250); stroke: rgb(182, 182, 182);"/>
  <use width="75.98909759521484" height="137.21209716796875" transform="matrix(-0.2722580134868622, 0, 0, 0.2765410244464874, 181.42662048339844, 200.07980346679688)" style="stroke-width: 23.94px; stroke: rgb(166, 172, 148);" xlink:href="#symbol-1"/>
  <use width="75.98909759521484" height="137.21209716796875" transform="matrix(-0.27435001730918884, 0.0008930000476539135, -0.003389999968931079, 0.2744450271129608, 186.25584411621094, 178.63339233398438)" style="stroke-width: 23.94px; stroke: rgb(166, 172, 148);" xlink:href="#symbol-1"/>
  <use width="75.98909759521484" height="137.21209716796875" transform="matrix(0.2765410244464874, 0, 0, 0.2765410244464874, 140.98690795898438, 204.27145385742188)" style="stroke-width: 23.94px; stroke: rgb(166, 172, 148);" xlink:href="#symbol-1"/>
  <use width="75.98909759521484" height="137.21209716796875" transform="matrix(0.1892780214548111, -0.20161600410938263, 0.20161600410938263, 0.1892780214548111, 118.86672973632812, 201.53067016601562)" style="stroke-width: 23.94px; stroke: rgb(166, 172, 148);" xlink:href="#symbol-1"/>
  <use width="75.98909759521484" height="137.21209716796875" transform="matrix(-0.23920601606369019, -0.13434799015522003, -0.13811999559402466, 0.23718000948429108, 203.7152557373047, 167.14950561523438)" style="stroke-width: 23.94px; stroke: rgb(166, 172, 148);" xlink:href="#symbol-1"/>
  <use width="75.98909759521484" height="137.21209716796875" transform="matrix(-0.11469900608062744, 0.24922502040863037, 0.2475080043077469, 0.11862199753522873, 152.0761260986328, 184.17965698242188)" style="stroke-width: 23.94px; stroke: rgb(166, 172, 148);" xlink:href="#symbol-1"/>
  <use width="75.98909759521484" height="137.21209716796875" transform="matrix(0.2628040015697479, -0.08607999980449677, 0.08607999980449677, 0.2628040015697479, 115.98272705078125, 214.33056640625)" style="stroke-width: 23.94px; stroke: rgb(166, 172, 148);" xlink:href="#symbol-1"/>
  <use width="75.98909759521484" height="137.21209716796875" transform="matrix(0.27653104066848755, 0.0022799998987466097, -0.0022799998987466097, 0.27653104066848755, 96.84945678710938, 189.30099487304688)" xlink:href="#symbol-2"/>
  <use width="75.98909759521484" height="137.21209716796875" transform="matrix(0.12251300364732742, -0.24792300164699554, 0.24792300164699554, 0.12251300364732742, 104.97183227539062, 236.82449340820312)" style="stroke-width: 23.94px; stroke: rgb(166, 172, 148);" xlink:href="#symbol-1"/>
  <use width="75.98909759521484" height="137.21209716796875" transform="matrix(-0.157819002866745, -0.22185099124908447, -0.22534099221229553, 0.16030000150203705, 200.24452209472656, 222.55303955078125)" style="stroke-width: 23.94px; stroke: rgb(166, 172, 148);" xlink:href="#symbol-1"/>
  <use width="75.98909759521484" height="137.21209716796875" transform="matrix(-0.2650029957294464, 0.07100701332092285, 0.06689099967479706, 0.2661899924278259, 193.64833068847656, 188.73602294921875)" style="stroke-width: 23.94px; stroke: rgb(166, 172, 148);" xlink:href="#symbol-1"/>
  <rect x="106.97" y="261.424" width="87.914" height="22.431" style="fill: rgb(250, 250, 250); stroke: rgb(182, 182, 182);" rx="9.242" ry="9.242"/>
  <line style="marker-start: url(#marker-0); fill: rgb(255, 255, 255); stroke-width: 1.5px; stroke: rgb(139, 139, 139);" x1="141.364" y1="250.156" x2="125.373" y2="264.483" transform="matrix(0.838671, -0.544639, 0.544639, 0.838671, -118.629941, 114.150828)"/>
  <line style="marker-start: url(#marker-0); fill: rgb(255, 255, 255); stroke-width: 1.5px; stroke: rgb(139, 139, 139);" x1="161.152" y1="245.157" x2="144.459" y2="267.345" transform="matrix(0.838671, -0.544639, 0.544639, 0.838671, -114.912235, 124.564589)"/>
  <line style="marker-start: url(#marker-0); fill: rgb(255, 255, 255); stroke-width: 1.5px; stroke: rgb(139, 139, 139);" x1="178.136" y1="240.001" x2="163.298" y2="268.65" transform="matrix(0.838671, -0.544639, 0.544639, 0.838671, -110.973883, 134.009251)"/>
  <line style="marker-start: url(#marker-0); stroke-width: 1.5px; fill: rgb(255, 246, 246); stroke: rgb(176, 173, 173);" x1="141.654" y1="132.751" x2="116.455" y2="170.084" transform="matrix(0.838671, -0.544639, 0.544639, 0.838671, -61.647577, 94.716166)"/>
  <line style="marker-start: url(#marker-0); stroke-width: 1.5px; fill: rgb(255, 246, 246); stroke: rgb(176, 173, 173);" x1="158.551" y1="120.439" x2="131.538" y2="150.569" transform="matrix(0.838671, -0.544639, 0.544639, 0.838671, -50.400813, 100.857621)"/>
  <line style="marker-start: url(#marker-0); stroke-width: 1.5px; fill: rgb(255, 246, 246); stroke: rgb(176, 173, 173);" x1="168.422" y1="135.484" x2="140.56" y2="168.967" transform="matrix(0.838671, -0.544639, 0.544639, 0.838671, -57.983989, 108.700219)"/>
  <line style="marker-start: url(#marker-0); stroke: rgb(102, 102, 102); fill: rgb(255, 255, 255); stroke-width: 1.5px;" x1="143.249" y1="114.035" x2="133.824" y2="114.31" transform="matrix(0.838671, -0.544639, 0.544639, 0.838671, -39.83278, 93.871719)"/>
  <circle cx="139.097" cy="172.974" r="21.922" style="fill: none; stroke: rgb(182, 182, 182);"/>
  <line style="marker-start: url(#marker-0); stroke: rgb(102, 102, 102); stroke-width: 1.4px;" x1="131.31" y1="188.102" x2="127.808" y2="194.663" transform="matrix(0.838671, -0.544639, 0.544639, 0.838671, -83.332675, 101.438456)"/>
  <circle style="stroke: rgb(102, 102, 102); fill: rgb(139, 139, 139); stroke-width: 1.5px;" cx="65.837" cy="88.591" r="5.874" transform="matrix(0.838671, -0.544639, 0.544639, 0.838671, 26.19371, 232.18335)"/>
  <circle style="stroke: rgb(102, 102, 102); fill: rgb(139, 139, 139); stroke-width: 1.5px;" cx="65.837" cy="88.591" r="5.874" transform="matrix(0.838671, -0.544639, 0.544639, 0.838671, 49.049408, 231.436462)"/>
  <circle style="stroke: rgb(102, 102, 102); fill: rgb(139, 139, 139); stroke-width: 1.5px;" cx="65.837" cy="88.591" r="5.874" transform="matrix(0.838671, -0.544639, 0.544639, 0.838671, 69.049408, 233.436462)"/>
  <circle style="stroke: rgb(102, 102, 102); fill: rgb(139, 139, 139); stroke-width: 1.5px;" cx="65.837" cy="88.591" r="5.874" transform="matrix(0.838671, -0.544639, 0.544639, 0.838671, 33.470871, 199.99527)"/>
  <circle style="stroke: rgb(102, 102, 102); fill: rgb(139, 139, 139); stroke-width: 1.5px;" cx="65.837" cy="88.591" r="5.874" transform="matrix(0.838671, -0.544639, 0.544639, 0.838671, 50.175644, 195.223419)"/>
  <circle style="stroke: rgb(102, 102, 102); fill: rgb(139, 139, 139); stroke-width: 1.5px;" cx="65.837" cy="88.591" r="5.874" transform="matrix(0.838671, -0.544639, 0.544639, 0.838671, 65.449509, 190.939301)"/>
  <circle style="stroke: rgb(102, 102, 102); fill: rgb(139, 139, 139); stroke-width: 1.5px;" cx="65.837" cy="88.591" r="5.874" transform="matrix(0.838671, -0.544639, 0.544639, 0.838671, 26.357857, 81.41394)"/>
  <circle style="stroke: rgb(102, 102, 102); fill: rgb(139, 139, 139); stroke-width: 1.5px;" cx="65.837" cy="88.591" r="5.874" transform="matrix(0.838671, -0.544639, 0.544639, 0.838671, 46.130005, 68.182755)"/>
  <circle style="stroke: rgb(102, 102, 102); fill: rgb(139, 139, 139); stroke-width: 1.5px;" cx="65.837" cy="88.591" r="5.874" transform="matrix(0.838671, -0.544639, 0.544639, 0.838671, 54.073395, 83.232635)"/>
  <line style="marker-start: url(#marker-0); stroke: rgb(102, 102, 102); fill: rgb(255, 255, 255); stroke-width: 1.5px;" x1="147.723" y1="125.617" x2="137.042" y2="117.409" transform="matrix(0.838671, -0.544639, 0.544639, 0.838671, -43.210225, 97.150641)"/>
  <use width="75.98909759521484" height="137.21209716796875" transform="matrix(0.24787501990795135, 0.12260600179433823, -0.12260600179433823, 0.24787501990795135, 169.4055633544922, 144.1885986328125)" xlink:href="#symbol-2"/>
  <use width="75.98909759521484" height="137.21209716796875" transform="matrix(0.1981469988822937, 0.19290700554847717, -0.19290700554847717, 0.1981469988822937, 140.71498107910156, 149.38214111328125)" style="stroke-width: 23.94px; stroke: rgb(166, 172, 148);" xlink:href="#symbol-1"/>
  <use width="75.98909759521484" height="137.21209716796875" transform="matrix(-0.05494500324130058, 0.27102798223495483, -0.27102798223495483, -0.05494500324130058, 160.48867797851562, 173.11361694335938)" style="stroke-width: 23.94px; stroke: rgb(166, 172, 148);" xlink:href="#symbol-1"/>
  <use width="75.98909759521484" height="137.21209716796875" transform="matrix(0.16682998836040497, 0.2205529808998108, -0.2205529808998108, 0.16682998836040497, 171.3023223876953, 35.87137222290039)" xlink:href="#symbol-2"/>
</svg>