<?xml version="1.0" encoding="utf-8"?>
<svg width="300px" height="250px" viewBox="0 0 300 250" xmlns="http://www.w3.org/2000/svg" xmlns:xlink="http://www.w3.org/1999/xlink">
  <defs>
    <symbol id="symbol-1" viewBox="0 0 75.9891 137.2121">
      <circle style="fill: rgb(216, 216, 216); stroke-width: 5px; stroke: rgb(102, 102, 102);" cx="243.248" cy="327.315" r="21.703" transform="matrix(0.8386710286140442, -0.544638991355896, 0.544638991355896, 0.8386710286140442, -336.30639595590213, -34.83714732185037)"/>
      <circle style="fill: rgb(216, 216, 216); stroke-width: 5px; stroke: rgb(102, 102, 102);" cx="271.904" cy="253.912" r="21.703" transform="matrix(0.8386710286140442, -0.544638991355896, 0.544638991355896, 0.8386710286140442, -336.30639595590213, -34.83714732185037)"/>
      <line style="stroke-width: 5px; marker-start: url(#marker-0); stroke: rgb(102, 102, 102);" x1="260.613" y1="282.91" x2="251.477" y2="305.225" transform="matrix(0.8386710286140442, -0.544638991355896, 0.544638991355896, 0.8386710286140442, -336.30639595590213, -34.83714732185037)"/>
    </symbol>
    <marker id="marker-0" viewBox="0 0 12.641 9.03" overflow="visible" orient="auto" refX="6.32" refY="4.51">
      <polyline style="fill: none; stroke-miterlimit: 2; stroke-width: 5px; stroke: rgb(105, 105, 105);" points="2 3.775 10.625 0 14.641 9.03" transform="matrix(-0.390731, -0.920505, 0.920505, -0.390731, 7.415497, 13.938211)"/>
    </marker>
    <symbol id="symbol-2" viewBox="0 0 75.9891 137.2121">
      <circle style="stroke-width: 5px; stroke: rgb(102, 102, 102); fill: rgb(255, 255, 255);" cx="243.248" cy="327.315" r="21.703" transform="matrix(0.8386710286140442, -0.544638991355896, 0.544638991355896, 0.8386710286140442, -336.3063959559022, -34.83714732185041)"/>
      <circle style="stroke-width: 5px; stroke: rgb(102, 102, 102); fill: rgb(255, 255, 255);" cx="271.904" cy="253.912" r="21.703" transform="matrix(0.8386710286140442, -0.544638991355896, 0.544638991355896, 0.8386710286140442, -336.3063959559022, -34.83714732185041)"/>
      <line style="stroke-width: 5px; marker-start: url(#marker-0); stroke: rgb(102, 102, 102); fill: rgb(255, 255, 255);" x1="222.038" y1="264.931" x2="212.902" y2="287.246" transform="matrix(0.8386710286140442, -0.544638991355896, 0.544638991355896, 0.8386710286140442, -294.1620401819764, -40.768025007397284)"/>
    </symbol>
  </defs>
  <circle cx="147.504" cy="68.809" r="46.718" style="fill: rgb(250, 250, 250); stroke: rgb(182, 182, 182);"/>
  <use width="75.98909759521484" height="137.21209716796875" transform="matrix(0.219831, 0, 0, 0.219831, 118.930389, 45.342735)" style="stroke-width: 23.94px; stroke: rgb(166, 172, 148);" xlink:href="#symbol-1"/>
  <use width="75.98909759521484" height="137.21209716796875" transform="matrix(0.157513, 0.153347, -0.153347, 0.157513, 134.751266, 27.825493)" style="stroke-width: 23.94px; stroke: rgb(166, 172, 148);" xlink:href="#symbol-1"/>
  <use width="75.98909759521484" height="137.21209716796875" transform="matrix(-0.216426, 0, 0, 0.219831, 163.934402, 81.640358)" style="stroke-width: 23.94px; stroke: rgb(166, 172, 148);" xlink:href="#symbol-1"/>
  <use width="75.98909759521484" height="137.21209716796875" transform="matrix(-0.210659, 0.056446, 0.053174, 0.211602, 161.273315, 62.924484)" style="stroke-width: 23.94px; stroke: rgb(166, 172, 148);" xlink:href="#symbol-1"/>
  <use width="75.98909759521484" height="137.21209716796875" transform="matrix(0.150463, -0.160271, 0.160271, 0.150463, 119.768219, 69.279892)" style="stroke-width: 23.94px; stroke: rgb(166, 172, 148);" xlink:href="#symbol-1"/>
  <use width="75.98909759521484" height="137.21209716796875" transform="matrix(-0.190152, -0.106797, -0.109796, 0.188541, 176.882767, 55.463085)" style="stroke-width: 23.94px; stroke: rgb(166, 172, 148);" xlink:href="#symbol-1"/>
  <use width="75.98909759521484" height="137.21209716796875" transform="matrix(-0.091178, 0.198116, 0.196751, 0.094296, 140.602844, 69.129265)" style="stroke-width: 23.94px; stroke: rgb(166, 172, 148);" xlink:href="#symbol-1"/>
  <use width="75.98909759521484" height="137.21209716796875" transform="matrix(0.21953, 0.011499, -0.011499, 0.21953, 123.014862, 79.826454)" style="stroke-width: 23.94px; stroke: rgb(166, 172, 148);" xlink:href="#symbol-1"/>
  <use width="75.98909759521484" height="137.21209716796875" transform="matrix(-0.043677, 0.215448, -0.215448, -0.043677, 150.469955, 46.690331)" style="stroke-width: 23.94px; stroke: rgb(166, 172, 148);" xlink:href="#symbol-1"/>
  <use width="75.98909759521484" height="137.21209716796875" transform="matrix(0.213156, 0.053754, -0.053754, 0.213156, 110.852325, 53.272491)" xlink:href="#symbol-2"/>
  <use width="75.98909759521484" height="137.21209716796875" transform="matrix(-0.198729, -0.081985, -0.083836, 0.203217, 194.954697, 69.972366)" xlink:href="#symbol-2"/>
  <use width="75.98909759521484" height="137.21209716796875" transform="matrix(0.213156, 0.053754, -0.053754, 0.213156, 111.64959, 35.811684)" xlink:href="#symbol-2"/>
  <use width="75.98909759521484" height="137.21209716796875" transform="matrix(-0.198729, -0.081985, -0.083836, 0.203217, 190.87442, 50.384563)" xlink:href="#symbol-2"/>
  <use width="75.98909759521484" height="137.21209716796875" transform="matrix(0.161898, -0.148711, 0.148711, 0.161898, 108.403572, 93.348831)" style="stroke-width: 23.94px; stroke: rgb(166, 172, 148);" xlink:href="#symbol-1"/>
  <use width="75.98909759521484" height="137.21209716796875" transform="matrix(-0.125455, -0.176356, -0.17913, 0.127427, 178.893341, 99.505005)" style="stroke-width: 23.94px; stroke: rgb(166, 172, 148);" xlink:href="#symbol-1"/>
  <use width="75.98909759521484" height="137.21209716796875" transform="matrix(-0.210659, 0.056446, 0.053174, 0.211602, 173.649765, 72.622818)" style="stroke-width: 23.94px; stroke: rgb(166, 172, 148);" xlink:href="#symbol-1"/>
  <use width="75.98909759521484" height="137.21209716796875" transform="matrix(0.130381, -0.176993, 0.176993, 0.130381, 138.54747, 40.422535)" xlink:href="#symbol-2"/>
  <use width="75.98909759521484" height="137.21209716796875" transform="matrix(0.209861, -0.065449, 0.065449, 0.209861, 147.004318, 26.821932)" xlink:href="#symbol-2"/>
  <circle cx="149.035" cy="165.239" r="46.091" style="fill: rgb(250, 250, 250); stroke: rgb(182, 182, 182);"/>
  <use width="75.98909759521484" height="137.21209716796875" transform="matrix(0.144345, -0.165801, 0.165801, 0.144345, 100.99823, 176.360153)" xlink:href="#symbol-2"/>
  <rect x="113.651" y="216.269" width="69.885" height="17.831" style="fill: rgb(250, 250, 250); stroke: rgb(182, 182, 182);" rx="9.242" ry="9.242"/>
  <line style="marker-start: url(#marker-0); fill: rgb(255, 255, 255); stroke: rgb(139, 139, 139);" x1="160.191" y1="173.353" x2="128.28" y2="218.7" transform="matrix(0.838671, -0.544639, 0.544639, 0.838671, -94.290601, 107.692093)"/>
  <line style="marker-start: url(#marker-0); fill: rgb(255, 255, 255); stroke: rgb(139, 139, 139);" x1="183.524" y1="161.187" x2="143.452" y2="220.976" transform="matrix(0.838671, -0.544639, 0.544639, 0.838671, -91.335505, 115.970336)"/>
  <line style="marker-start: url(#marker-0); fill: rgb(255, 255, 255); stroke: rgb(139, 139, 139);" x1="181.755" y1="179.138" x2="158.428" y2="222.013" transform="matrix(0.838671, -0.544639, 0.544639, 0.838671, -88.204576, 123.478182)"/>
  <line style="marker-start: url(#marker-0); fill: rgb(255, 246, 246); stroke: rgb(176, 173, 173); stroke-width: 1.1px;" x1="144.892" y1="113.592" x2="123.513" y2="152.669" transform="matrix(0.838671, -0.544639, 0.544639, 0.838671, -50.857245, 94.569735)"/>
  <line style="marker-start: url(#marker-0); fill: rgb(255, 246, 246); stroke: rgb(176, 173, 173); stroke-width: 1.1px;" x1="154.654" y1="104.196" x2="135.882" y2="139.224" transform="matrix(0.838671, -0.544639, 0.544639, 0.838671, -40.0534, 97.12492)"/>
  <line style="marker-start: url(#marker-0); fill: rgb(255, 246, 246); stroke: rgb(176, 173, 173); stroke-width: 1.1px;" x1="162.501" y1="116.155" x2="140.856" y2="162.507" transform="matrix(0.838671, -0.544639, 0.544639, 0.838671, -46.081237, 103.359273)"/>
  <line style="marker-start: url(#marker-0); stroke: rgb(102, 102, 102); fill: rgb(255, 255, 255); stroke-width: 1.1px;" x1="142.49" y1="99.105" x2="134.998" y2="99.324" transform="matrix(0.838671, -0.544639, 0.544639, 0.838671, -31.652596, 91.57157)"/>
  <circle cx="148.976" cy="158.381" r="23.382" style="fill: none; stroke: rgb(182, 182, 182);"/>
  <circle style="stroke: rgb(102, 102, 102); fill: rgb(139, 139, 139);" cx="52.336" cy="70.424" r="4.669" transform="matrix(0.838671, -0.544639, 0.544639, 0.838671, 49.439682, 193.024521)"/>
  <circle style="stroke: rgb(102, 102, 102); fill: rgb(139, 139, 139);" cx="52.336" cy="70.424" r="4.669" transform="matrix(0.838671, -0.544639, 0.544639, 0.838671, 67.608353, 192.430801)"/>
  <circle style="stroke: rgb(102, 102, 102); fill: rgb(139, 139, 139);" cx="52.336" cy="70.424" r="4.669" transform="matrix(0.838671, -0.544639, 0.544639, 0.838671, 83.506943, 194.02066)"/>
  <circle style="stroke: rgb(102, 102, 102); fill: rgb(139, 139, 139); stroke-width: 1.1px;" cx="52.336" cy="70.424" r="4.669" transform="matrix(0.838671, -0.544639, 0.544639, 0.838671, 49.570168, 73.173477)"/>
  <circle style="stroke: rgb(102, 102, 102); fill: rgb(139, 139, 139); stroke-width: 1.1px;" cx="52.336" cy="70.424" r="4.669" transform="matrix(0.838671, -0.544639, 0.544639, 0.838671, 65.287636, 62.655617)"/>
  <circle style="stroke: rgb(102, 102, 102); fill: rgb(139, 139, 139); stroke-width: 1.1px;" cx="52.336" cy="70.424" r="4.669" transform="matrix(0.838671, -0.544639, 0.544639, 0.838671, 71.602066, 74.619209)"/>
  <line style="marker-start: url(#marker-0); stroke: rgb(102, 102, 102); fill: rgb(255, 255, 255); stroke-width: 1.1px;" x1="146.047" y1="108.312" x2="137.556" y2="101.787" transform="matrix(0.838671, -0.544639, 0.544639, 0.838671, -34.3373, 94.178157)"/>
  <use width="75.98909759521484" height="137.21209716796875" transform="matrix(0.197043, 0.097463, -0.097463, 0.197043, 178.00676, 161.596924)" xlink:href="#symbol-2"/>
  <use width="75.98909759521484" height="137.21209716796875" transform="matrix(0.132618, 0.175324, -0.175324, 0.132618, 164.790802, 36.970348)" xlink:href="#symbol-2"/>
  <line style="marker-start: url(#marker-0); stroke: rgb(102, 102, 102); fill: rgb(255, 255, 255); stroke-width: 1.1px;" x1="148.113" y1="152.081" x2="138.433" y2="154.495" transform="matrix(0.838671, -0.544639, 0.544639, 0.838671, -61.146616, 102.34337)"/>
  <circle style="stroke: rgb(102, 102, 102); fill: rgb(139, 139, 139); stroke-width: 1.1px;" cx="52.336" cy="70.424" r="4.669" transform="matrix(0.838671, -0.544639, 0.544639, 0.838671, 53.005642, 128.343796)"/>
  <circle style="stroke: rgb(102, 102, 102); fill: rgb(139, 139, 139); stroke-width: 1.1px;" cx="52.336" cy="70.424" r="4.669" transform="matrix(0.838671, -0.544639, 0.544639, 0.838671, 68.723114, 113.996048)"/>
  <circle style="stroke: rgb(102, 102, 102); fill: rgb(139, 139, 139); stroke-width: 1.1px;" cx="52.336" cy="70.424" r="4.669" transform="matrix(0.838671, -0.544639, 0.544639, 0.838671, 78.548271, 137.44928)"/>
  <line style="marker-start: url(#marker-0); stroke: rgb(102, 102, 102); fill: rgb(255, 255, 255); stroke-width: 1.1px;" x1="150.26" y1="169.316" x2="140.991" y2="156.958" transform="matrix(0.838671, -0.544639, 0.544639, 0.838671, -63.8314, 104.949687)"/>
  <use width="75.98909759521484" height="137.21209716796875" transform="matrix(0.197043, 0.097463, -0.097463, 0.197043, 182.300568, 144.506729)" xlink:href="#symbol-2"/>
  <use width="75.98909759521484" height="137.21209716796875" transform="matrix(0.17796, 0.129059, -0.129059, 0.17796, 118.414978, 127.945602)" xlink:href="#symbol-2"/>
  <use width="75.98909759521484" height="137.21209716796875" transform="matrix(0.218136, -0.027257, 0.027257, 0.218136, 112.547417, 162.075348)" xlink:href="#symbol-2"/>
  <use width="75.98909759521484" height="137.21209716796875" transform="matrix(0.209022, -0.06809, 0.06809, 0.209022, 168.29451, 133.943466)" xlink:href="#symbol-2"/>
  <use width="75.98909759521484" height="137.21209716796875" transform="matrix(0.08424, -0.203051, 0.203051, 0.08424, 115.46769, 200.099884)" xlink:href="#symbol-2"/>
</svg>