<?xml version="1.0" encoding="utf-8"?>
<svg viewBox="30.786 16.849 300 300" width="300px" height="300px" xmlns="http://www.w3.org/2000/svg" xmlns:xlink="http://www.w3.org/1999/xlink">
  <defs>
    <symbol id="symbol-1" viewBox="0 0 75.9891 137.2121">
      <circle style="fill: rgb(216, 216, 216); stroke-width: 5px; stroke: rgb(102, 102, 102);" cx="243.248" cy="327.315" r="21.703" transform="matrix(0.8386710286140442, -0.544638991355896, 0.544638991355896, 0.8386710286140442, -336.30639595590213, -34.83714732185037)"/>
      <circle style="fill: rgb(216, 216, 216); stroke-width: 5px; stroke: rgb(102, 102, 102);" cx="271.904" cy="253.912" r="21.703" transform="matrix(0.8386710286140442, -0.544638991355896, 0.544638991355896, 0.8386710286140442, -336.30639595590213, -34.83714732185037)"/>
      <line style="stroke-width: 5px; marker-start: url(#marker-0); stroke: rgb(102, 102, 102);" x1="260.613" y1="282.91" x2="251.477" y2="305.225" transform="matrix(0.8386710286140442, -0.544638991355896, 0.544638991355896, 0.8386710286140442, -336.30639595590213, -34.83714732185037)"/>
    </symbol>
    <marker id="marker-0" viewBox="0 0 12.641 9.03" overflow="visible" orient="auto" refX="6.32" refY="4.51">
      <polyline style="fill: none; stroke-miterlimit: 2; stroke-width: 5px; stroke: rgb(105, 105, 105);" points="2 3.775 10.625 0 14.641 9.03" transform="matrix(-0.390731, -0.920505, 0.920505, -0.390731, 7.415497, 13.938211)"/>
    </marker>
    <symbol id="symbol-2" viewBox="0 0 75.9891 137.2121">
      <circle style="stroke-width: 5px; stroke: rgb(102, 102, 102); fill: rgb(255, 255, 255);" cx="243.248" cy="327.315" r="21.703" transform="matrix(0.8386710286140442, -0.544638991355896, 0.544638991355896, 0.8386710286140442, -336.3063959559022, -34.83714732185041)"/>
      <circle style="stroke-width: 5px; stroke: rgb(102, 102, 102); fill: rgb(255, 255, 255);" cx="271.904" cy="253.912" r="21.703" transform="matrix(0.8386710286140442, -0.544638991355896, 0.544638991355896, 0.8386710286140442, -336.3063959559022, -34.83714732185041)"/>
      <line style="stroke-width: 5px; marker-start: url(#marker-0); stroke: rgb(102, 102, 102); fill: rgb(255, 255, 255);" x1="222.038" y1="264.931" x2="212.902" y2="287.246" transform="matrix(0.8386710286140442, -0.544638991355896, 0.544638991355896, 0.8386710286140442, -294.1620401819764, -40.768025007397284)"/>
    </symbol>
  </defs>
  <circle cx="158.955" cy="91.706" r="58.77" style="fill: rgb(250, 250, 250); stroke: rgb(186, 218, 85);" transform="matrix(0.858973, -0.512021, 0.512021, 0.858973, -65.234116, 113.089104)"/>
  <use width="75.98909759521484" height="137.21209716796875" transform="matrix(0.237541, -0.141595, 0.141595, 0.237541, 72.268555, 103.521866)" style="stroke-width: 23.94px; stroke: rgb(166, 172, 148);" xlink:href="#symbol-1"/>
  <use width="75.98909759521484" height="137.21209716796875" transform="matrix(0.268975, 0.064246, -0.064246, 0.268975, 78.081024, 74.402977)" style="stroke-width: 23.94px; stroke: rgb(166, 172, 148);" xlink:href="#symbol-1"/>
  <use width="75.98909759521484" height="137.21209716796875" transform="matrix(-0.233862, 0.139402, 0.141595, 0.237541, 144.277924, 113.756325)" style="stroke-width: 23.94px; stroke: rgb(166, 172, 148);" xlink:href="#symbol-1"/>
  <use width="75.98909759521484" height="137.21209716796875" transform="matrix(-0.191273, 0.19668, 0.193752, 0.1944, 129.347397, 95.246628)" style="stroke-width: 23.94px; stroke: rgb(166, 172, 148);" xlink:href="#symbol-1"/>
  <use width="75.98909759521484" height="137.21209716796875" transform="matrix(0.059353, -0.270097, 0.270097, 0.059353, 88.592026, 128.84787)" style="stroke-width: 23.94px; stroke: rgb(166, 172, 148);" xlink:href="#symbol-1"/>
  <use width="75.98909759521484" height="137.21209716796875" transform="matrix(-0.27426, 0.007077, 0.0028, 0.274452, 141.408447, 77.129921)" style="stroke-width: 23.94px; stroke: rgb(166, 172, 148);" xlink:href="#symbol-1"/>
  <use width="75.98909759521484" height="137.21209716796875" transform="matrix(0.029085, 0.272806, 0.27334, -0.024836, 111.008163, 115.265335)" style="stroke-width: 23.94px; stroke: rgb(166, 172, 148);" xlink:href="#symbol-1"/>
  <use width="75.98909759521484" height="137.21209716796875" transform="matrix(0.244623, -0.128975, 0.128975, 0.244623, 98.893364, 138.152908)" style="stroke-width: 23.94px; stroke: rgb(166, 172, 148);" xlink:href="#symbol-1"/>
  <use width="75.98909759521484" height="137.21209716796875" transform="matrix(0.091576, 0.260939, -0.260939, 0.091576, 107.217102, 84.663109)" style="stroke-width: 23.94px; stroke: rgb(166, 172, 148);" xlink:href="#symbol-1"/>
  <use width="75.98909759521484" height="137.21209716796875" transform="matrix(0.264953, -0.079211, 0.079211, 0.264953, 68.647316, 117.293633)" xlink:href="#symbol-2"/>
  <use width="75.98909759521484" height="137.21209716796875" transform="matrix(-0.267547, 0.039413, 0.040304, 0.273589, 170.281906, 81.167847)" xlink:href="#symbol-2"/>
  <use width="75.98909759521484" height="137.21209716796875" transform="matrix(0.264953, -0.079211, 0.079211, 0.264953, 58.262138, 97.912575)" xlink:href="#symbol-2"/>
  <use width="75.98909759521484" height="137.21209716796875" transform="matrix(-0.267547, 0.039413, 0.040304, 0.273589, 153.256226, 62.630096)" xlink:href="#symbol-2"/>
  <use width="75.98909759521484" height="137.21209716796875" transform="matrix(0.079155, -0.264971, 0.264971, 0.079155, 91.814796, 162.17598)" style="stroke-width: 23.94px; stroke: rgb(166, 172, 148);" xlink:href="#symbol-1"/>
  <use width="75.98909759521484" height="137.21209716796875" transform="matrix(-0.249155, -0.109757, -0.111485, 0.253073, 171.948822, 123.425049)" style="stroke-width: 23.94px; stroke: rgb(166, 172, 148);" xlink:href="#symbol-1"/>
  <use width="75.98909759521484" height="137.21209716796875" transform="matrix(-0.191273, 0.19668, 0.193752, 0.1944, 148.967728, 97.754524)" style="stroke-width: 23.94px; stroke: rgb(166, 172, 148);" xlink:href="#symbol-1"/>
  <use width="75.98909759521484" height="137.21209716796875" transform="matrix(0.026882, -0.275233, 0.275233, 0.026882, 90.296944, 85.569733)" xlink:href="#symbol-2"/>
  <use width="75.98909759521484" height="137.21209716796875" transform="matrix(0.184613, -0.205895, 0.205895, 0.184613, 90.674843, 65.42627)" xlink:href="#symbol-2"/>
  <circle cx="160.881" cy="213.013" r="57.981" style="fill: rgb(250, 250, 250); stroke: rgb(186, 218, 85);" transform="matrix(0.858973, -0.512021, 0.512021, 0.858973, -65.234116, 113.089104)"/>
  <use width="75.98909759521484" height="137.21209716796875" transform="matrix(-0.233862, 0.139402, 0.141595, 0.237541, 209.205658, 200.802597)" style="stroke-width: 23.94px; stroke: rgb(166, 172, 148);" xlink:href="#symbol-1"/>
  <use width="75.98909759521484" height="137.21209716796875" transform="matrix(-0.274338, -0.002714, -0.006998, 0.274377, 219.780716, 182.845871)" style="stroke-width: 23.94px; stroke: rgb(166, 172, 148);" xlink:href="#symbol-1"/>
  <use width="75.98909759521484" height="137.21209716796875" transform="matrix(0.257008, -0.102086, 0.102086, 0.257008, 177.586151, 223.2724)" style="stroke-width: 23.94px; stroke: rgb(166, 172, 148);" xlink:href="#symbol-1"/>
  <use width="75.98909759521484" height="137.21209716796875" transform="matrix(0.059353, -0.270097, 0.270097, 0.059353, 156.211288, 234.080826)" style="stroke-width: 23.94px; stroke: rgb(166, 172, 148);" xlink:href="#symbol-1"/>
  <use width="75.98909759521484" height="137.21209716796875" transform="matrix(-0.109557, 0.251527, 0.249892, 0.113514, 189.528137, 167.105667)" style="stroke-width: 23.94px; stroke: rgb(166, 172, 148);" xlink:href="#symbol-1"/>
  <use width="75.98909759521484" height="137.21209716796875" transform="matrix(0.075117, 0.263868, 0.265118, -0.071021, 174.376251, 207.141251)" style="stroke-width: 23.94px; stroke: rgb(166, 172, 148);" xlink:href="#symbol-1"/>
  <use width="75.98909759521484" height="137.21209716796875" transform="matrix(0.181667, -0.208502, 0.208502, 0.181667, 155.287827, 245.552246)" style="stroke-width: 23.94px; stroke: rgb(166, 172, 148);" xlink:href="#symbol-1"/>
  <use width="75.98909759521484" height="137.21209716796875" transform="matrix(-0.021706, -0.275688, 0.275688, -0.021706, 157.347137, 270.511749)" style="stroke-width: 23.94px; stroke: rgb(166, 172, 148);" xlink:href="#symbol-1"/>
  <line style="marker-start: url(#marker-0); stroke-width: 1.5px; fill: rgb(255, 246, 246); stroke: rgb(176, 173, 173);" x1="151.903" y1="167.152" x2="126.704" y2="204.485" transform="matrix(0.441529, -0.897247, 0.897247, 0.441529, -88.928117, 228.763902)"/>
  <line style="marker-start: url(#marker-0); stroke-width: 1.5px; fill: rgb(255, 246, 246); stroke: rgb(176, 173, 173);" x1="158.397" y1="148.897" x2="131.384" y2="179.027" transform="matrix(0.441529, -0.897247, 0.897247, 0.441529, -66.19726, 221.570601)"/>
  <line style="marker-start: url(#marker-0); stroke-width: 1.5px; fill: rgb(255, 246, 246); stroke: rgb(176, 173, 173);" x1="175.498" y1="156.747" x2="147.636" y2="190.23" transform="matrix(0.441529, -0.897247, 0.897247, 0.441529, -65.431539, 241.853812)"/>
  <line style="marker-start: url(#marker-0); stroke: rgb(102, 102, 102); fill: rgb(255, 255, 255); stroke-width: 1.5px;" x1="133.091" y1="148.834" x2="123.666" y2="149.109" transform="matrix(0.441529, -0.897247, 0.897247, 0.441529, -61.968552, 198.383496)"/>
  <circle cx="148.496" cy="188.757" r="21.922" style="fill: none; stroke: rgb(186, 218, 85);" transform="matrix(0.858973, -0.512021, 0.512021, 0.858973, -65.234116, 113.089104)"/>
  <line style="marker-start: url(#marker-0); stroke: rgb(102, 102, 102); stroke-width: 1.4px;" x1="161.951" y1="216.609" x2="158.449" y2="223.17" transform="matrix(0.441529, -0.897247, 0.897247, 0.441529, -107.828126, 266.540894)"/>
  <circle style="stroke: rgb(102, 102, 102); fill: rgb(139, 139, 139); stroke-width: 1.5px;" cx="65.837" cy="88.591" r="5.874" transform="matrix(0.441529, -0.897247, 0.897247, 0.441529, 77.072411, 275.48645)"/>
  <circle style="stroke: rgb(102, 102, 102); fill: rgb(139, 139, 139); stroke-width: 1.5px;" cx="65.837" cy="88.591" r="5.874" transform="matrix(0.578379, -0.815768, 0.815768, 0.578379, 89.848907, 248.386749)"/>
  <circle style="stroke: rgb(102, 102, 102); fill: rgb(139, 139, 139); stroke-width: 1.5px;" cx="65.837" cy="88.591" r="5.874" transform="matrix(0.441529, -0.897247, 0.897247, 0.441529, 104.904343, 252.333893)"/>
  <circle style="stroke: rgb(102, 102, 102); fill: rgb(139, 139, 139); stroke-width: 1.5px;" cx="65.837" cy="88.591" r="5.874" transform="matrix(0.441529, -0.897247, 0.897247, 0.441529, 15.246374, 178.270325)"/>
  <circle style="stroke: rgb(102, 102, 102); fill: rgb(139, 139, 139); stroke-width: 1.5px;" cx="65.837" cy="88.591" r="5.874" transform="matrix(0.441529, -0.897247, 0.897247, 0.441529, 25.455463, 156.781342)"/>
  <circle style="stroke: rgb(102, 102, 102); fill: rgb(139, 139, 139); stroke-width: 1.5px;" cx="65.837" cy="88.591" r="5.874" transform="matrix(0.441529, -0.897247, 0.897247, 0.441529, 39.984478, 165.641586)"/>
  <line style="marker-start: url(#marker-0); stroke: rgb(102, 102, 102); fill: rgb(255, 255, 255); stroke-width: 1.5px;" x1="140.781" y1="157.411" x2="130.1" y2="149.203" transform="matrix(0.441529, -0.897247, 0.897247, 0.441529, -61.914644, 207.141111)"/>
  <use width="75.98909759521484" height="137.21209716796875" transform="matrix(0.270756, 0.056262, -0.056262, 0.270756, 221.792084, 200.329041)" xlink:href="#symbol-2"/>
  <use width="75.98909759521484" height="137.21209716796875" transform="matrix(0.268975, 0.064246, -0.064246, 0.268975, 148.277191, 178.099899)" style="stroke-width: 23.94px; stroke: rgb(166, 172, 148);" xlink:href="#symbol-1"/>
  <use width="75.98909759521484" height="137.21209716796875" transform="matrix(0.091576, 0.260939, -0.260939, 0.091576, 177.413284, 188.360031)" style="stroke-width: 23.94px; stroke: rgb(166, 172, 148);" xlink:href="#symbol-1"/>
  <use width="75.98909759521484" height="137.21209716796875" transform="matrix(0.25623, 0.104029, -0.104029, 0.25623, 116.430969, 64.93586)" xlink:href="#symbol-2"/>
  <circle cx="158.955" cy="91.706" r="58.77" style="fill: rgb(250, 250, 250); stroke: rgb(186, 218, 85);" transform="matrix(0.884218, 0.467075, -0.467075, 0.884218, 142.052124, -48.459808)"/>
  <use width="75.98909759521484" height="137.21209716796875" transform="matrix(0.244522, 0.129165, -0.129165, 0.244522, 221.773804, 63.981155)" style="stroke-width: 23.94px; stroke: rgb(166, 172, 148);" xlink:href="#symbol-1"/>
  <use width="75.98909759521484" height="137.21209716796875" transform="matrix(0.085103, 0.263121, -0.263121, 0.085103, 249.664291, 53.792175)" style="stroke-width: 23.94px; stroke: rgb(166, 172, 148);" xlink:href="#symbol-1"/>
  <use width="75.98909759521484" height="137.21209716796875" transform="matrix(-0.240735, -0.127165, -0.129165, 0.244522, 250.505447, 130.798721)" style="stroke-width: 23.94px; stroke: rgb(166, 172, 148);" xlink:href="#symbol-1"/>
  <use width="75.98909759521484" height="137.21209716796875" transform="matrix(-0.267486, -0.060991, -0.065184, 0.266612, 258.542328, 108.417084)" style="stroke-width: 23.94px; stroke: rgb(166, 172, 148);" xlink:href="#symbol-1"/>
  <use width="75.98909759521484" height="137.21209716796875" transform="matrix(0.261533, -0.089865, 0.089865, 0.261533, 208.641037, 91.099281)" style="stroke-width: 23.94px; stroke: rgb(166, 172, 148);" xlink:href="#symbol-1"/>
  <use width="75.98909759521484" height="137.21209716796875" transform="matrix(-0.148759, -0.23052, -0.232909, 0.145207, 280.289124, 109.289192)" style="stroke-width: 23.94px; stroke: rgb(166, 172, 148);" xlink:href="#symbol-1"/>
  <use width="75.98909759521484" height="137.21209716796875" transform="matrix(-0.217826, 0.166796, 0.163446, 0.220493, 231.904358, 103.173485)" style="stroke-width: 23.94px; stroke: rgb(166, 172, 148);" xlink:href="#symbol-1"/>
  <use width="75.98909759521484" height="137.21209716796875" transform="matrix(0.171953, 0.21658, -0.21658, 0.171953, 216.695251, 108.066254)" style="stroke-width: 23.94px; stroke: rgb(166, 172, 148);" xlink:href="#symbol-1"/>
  <use width="75.98909759521484" height="137.21209716796875" transform="matrix(0.205514, 0.185036, -0.185036, 0.205514, 208.129135, 68.055199)" xlink:href="#symbol-2"/>
  <use width="75.98909759521484" height="137.21209716796875" transform="matrix(0.205514, 0.185036, -0.185036, 0.205514, 219.275345, 49.101582)" xlink:href="#symbol-2"/>
  <use width="75.98909759521484" height="137.21209716796875" transform="matrix(-0.172879, -0.207961, -0.212657, 0.176784, 298.836334, 111.86129)" xlink:href="#symbol-2"/>
  <use width="75.98909759521484" height="137.21209716796875" transform="matrix(0.275034, 0.028834, -0.028834, 0.275034, 191.936676, 105.707008)" style="stroke-width: 23.94px; stroke: rgb(166, 172, 148);" xlink:href="#symbol-1"/>
  <use width="75.98909759521484" height="137.21209716796875" transform="matrix(0.249022, -0.120266, 0.120266, 0.249022, 246.485275, 70.034683)" xlink:href="#symbol-2"/>
  <use width="75.98909759521484" height="137.21209716796875" transform="matrix(0.271889, 0.050508, -0.050508, 0.271889, 263.883301, 59.875393)" xlink:href="#symbol-2"/>
  <circle style="stroke: rgb(102, 102, 102); fill: rgb(139, 139, 139); stroke-width: 1.5px;" cx="65.837" cy="88.591" r="5.874" transform="matrix(0.995955, -0.089857, 0.089857, 0.995955, 128.270462, 54.184067)"/>
  <circle style="stroke: rgb(102, 102, 102); fill: rgb(139, 139, 139); stroke-width: 1.5px;" cx="65.837" cy="88.591" r="5.874" transform="matrix(0.995955, -0.089857, 0.089857, 0.995955, 151.927551, 68.737427)"/>
  <line style="marker-start: url(#marker-0); stroke: rgb(102, 102, 102); fill: rgb(255, 255, 255); stroke-width: 1.5px;" x1="220.474" y1="148.937" x2="209.793" y2="140.729" transform="matrix(-0.997433, 0.071603, -0.071603, -0.997433, 440.085279, 273.890031)"/>
  <use width="75.98909759521484" height="137.21209716796875" transform="matrix(0.044499, 0.272939, -0.272939, 0.044499, 277.704712, 81.614471)" xlink:href="#symbol-2"/>
  <line style="marker-start: url(#marker-0); stroke-width: 1.5px; fill: rgb(255, 246, 246); stroke: rgb(176, 173, 173);" x1="199.499" y1="145.072" x2="194.756" y2="171.327" transform="matrix(0.999978, -0.006681, 0.006681, 0.999978, -1.052531, 1.320539)"/>
  <line style="marker-start: url(#marker-0); stroke-width: 1.5px; fill: rgb(255, 246, 246); stroke: rgb(176, 173, 173);" x1="222.473" y1="158.897" x2="213.498" y2="184.467" transform="matrix(0.999978, -0.006681, 0.006681, 0.999978, -1.142142, 1.460192)"/>
  <circle cx="148.496" cy="188.757" r="21.922" style="fill: none; stroke: rgb(186, 218, 85);" transform="matrix(0.858973, -0.512021, 0.512021, 0.858973, -22.769093, 97.335541)"/>
  <use width="75.98909759521484" height="137.21209716796875" transform="matrix(0.215275, -0.173587, 0.173587, 0.215275, 241.838654, 127.641144)" xlink:href="#symbol-2"/>
  <use width="75.98909759521484" height="137.21209716796875" transform="matrix(0.275074, 0.028442, -0.028442, 0.275074, 260.955353, 111.77948)" xlink:href="#symbol-2"/>
  <use width="75.98909759521484" height="137.21209716796875" transform="matrix(0.066341, 0.268467, -0.268467, 0.066341, 276.483002, 132.334549)" xlink:href="#symbol-2"/>
  <use width="75.98909759521484" height="137.21209716796875" transform="matrix(0.252632, 0.112482, -0.112482, 0.252632, 230.876587, 82.401115)" style="stroke-width: 23.94px; stroke: rgb(166, 172, 148);" xlink:href="#symbol-1"/>
  <use width="75.98909759521484" height="137.21209716796875" transform="matrix(0.262779, -0.086159, 0.086159, 0.262779, 127.674332, 226.513748)" xlink:href="#symbol-2"/>
  <use width="75.98909759521484" height="137.21209716796875" transform="matrix(0.262782, 0.08614, -0.08614, 0.262782, 146.266586, 218.752975)" xlink:href="#symbol-2"/>
</svg>