<?xml version="1.0" encoding="utf-8"?>
<svg viewBox="30.786 16.849 300 180" width="300px" height="250px" xmlns="http://www.w3.org/2000/svg" xmlns:xlink="http://www.w3.org/1999/xlink">
  <defs>
    <symbol id="symbol-1" viewBox="0 0 75.9891 137.2121">
      <circle style="fill: rgb(216, 216, 216); stroke-width: 5px; stroke: rgb(102, 102, 102);" cx="243.248" cy="327.315" r="21.703" transform="matrix(0.8386710286140442, -0.544638991355896, 0.544638991355896, 0.8386710286140442, -336.30639595590213, -34.83714732185037)"/>
      <circle style="fill: rgb(216, 216, 216); stroke-width: 5px; stroke: rgb(102, 102, 102);" cx="271.904" cy="253.912" r="21.703" transform="matrix(0.8386710286140442, -0.544638991355896, 0.544638991355896, 0.8386710286140442, -336.30639595590213, -34.83714732185037)"/>
      <line style="stroke-width: 5px; marker-start: url(#marker-0); stroke: rgb(102, 102, 102);" x1="260.613" y1="282.91" x2="251.477" y2="305.225" transform="matrix(0.8386710286140442, -0.544638991355896, 0.544638991355896, 0.8386710286140442, -336.30639595590213, -34.83714732185037)"/>
    </symbol>
    <marker id="marker-0" viewBox="0 0 12.641 9.03" overflow="visible" orient="auto" refX="6.32" refY="4.51">
      <polyline style="fill: none; stroke-miterlimit: 2; stroke-width: 5px; stroke: rgb(105, 105, 105);" points="2 3.775 10.625 0 14.641 9.03" transform="matrix(-0.390731, -0.920505, 0.920505, -0.390731, 7.415497, 13.938211)"/>
    </marker>
    <symbol id="symbol-2" viewBox="0 0 75.9891 137.2121">
      <circle style="stroke-width: 5px; stroke: rgb(102, 102, 102); fill: rgb(255, 255, 255);" cx="243.248" cy="327.315" r="21.703" transform="matrix(0.8386710286140442, -0.544638991355896, 0.544638991355896, 0.8386710286140442, -336.3063959559022, -34.83714732185041)"/>
      <circle style="stroke-width: 5px; stroke: rgb(102, 102, 102); fill: rgb(255, 255, 255);" cx="271.904" cy="253.912" r="21.703" transform="matrix(0.8386710286140442, -0.544638991355896, 0.544638991355896, 0.8386710286140442, -336.3063959559022, -34.83714732185041)"/>
      <line style="stroke-width: 5px; marker-start: url(#marker-0); stroke: rgb(102, 102, 102); fill: rgb(255, 255, 255);" x1="222.038" y1="264.931" x2="212.902" y2="287.246" transform="matrix(0.8386710286140442, -0.544638991355896, 0.544638991355896, 0.8386710286140442, -294.1620401819764, -40.768025007397284)"/>
    </symbol>
  </defs>
  <circle cx="118.451" cy="68.338" r="43.795" style="fill: rgb(250, 250, 250); stroke: rgb(182, 182, 182);" transform="matrix(0.858973, -0.512021, 0.512021, 0.858973, -6.008823, 72.268936)"/>
  <use width="75.98909759521484" height="137.21209716796875" transform="matrix(0.177013, -0.105515, 0.105515, 0.177013, 96.456505, 65.139542)" style="stroke-width: 23.94px; stroke: rgb(166, 172, 148);" xlink:href="#symbol-1"/>
  <use width="75.98909759521484" height="137.21209716796875" transform="matrix(0.200437, 0.047875, -0.047875, 0.200437, 100.787888, 43.440498)" style="stroke-width: 23.94px; stroke: rgb(166, 172, 148);" xlink:href="#symbol-1"/>
  <use width="75.98909759521484" height="137.21209716796875" transform="matrix(-0.174271, 0.103881, 0.105515, 0.177013, 150.117004, 72.766136)" style="stroke-width: 23.94px; stroke: rgb(166, 172, 148);" xlink:href="#symbol-1"/>
  <use width="75.98909759521484" height="137.21209716796875" transform="matrix(-0.142534, 0.146564, 0.144382, 0.144864, 138.990967, 58.972939)" style="stroke-width: 23.94px; stroke: rgb(166, 172, 148);" xlink:href="#symbol-1"/>
  <use width="75.98909759521484" height="137.21209716796875" transform="matrix(0.044229, -0.201273, 0.201273, 0.044229, 108.62056, 84.012177)" style="stroke-width: 23.94px; stroke: rgb(166, 172, 148);" xlink:href="#symbol-1"/>
  <use width="75.98909759521484" height="137.21209716796875" transform="matrix(-0.204375, 0.005274, 0.002087, 0.204518, 147.978714, 45.472588)" style="stroke-width: 23.94px; stroke: rgb(166, 172, 148);" xlink:href="#symbol-1"/>
  <use width="75.98909759521484" height="137.21209716796875" transform="matrix(0.021674, 0.203292, 0.20369, -0.018507, 125.324791, 73.890633)" style="stroke-width: 23.94px; stroke: rgb(166, 172, 148);" xlink:href="#symbol-1"/>
  <use width="75.98909759521484" height="137.21209716796875" transform="matrix(0.18229, -0.096111, 0.096111, 0.18229, 116.296989, 90.946167)" style="stroke-width: 23.94px; stroke: rgb(166, 172, 148);" xlink:href="#symbol-1"/>
  <use width="75.98909759521484" height="137.21209716796875" transform="matrix(0.068241, 0.194449, -0.194449, 0.068241, 122.499741, 51.086227)" style="stroke-width: 23.94px; stroke: rgb(166, 172, 148);" xlink:href="#symbol-1"/>
  <use width="75.98909759521484" height="137.21209716796875" transform="matrix(0.19744, -0.059027, 0.059027, 0.19744, 93.758003, 75.4021)" xlink:href="#symbol-2"/>
  <use width="75.98909759521484" height="137.21209716796875" transform="matrix(-0.199373, 0.02937, 0.030034, 0.203875, 169.494873, 48.481598)" xlink:href="#symbol-2"/>
  <use width="75.98909759521484" height="137.21209716796875" transform="matrix(0.19744, -0.059027, 0.059027, 0.19744, 86.019089, 60.959564)" xlink:href="#symbol-2"/>
  <use width="75.98909759521484" height="137.21209716796875" transform="matrix(-0.199373, 0.02937, 0.030034, 0.203875, 156.807541, 34.667496)" xlink:href="#symbol-2"/>
  <use width="75.98909759521484" height="137.21209716796875" transform="matrix(0.058985, -0.197453, 0.197453, 0.058985, 111.022125, 108.84787)" style="stroke-width: 23.94px; stroke: rgb(166, 172, 148);" xlink:href="#symbol-1"/>
  <use width="75.98909759521484" height="137.21209716796875" transform="matrix(-0.185667, -0.08179, -0.083077, 0.188587, 170.73703, 79.971153)" style="stroke-width: 23.94px; stroke: rgb(166, 172, 148);" xlink:href="#symbol-1"/>
  <use width="75.98909759521484" height="137.21209716796875" transform="matrix(-0.142534, 0.146564, 0.144382, 0.144864, 153.611801, 60.841789)" style="stroke-width: 23.94px; stroke: rgb(166, 172, 148);" xlink:href="#symbol-1"/>
  <use width="75.98909759521484" height="137.21209716796875" transform="matrix(0.020032, -0.2051, 0.2051, 0.020032, 109.891045, 51.761833)" xlink:href="#symbol-2"/>
  <use width="75.98909759521484" height="137.21209716796875" transform="matrix(0.137571, -0.15343, 0.15343, 0.137571, 110.172646, 36.751167)" xlink:href="#symbol-2"/>
  <circle cx="119.887" cy="158.735" r="43.207" style="fill: rgb(250, 250, 250); stroke: rgb(182, 182, 182);" transform="matrix(0.858973, -0.512021, 0.512021, 0.858973, -6.008823, 72.268936)"/>
  <use width="75.98909759521484" height="137.21209716796875" transform="matrix(-0.174271, 0.103881, 0.105515, 0.177013, 198.500381, 137.631973)" style="stroke-width: 23.94px; stroke: rgb(166, 172, 148);" xlink:href="#symbol-1"/>
  <use width="75.98909759521484" height="137.21209716796875" transform="matrix(-0.204433, -0.002022, -0.005215, 0.204462, 206.380783, 124.250839)" style="stroke-width: 23.94px; stroke: rgb(166, 172, 148);" xlink:href="#symbol-1"/>
  <use width="75.98909759521484" height="137.21209716796875" transform="matrix(0.191519, -0.076073, 0.076073, 0.191519, 174.937897, 154.37619)" style="stroke-width: 23.94px; stroke: rgb(166, 172, 148);" xlink:href="#symbol-1"/>
  <use width="75.98909759521484" height="137.21209716796875" transform="matrix(0.044229, -0.201273, 0.201273, 0.044229, 159.009613, 162.430496)" style="stroke-width: 23.94px; stroke: rgb(166, 172, 148);" xlink:href="#symbol-1"/>
  <use width="75.98909759521484" height="137.21209716796875" transform="matrix(-0.081641, 0.187435, 0.186217, 0.084589, 183.836929, 112.521423)" style="stroke-width: 23.94px; stroke: rgb(166, 172, 148);" xlink:href="#symbol-1"/>
  <use width="75.98909759521484" height="137.21209716796875" transform="matrix(0.055976, 0.196631, 0.197563, -0.052924, 172.545929, 142.355453)" style="stroke-width: 23.94px; stroke: rgb(166, 172, 148);" xlink:href="#symbol-1"/>
  <use width="75.98909759521484" height="137.21209716796875" transform="matrix(0.135376, -0.155373, 0.155373, 0.135376, 158.321472, 170.978867)" style="stroke-width: 23.94px; stroke: rgb(166, 172, 148);" xlink:href="#symbol-1"/>
  <use width="75.98909759521484" height="137.21209716796875" transform="matrix(-0.016175, -0.205439, 0.205439, -0.016175, 159.856033, 189.578384)" style="stroke-width: 23.94px; stroke: rgb(166, 172, 148);" xlink:href="#symbol-1"/>
  <line style="marker-start: url(#marker-0); fill: rgb(255, 246, 246); stroke: rgb(176, 173, 173);" x1="155.799" y1="112.556" x2="137.021" y2="140.376" transform="matrix(0.441529, -0.897247, 0.897247, 0.441529, -31.705498, 201.993534)"/>
  <line style="marker-start: url(#marker-0); fill: rgb(255, 246, 246); stroke: rgb(176, 173, 173);" x1="160.638" y1="98.953" x2="140.509" y2="121.405" transform="matrix(0.441529, -0.897247, 0.897247, 0.441529, -14.766836, 196.633407)"/>
  <line style="marker-start: url(#marker-0); fill: rgb(255, 246, 246); stroke: rgb(176, 173, 173);" x1="173.382" y1="104.802" x2="152.619" y2="129.753" transform="matrix(0.441529, -0.897247, 0.897247, 0.441529, -14.195826, 211.747806)"/>
  <line style="marker-start: url(#marker-0); stroke: rgb(102, 102, 102); fill: rgb(255, 255, 255);" x1="141.781" y1="98.906" x2="134.757" y2="99.111" transform="matrix(0.441529, -0.897247, 0.897247, 0.441529, -11.615842, 179.354832)"/>
  <circle cx="110.657" cy="140.659" r="16.336" style="fill: none; stroke: rgb(182, 182, 182);" transform="matrix(0.858973, -0.512021, 0.512021, 0.858973, -6.008823, 72.268936)"/>
  <line style="marker-start: url(#marker-0); stroke: rgb(102, 102, 102); stroke-width: 1.4px;" x1="163.287" y1="149.411" x2="160.677" y2="154.3" transform="matrix(0.441529, -0.897247, 0.897247, 0.441529, -45.789632, 230.144768)"/>
  <circle style="stroke: rgb(102, 102, 102); fill: rgb(139, 139, 139); stroke-width: 1.5px;" cx="49.061" cy="66.017" r="4.377" transform="matrix(0.441529, -0.897247, 0.897247, 0.441529, 100.036278, 193.285477)"/>
  <circle style="stroke: rgb(102, 102, 102); fill: rgb(139, 139, 139); stroke-width: 1.5px;" cx="49.061" cy="66.017" r="4.377" transform="matrix(0.578379, -0.815768, 0.815768, 0.578379, 109.557175, 173.091095)"/>
  <circle style="stroke: rgb(102, 102, 102); fill: rgb(139, 139, 139); stroke-width: 1.5px;" cx="49.061" cy="66.017" r="4.377" transform="matrix(0.441529, -0.897247, 0.897247, 0.441529, 120.776299, 176.032471)"/>
  <circle style="stroke: rgb(102, 102, 102); fill: rgb(139, 139, 139); stroke-width: 1.5px;" cx="49.061" cy="66.017" r="4.377" transform="matrix(0.441529, -0.897247, 0.897247, 0.441529, 53.964264, 120.841187)"/>
  <circle style="stroke: rgb(102, 102, 102); fill: rgb(139, 139, 139); stroke-width: 1.5px;" cx="49.061" cy="66.017" r="4.377" transform="matrix(0.441529, -0.897247, 0.897247, 0.441529, 61.571953, 104.82785)"/>
  <circle style="stroke: rgb(102, 102, 102); fill: rgb(139, 139, 139); stroke-width: 1.5px;" cx="49.061" cy="66.017" r="4.377" transform="matrix(0.441529, -0.897247, 0.897247, 0.441529, 72.398804, 111.430405)"/>
  <line style="marker-start: url(#marker-0); stroke: rgb(102, 102, 102); fill: rgb(255, 255, 255);" x1="147.511" y1="105.297" x2="139.552" y2="99.181" transform="matrix(0.441529, -0.897247, 0.897247, 0.441529, -11.575446, 185.880732)"/>
  <use width="75.98909759521484" height="137.21209716796875" transform="matrix(0.201764, 0.041926, -0.041926, 0.201764, 207.879623, 137.279083)" xlink:href="#symbol-2"/>
  <use width="75.98909759521484" height="137.21209716796875" transform="matrix(0.200437, 0.047875, -0.047875, 0.200437, 153.097229, 120.714188)" style="stroke-width: 23.94px; stroke: rgb(166, 172, 148);" xlink:href="#symbol-1"/>
  <use width="75.98909759521484" height="137.21209716796875" transform="matrix(0.068241, 0.194449, -0.194449, 0.068241, 174.809082, 128.359924)" style="stroke-width: 23.94px; stroke: rgb(166, 172, 148);" xlink:href="#symbol-1"/>
  <use width="75.98909759521484" height="137.21209716796875" transform="matrix(0.19094, 0.077521, -0.077521, 0.19094, 129.365799, 36.385719)" xlink:href="#symbol-2"/>
  <circle cx="118.451" cy="68.338" r="43.795" style="fill: rgb(250, 250, 250); stroke: rgb(182, 182, 182);" transform="matrix(0.884218, 0.467075, -0.467075, 0.884218, 148.458374, -48.11536)"/>
  <use width="75.98909759521484" height="137.21209716796875" transform="matrix(0.182215, 0.096252, -0.096252, 0.182215, 207.866013, 35.674286)" style="stroke-width: 23.94px; stroke: rgb(166, 172, 148);" xlink:href="#symbol-1"/>
  <use width="75.98909759521484" height="137.21209716796875" transform="matrix(0.063418, 0.196074, -0.196074, 0.063418, 228.649658, 28.081581)" style="stroke-width: 23.94px; stroke: rgb(166, 172, 148);" xlink:href="#symbol-1"/>
  <use width="75.98909759521484" height="137.21209716796875" transform="matrix(-0.179393, -0.094762, -0.096252, 0.182215, 229.276489, 85.465927)" style="stroke-width: 23.94px; stroke: rgb(166, 172, 148);" xlink:href="#symbol-1"/>
  <use width="75.98909759521484" height="137.21209716796875" transform="matrix(-0.199327, -0.04545, -0.048574, 0.198676, 235.265472, 68.787399)" style="stroke-width: 23.94px; stroke: rgb(166, 172, 148);" xlink:href="#symbol-1"/>
  <use width="75.98909759521484" height="137.21209716796875" transform="matrix(0.194891, -0.066966, 0.066966, 0.194891, 198.079636, 55.882385)" style="stroke-width: 23.94px; stroke: rgb(166, 172, 148);" xlink:href="#symbol-1"/>
  <use width="75.98909759521484" height="137.21209716796875" transform="matrix(-0.110853, -0.171781, -0.173561, 0.108207, 251.470917, 69.437286)" style="stroke-width: 23.94px; stroke: rgb(166, 172, 148);" xlink:href="#symbol-1"/>
  <use width="75.98909759521484" height="137.21209716796875" transform="matrix(-0.162321, 0.124294, 0.121798, 0.164309, 215.415176, 64.879936)" style="stroke-width: 23.94px; stroke: rgb(166, 172, 148);" xlink:href="#symbol-1"/>
  <use width="75.98909759521484" height="137.21209716796875" transform="matrix(0.128137, 0.161393, -0.161393, 0.128137, 204.081528, 68.525963)" style="stroke-width: 23.94px; stroke: rgb(166, 172, 148);" xlink:href="#symbol-1"/>
  <use width="75.98909759521484" height="137.21209716796875" transform="matrix(0.153147, 0.137887, -0.137887, 0.153147, 197.698166, 38.710213)" xlink:href="#symbol-2"/>
  <use width="75.98909759521484" height="137.21209716796875" transform="matrix(0.153147, 0.137887, -0.137887, 0.153147, 206.004181, 24.586205)" xlink:href="#symbol-2"/>
  <use width="75.98909759521484" height="137.21209716796875" transform="matrix(-0.128827, -0.15497, -0.158469, 0.131737, 265.292053, 71.353981)" xlink:href="#symbol-2"/>
  <use width="75.98909759521484" height="137.21209716796875" transform="matrix(0.204952, 0.021487, -0.021487, 0.204952, 185.631744, 66.767883)" style="stroke-width: 23.94px; stroke: rgb(166, 172, 148);" xlink:href="#symbol-1"/>
  <use width="75.98909759521484" height="137.21209716796875" transform="matrix(0.185568, -0.089621, 0.089621, 0.185568, 226.280701, 40.185303)" xlink:href="#symbol-2"/>
  <use width="75.98909759521484" height="137.21209716796875" transform="matrix(0.202608, 0.037638, -0.037638, 0.202608, 239.245499, 32.614723)" xlink:href="#symbol-2"/>
  <circle style="stroke: rgb(102, 102, 102); fill: rgb(139, 139, 139); stroke-width: 1.5px;" cx="49.061" cy="66.017" r="4.377" transform="matrix(0.995955, -0.089857, 0.089857, 0.995955, 138.188446, 28.373611)"/>
  <circle style="stroke: rgb(102, 102, 102); fill: rgb(139, 139, 139); stroke-width: 1.5px;" cx="49.061" cy="66.017" r="4.377" transform="matrix(0.995955, -0.089857, 0.089857, 0.995955, 155.817429, 39.218597)"/>
  <line style="marker-start: url(#marker-0); stroke: rgb(102, 102, 102); fill: rgb(255, 255, 255);" x1="206.897" y1="98.982" x2="198.938" y2="92.866" transform="matrix(-0.997433, 0.071603, -0.071603, -0.997433, 412.18261, 177.072272)"/>
  <use width="75.98909759521484" height="137.21209716796875" transform="matrix(0.03316, 0.203391, -0.203391, 0.03316, 249.545044, 48.814415)" xlink:href="#symbol-2"/>
  <line style="marker-start: url(#marker-0); fill: rgb(255, 246, 246); stroke: rgb(176, 173, 173);" x1="191.267" y1="96.102" x2="187.733" y2="115.667" transform="matrix(0.999978, -0.006681, 0.006681, 0.999978, -0.703185, 1.268412)"/>
  <line style="marker-start: url(#marker-0); fill: rgb(255, 246, 246); stroke: rgb(176, 173, 173);" x1="208.387" y1="106.404" x2="201.699" y2="125.459" transform="matrix(0.999978, -0.006681, 0.006681, 0.999978, -0.769962, 1.372479)"/>
  <circle cx="110.657" cy="140.659" r="16.336" style="fill: none; stroke: rgb(182, 182, 182);" transform="matrix(0.858973, -0.512021, 0.512021, 0.858973, 25.635601, 60.529572)"/>
  <use width="75.98909759521484" height="137.21209716796875" transform="matrix(0.16042, -0.129355, 0.129355, 0.16042, 222.818085, 83.112938)" xlink:href="#symbol-2"/>
  <use width="75.98909759521484" height="137.21209716796875" transform="matrix(0.204982, 0.021195, -0.021195, 0.204982, 237.063629, 71.293015)" xlink:href="#symbol-2"/>
  <use width="75.98909759521484" height="137.21209716796875" transform="matrix(0.049437, 0.200058, -0.200058, 0.049437, 248.634644, 86.610405)" xlink:href="#symbol-2"/>
  <use width="75.98909759521484" height="137.21209716796875" transform="matrix(0.188258, 0.08382, -0.08382, 0.188258, 214.649292, 49.400612)" style="stroke-width: 23.94px; stroke: rgb(166, 172, 148);" xlink:href="#symbol-1"/>
  <use width="75.98909759521484" height="137.21209716796875" transform="matrix(0.19582, -0.064205, 0.064205, 0.19582, 137.744217, 156.791611)" xlink:href="#symbol-2"/>
  <use width="75.98909759521484" height="137.21209716796875" transform="matrix(0.195822, 0.064191, -0.064191, 0.195822, 151.598938, 151.008377)" xlink:href="#symbol-2"/>
</svg>