<?xml version="1.0" encoding="utf-8"?>
<svg viewBox="30.786 16.849 300 180" width="300px" height="180px" xmlns="http://www.w3.org/2000/svg" xmlns:xlink="http://www.w3.org/1999/xlink">
  <defs>
    <symbol id="symbol-1" viewBox="0 0 75.9891 137.2121">
      <circle style="fill: rgb(216, 216, 216); stroke-width: 5px; stroke: rgb(102, 102, 102);" cx="243.248" cy="327.315" r="21.703" transform="matrix(0.8386710286140442, -0.544638991355896, 0.544638991355896, 0.8386710286140442, -336.30639595590213, -34.83714732185037)"/>
      <circle style="fill: rgb(216, 216, 216); stroke-width: 5px; stroke: rgb(102, 102, 102);" cx="271.904" cy="253.912" r="21.703" transform="matrix(0.8386710286140442, -0.544638991355896, 0.544638991355896, 0.8386710286140442, -336.30639595590213, -34.83714732185037)"/>
      <line style="stroke-width: 5px; marker-start: url(#marker-0); stroke: rgb(102, 102, 102);" x1="260.613" y1="282.91" x2="251.477" y2="305.225" transform="matrix(0.8386710286140442, -0.544638991355896, 0.544638991355896, 0.8386710286140442, -336.30639595590213, -34.83714732185037)"/>
    </symbol>
    <marker id="marker-0" viewBox="0 0 12.641 9.03" overflow="visible" orient="auto" refX="6.32" refY="4.51">
      <polyline style="fill: none; stroke-miterlimit: 2; stroke-width: 5px; stroke: rgb(105, 105, 105);" points="2 3.775 10.625 0 14.641 9.03" transform="matrix(-0.390731, -0.920505, 0.920505, -0.390731, 7.415497, 13.938211)"/>
    </marker>
    <symbol id="symbol-2" viewBox="0 0 75.9891 137.2121">
      <circle style="stroke-width: 5px; stroke: rgb(102, 102, 102); fill: rgb(255, 255, 255);" cx="243.248" cy="327.315" r="21.703" transform="matrix(0.8386710286140442, -0.544638991355896, 0.544638991355896, 0.8386710286140442, -336.3063959559022, -34.83714732185041)"/>
      <circle style="stroke-width: 5px; stroke: rgb(102, 102, 102); fill: rgb(255, 255, 255);" cx="271.904" cy="253.912" r="21.703" transform="matrix(0.8386710286140442, -0.544638991355896, 0.544638991355896, 0.8386710286140442, -336.3063959559022, -34.83714732185041)"/>
      <line style="stroke-width: 5px; marker-start: url(#marker-0); stroke: rgb(102, 102, 102); fill: rgb(255, 255, 255);" x1="222.038" y1="264.931" x2="212.902" y2="287.246" transform="matrix(0.8386710286140442, -0.544638991355896, 0.544638991355896, 0.8386710286140442, -294.1620401819764, -40.768025007397284)"/>
    </symbol>
  </defs>
  <circle cx="107.834" cy="62.213" r="39.87" style="fill: rgb(250, 250, 250); stroke: rgb(182, 182, 182);" transform="matrix(0.858973, -0.512021, 0.512021, 0.858973, 13.865332, 71.549316)"/>
  <use width="75.98909759521484" height="137.21209716796875" transform="matrix(0.161147, -0.096058, 0.096058, 0.161147, 107.146599, 65.058945)" style="stroke-width: 23.94px; stroke: rgb(166, 172, 148);" xlink:href="#symbol-1"/>
  <use width="75.98909759521484" height="137.21209716796875" transform="matrix(0.182472, 0.043584, -0.043584, 0.182472, 111.089752, 45.304802)" style="stroke-width: 23.94px; stroke: rgb(166, 172, 148);" xlink:href="#symbol-1"/>
  <use width="75.98909759521484" height="137.21209716796875" transform="matrix(-0.158651, 0.09457, 0.096058, 0.161147, 155.997452, 72.001953)" style="stroke-width: 23.94px; stroke: rgb(166, 172, 148);" xlink:href="#symbol-1"/>
  <use width="75.98909759521484" height="137.21209716796875" transform="matrix(-0.129759, 0.133427, 0.131441, 0.13188, 145.868652, 59.445053)" style="stroke-width: 23.94px; stroke: rgb(166, 172, 148);" xlink:href="#symbol-1"/>
  <use width="75.98909759521484" height="137.21209716796875" transform="matrix(0.040265, -0.183233, 0.183233, 0.040265, 118.220375, 82.240005)" style="stroke-width: 23.94px; stroke: rgb(166, 172, 148);" xlink:href="#symbol-1"/>
  <use width="75.98909759521484" height="137.21209716796875" transform="matrix(-0.186057, 0.004801, 0.0019, 0.186187, 154.050827, 47.154751)" style="stroke-width: 23.94px; stroke: rgb(166, 172, 148);" xlink:href="#symbol-1"/>
  <use width="75.98909759521484" height="137.21209716796875" transform="matrix(0.019731, 0.185071, 0.185433, -0.016848, 133.427399, 73.025665)" style="stroke-width: 23.94px; stroke: rgb(166, 172, 148);" xlink:href="#symbol-1"/>
  <use width="75.98909759521484" height="137.21209716796875" transform="matrix(0.165951, -0.087496, 0.087496, 0.165951, 125.208763, 88.55249)" style="stroke-width: 23.94px; stroke: rgb(166, 172, 148);" xlink:href="#symbol-1"/>
  <use width="75.98909759521484" height="137.21209716796875" transform="matrix(0.062125, 0.17702, -0.17702, 0.062125, 130.85556, 52.265236)" style="stroke-width: 23.94px; stroke: rgb(166, 172, 148);" xlink:href="#symbol-1"/>
  <use width="75.98909759521484" height="137.21209716796875" transform="matrix(0.179743, -0.053736, 0.053736, 0.179743, 104.689964, 74.401657)" xlink:href="#symbol-2"/>
  <use width="75.98909759521484" height="137.21209716796875" transform="matrix(-0.181503, 0.026738, 0.027342, 0.185602, 173.638474, 49.894062)" xlink:href="#symbol-2"/>
  <use width="75.98909759521484" height="137.21209716796875" transform="matrix(0.179743, -0.053736, 0.053736, 0.179743, 97.644699, 61.253616)" xlink:href="#symbol-2"/>
  <use width="75.98909759521484" height="137.21209716796875" transform="matrix(-0.181503, 0.026738, 0.027342, 0.185602, 162.088318, 37.31813)" xlink:href="#symbol-2"/>
  <use width="75.98909759521484" height="137.21209716796875" transform="matrix(0.053698, -0.179755, 0.179755, 0.053698, 120.406693, 104.849648)" style="stroke-width: 23.94px; stroke: rgb(166, 172, 148);" xlink:href="#symbol-1"/>
  <use width="75.98909759521484" height="137.21209716796875" transform="matrix(-0.169026, -0.074459, -0.075631, 0.171684, 174.769287, 78.56118)" style="stroke-width: 23.94px; stroke: rgb(166, 172, 148);" xlink:href="#symbol-1"/>
  <use width="75.98909759521484" height="137.21209716796875" transform="matrix(-0.129759, 0.133427, 0.131441, 0.13188, 159.179016, 61.146397)" style="stroke-width: 23.94px; stroke: rgb(166, 172, 148);" xlink:href="#symbol-1"/>
  <use width="75.98909759521484" height="137.21209716796875" transform="matrix(0.018237, -0.186717, 0.186717, 0.018237, 119.376991, 52.880287)" xlink:href="#symbol-2"/>
  <use width="75.98909759521484" height="137.21209716796875" transform="matrix(0.12524, -0.139678, 0.139678, 0.12524, 119.633347, 39.215042)" xlink:href="#symbol-2"/>
  <circle cx="109.141" cy="144.507" r="39.334" style="fill: rgb(250, 250, 250); stroke: rgb(182, 182, 182);" transform="matrix(0.858973, -0.512021, 0.512021, 0.858973, 13.865332, 71.549316)"/>
  <use width="75.98909759521484" height="137.21209716796875" transform="matrix(-0.158651, 0.09457, 0.096058, 0.161147, 200.044189, 131.053802)" style="stroke-width: 23.94px; stroke: rgb(166, 172, 148);" xlink:href="#symbol-1"/>
  <use width="75.98909759521484" height="137.21209716796875" transform="matrix(-0.186109, -0.001841, -0.004748, 0.186136, 207.218262, 118.87204)" style="stroke-width: 23.94px; stroke: rgb(166, 172, 148);" xlink:href="#symbol-1"/>
  <use width="75.98909759521484" height="137.21209716796875" transform="matrix(0.174353, -0.069255, 0.069255, 0.174353, 178.593628, 146.297226)" style="stroke-width: 23.94px; stroke: rgb(166, 172, 148);" xlink:href="#symbol-1"/>
  <use width="75.98909759521484" height="137.21209716796875" transform="matrix(0.040265, -0.183233, 0.183233, 0.040265, 164.093018, 153.629623)" style="stroke-width: 23.94px; stroke: rgb(166, 172, 148);" xlink:href="#symbol-1"/>
  <use width="75.98909759521484" height="137.21209716796875" transform="matrix(-0.074323, 0.170635, 0.169526, 0.077007, 186.695038, 108.193939)" style="stroke-width: 23.94px; stroke: rgb(166, 172, 148);" xlink:href="#symbol-1"/>
  <use width="75.98909759521484" height="137.21209716796875" transform="matrix(0.050959, 0.179007, 0.179855, -0.04818, 176.416061, 135.353912)" style="stroke-width: 23.94px; stroke: rgb(166, 172, 148);" xlink:href="#symbol-1"/>
  <use width="75.98909759521484" height="137.21209716796875" transform="matrix(0.123242, -0.141447, 0.141447, 0.123242, 163.466553, 161.411789)" style="stroke-width: 23.94px; stroke: rgb(166, 172, 148);" xlink:href="#symbol-1"/>
  <use width="75.98909759521484" height="137.21209716796875" transform="matrix(-0.014725, -0.187025, 0.187025, -0.014725, 164.863571, 178.344208)" style="stroke-width: 23.94px; stroke: rgb(166, 172, 148);" xlink:href="#symbol-1"/>
  <line style="marker-start: url(#marker-0); fill: rgb(255, 246, 246); stroke: rgb(176, 173, 173);" x1="161.17" y1="108.225" x2="144.075" y2="133.552" transform="matrix(0.441529, -0.897247, 0.897247, 0.441529, -23.231597, 204.452808)"/>
  <line style="marker-start: url(#marker-0); fill: rgb(255, 246, 246); stroke: rgb(176, 173, 173);" x1="165.575" y1="95.842" x2="147.251" y2="116.281" transform="matrix(0.441529, -0.897247, 0.897247, 0.441529, -7.811229, 199.573377)"/>
  <line style="marker-start: url(#marker-0); fill: rgb(255, 246, 246); stroke: rgb(176, 173, 173);" x1="177.177" y1="101.166" x2="158.275" y2="123.881" transform="matrix(0.441529, -0.897247, 0.897247, 0.441529, -7.291257, 213.332767)"/>
  <line style="marker-start: url(#marker-0); stroke: rgb(102, 102, 102); fill: rgb(255, 255, 255);" x1="148.409" y1="95.799" x2="142.014" y2="95.986" transform="matrix(0.441529, -0.897247, 0.897247, 0.441529, -4.942839, 183.843773)"/>
  <circle cx="100.739" cy="128.052" r="14.872" style="fill: none; stroke: rgb(182, 182, 182);" transform="matrix(0.858973, -0.512021, 0.512021, 0.858973, 13.865332, 71.549316)"/>
  <line style="marker-start: url(#marker-0); stroke: rgb(102, 102, 102); stroke-width: 1.4px;" x1="167.987" y1="141.777" x2="165.611" y2="146.228" transform="matrix(0.441529, -0.897247, 0.897247, 0.441529, -36.053396, 230.081126)"/>
  <circle style="stroke: rgb(102, 102, 102); fill: rgb(139, 139, 139); stroke-width: 1.5px;" cx="44.664" cy="60.1" r="3.985" transform="matrix(0.441529, -0.897247, 0.897247, 0.441529, 110.40551, 181.71904)"/>
  <circle style="stroke: rgb(102, 102, 102); fill: rgb(139, 139, 139); stroke-width: 1.5px;" cx="44.664" cy="60.1" r="3.985" transform="matrix(0.578379, -0.815768, 0.815768, 0.578379, 119.073044, 163.334702)"/>
  <circle style="stroke: rgb(102, 102, 102); fill: rgb(139, 139, 139); stroke-width: 1.5px;" cx="44.664" cy="60.1" r="3.985" transform="matrix(0.441529, -0.897247, 0.897247, 0.441529, 129.286575, 166.012436)"/>
  <circle style="stroke: rgb(102, 102, 102); fill: rgb(139, 139, 139); stroke-width: 1.5px;" cx="44.664" cy="60.1" r="3.985" transform="matrix(0.441529, -0.897247, 0.897247, 0.441529, 68.462975, 115.767998)"/>
  <circle style="stroke: rgb(102, 102, 102); fill: rgb(139, 139, 139); stroke-width: 1.5px;" cx="44.664" cy="60.1" r="3.985" transform="matrix(0.441529, -0.897247, 0.897247, 0.441529, 75.388779, 101.189949)"/>
  <circle style="stroke: rgb(102, 102, 102); fill: rgb(139, 139, 139); stroke-width: 1.5px;" cx="44.664" cy="60.1" r="3.985" transform="matrix(0.441529, -0.897247, 0.897247, 0.441529, 85.245209, 107.200706)"/>
  <line style="marker-start: url(#marker-0); stroke: rgb(102, 102, 102); fill: rgb(255, 255, 255);" x1="153.625" y1="101.617" x2="146.379" y2="96.049" transform="matrix(0.441529, -0.897247, 0.897247, 0.441529, -4.905839, 189.784215)"/>
  <use width="75.98909759521484" height="137.21209716796875" transform="matrix(0.18368, 0.038168, -0.038168, 0.18368, 208.582764, 130.732544)" xlink:href="#symbol-2"/>
  <use width="75.98909759521484" height="137.21209716796875" transform="matrix(0.182472, 0.043584, -0.043584, 0.182472, 158.710556, 115.652382)" style="stroke-width: 23.94px; stroke: rgb(166, 172, 148);" xlink:href="#symbol-1"/>
  <use width="75.98909759521484" height="137.21209716796875" transform="matrix(0.062125, 0.17702, -0.17702, 0.062125, 178.476364, 122.612823)" style="stroke-width: 23.94px; stroke: rgb(166, 172, 148);" xlink:href="#symbol-1"/>
  <use width="75.98909759521484" height="137.21209716796875" transform="matrix(0.173826, 0.070573, -0.070573, 0.173826, 137.106201, 38.882347)" xlink:href="#symbol-2"/>
  <circle cx="107.834" cy="62.213" r="39.87" style="fill: rgb(250, 250, 250); stroke: rgb(182, 182, 182);" transform="matrix(0.884218, 0.467075, -0.467075, 0.884218, 154.487488, -38.044823)"/>
  <use width="75.98909759521484" height="137.21209716796875" transform="matrix(0.165883, 0.087625, -0.087625, 0.165883, 208.570374, 38.23468)" style="stroke-width: 23.94px; stroke: rgb(166, 172, 148);" xlink:href="#symbol-1"/>
  <use width="75.98909759521484" height="137.21209716796875" transform="matrix(0.057734, 0.1785, -0.1785, 0.057734, 227.491165, 31.322517)" style="stroke-width: 23.94px; stroke: rgb(166, 172, 148);" xlink:href="#symbol-1"/>
  <use width="75.98909759521484" height="137.21209716796875" transform="matrix(-0.163314, -0.086268, -0.087625, 0.165883, 228.061798, 83.563454)" style="stroke-width: 23.94px; stroke: rgb(166, 172, 148);" xlink:href="#symbol-1"/>
  <use width="75.98909759521484" height="137.21209716796875" transform="matrix(-0.181461, -0.041376, -0.04422, 0.180869, 233.513992, 68.379837)" style="stroke-width: 23.94px; stroke: rgb(166, 172, 148);" xlink:href="#symbol-1"/>
  <use width="75.98909759521484" height="137.21209716796875" transform="matrix(0.177423, -0.060964, 0.060964, 0.177423, 199.661148, 56.631512)" style="stroke-width: 23.94px; stroke: rgb(166, 172, 148);" xlink:href="#symbol-1"/>
  <use width="75.98909759521484" height="137.21209716796875" transform="matrix(-0.100917, -0.156384, -0.158005, 0.098508, 248.266922, 68.971474)" style="stroke-width: 23.94px; stroke: rgb(166, 172, 148);" xlink:href="#symbol-1"/>
  <use width="75.98909759521484" height="137.21209716796875" transform="matrix(-0.147772, 0.113153, 0.110881, 0.149582, 215.442902, 64.822601)" style="stroke-width: 23.94px; stroke: rgb(166, 172, 148);" xlink:href="#symbol-1"/>
  <use width="75.98909759521484" height="137.21209716796875" transform="matrix(0.116652, 0.146927, -0.146927, 0.116652, 205.125092, 68.14183)" style="stroke-width: 23.94px; stroke: rgb(166, 172, 148);" xlink:href="#symbol-1"/>
  <use width="75.98909759521484" height="137.21209716796875" transform="matrix(0.13942, 0.125528, -0.125528, 0.13942, 199.313873, 40.998497)" xlink:href="#symbol-2"/>
  <use width="75.98909759521484" height="137.21209716796875" transform="matrix(0.13942, 0.125528, -0.125528, 0.13942, 206.875412, 28.140434)" xlink:href="#symbol-2"/>
  <use width="75.98909759521484" height="137.21209716796875" transform="matrix(-0.11728, -0.14108, -0.144265, 0.119929, 260.849243, 70.71637)" xlink:href="#symbol-2"/>
  <use width="75.98909759521484" height="137.21209716796875" transform="matrix(0.186582, 0.019561, -0.019561, 0.186582, 188.328979, 66.541336)" style="stroke-width: 23.94px; stroke: rgb(166, 172, 148);" xlink:href="#symbol-1"/>
  <use width="75.98909759521484" height="137.21209716796875" transform="matrix(0.168935, -0.081588, 0.081588, 0.168935, 225.334534, 42.341373)" xlink:href="#symbol-2"/>
  <use width="75.98909759521484" height="137.21209716796875" transform="matrix(0.184448, 0.034264, -0.034264, 0.184448, 237.137283, 35.449348)" xlink:href="#symbol-2"/>
  <circle style="stroke: rgb(102, 102, 102); fill: rgb(139, 139, 139); stroke-width: 1.5px;" cx="44.664" cy="60.1" r="3.985" transform="matrix(0.995955, -0.089857, 0.089857, 0.995955, 145.138062, 31.588373)"/>
  <circle style="stroke: rgb(102, 102, 102); fill: rgb(139, 139, 139); stroke-width: 1.5px;" cx="44.664" cy="60.1" r="3.985" transform="matrix(0.995955, -0.089857, 0.089857, 0.995955, 161.186951, 41.461315)"/>
  <line style="marker-start: url(#marker-0); stroke: rgb(102, 102, 102); fill: rgb(255, 255, 255);" x1="207.688" y1="95.868" x2="200.443" y2="90.3" transform="matrix(-0.997433, 0.071603, -0.071603, -0.997433, 414.272301, 171.317361)"/>
  <use width="75.98909759521484" height="137.21209716796875" transform="matrix(0.030188, 0.185161, -0.185161, 0.030188, 246.513672, 50.197048)" xlink:href="#symbol-2"/>
  <line style="marker-start: url(#marker-0); fill: rgb(255, 246, 246); stroke: rgb(176, 173, 173);" x1="193.459" y1="93.246" x2="190.242" y2="111.058" transform="matrix(0.999978, -0.006681, 0.006681, 0.999978, -0.678196, 1.284033)"/>
  <line style="marker-start: url(#marker-0); fill: rgb(255, 246, 246); stroke: rgb(176, 173, 173);" x1="209.045" y1="102.625" x2="202.956" y2="119.972" transform="matrix(0.999978, -0.006681, 0.006681, 0.999978, -0.738988, 1.378773)"/>
  <circle cx="100.739" cy="128.052" r="14.872" style="fill: none; stroke: rgb(182, 182, 182);" transform="matrix(0.858973, -0.512021, 0.512021, 0.858973, 42.673439, 60.862164)"/>
  <use width="75.98909759521484" height="137.21209716796875" transform="matrix(0.146041, -0.117761, 0.117761, 0.146041, 222.182266, 81.421364)" xlink:href="#symbol-2"/>
  <use width="75.98909759521484" height="137.21209716796875" transform="matrix(0.186609, 0.019295, -0.019295, 0.186609, 235.15097, 70.660873)" xlink:href="#symbol-2"/>
  <use width="75.98909759521484" height="137.21209716796875" transform="matrix(0.045006, 0.182127, -0.182127, 0.045006, 245.684875, 84.605347)" xlink:href="#symbol-2"/>
  <use width="75.98909759521484" height="137.21209716796875" transform="matrix(0.171384, 0.076307, -0.076307, 0.171384, 214.745651, 50.730705)" style="stroke-width: 23.94px; stroke: rgb(166, 172, 148);" xlink:href="#symbol-1"/>
  <use width="75.98909759521484" height="137.21209716796875" transform="matrix(0.178268, -0.05845, 0.05845, 0.178268, 144.733658, 148.496155)" xlink:href="#symbol-2"/>
  <use width="75.98909759521484" height="137.21209716796875" transform="matrix(0.17827, 0.058438, -0.058438, 0.17827, 157.346558, 143.231277)" xlink:href="#symbol-2"/>
</svg>