<?xml version="1.0" encoding="utf-8"?>
<svg viewBox="30.786 16.849 300 300" width="300px" height="300px" xmlns="http://www.w3.org/2000/svg" xmlns:xlink="http://www.w3.org/1999/xlink">
  <defs>
    <symbol id="symbol-1" viewBox="0 0 75.9891 137.2121">
      <circle style="fill: rgb(216, 216, 216); stroke-width: 5px; stroke: rgb(102, 102, 102);" cx="243.248" cy="327.315" r="21.703" transform="matrix(0.8386710286140442, -0.544638991355896, 0.544638991355896, 0.8386710286140442, -336.30639595590213, -34.83714732185037)"/>
      <circle style="fill: rgb(216, 216, 216); stroke-width: 5px; stroke: rgb(102, 102, 102);" cx="271.904" cy="253.912" r="21.703" transform="matrix(0.8386710286140442, -0.544638991355896, 0.544638991355896, 0.8386710286140442, -336.30639595590213, -34.83714732185037)"/>
      <line style="stroke-width: 5px; marker-start: url(#marker-0); stroke: rgb(102, 102, 102);" x1="260.613" y1="282.91" x2="251.477" y2="305.225" transform="matrix(0.8386710286140442, -0.544638991355896, 0.544638991355896, 0.8386710286140442, -336.30639595590213, -34.83714732185037)"/>
    </symbol>
    <marker id="marker-0" viewBox="0 0 12.641 9.03" overflow="visible" orient="auto" refX="6.32" refY="4.51">
      <polyline style="fill: none; stroke-miterlimit: 2; stroke-width: 5px; stroke: rgb(105, 105, 105);" points="2 3.775 10.625 0 14.641 9.03" transform="matrix(-0.390731, -0.920505, 0.920505, -0.390731, 7.415497, 13.938211)"/>
    </marker>
    <symbol id="symbol-2" viewBox="0 0 75.9891 137.2121">
      <circle style="stroke-width: 5px; stroke: rgb(102, 102, 102); fill: rgb(255, 255, 255);" cx="243.248" cy="327.315" r="21.703" transform="matrix(0.8386710286140442, -0.544638991355896, 0.544638991355896, 0.8386710286140442, -336.3063959559022, -34.83714732185041)"/>
      <circle style="stroke-width: 5px; stroke: rgb(102, 102, 102); fill: rgb(255, 255, 255);" cx="271.904" cy="253.912" r="21.703" transform="matrix(0.8386710286140442, -0.544638991355896, 0.544638991355896, 0.8386710286140442, -336.3063959559022, -34.83714732185041)"/>
      <line style="stroke-width: 5px; marker-start: url(#marker-0); stroke: rgb(102, 102, 102); fill: rgb(255, 255, 255);" x1="222.038" y1="264.931" x2="212.902" y2="287.246" transform="matrix(0.8386710286140442, -0.544638991355896, 0.544638991355896, 0.8386710286140442, -294.1620401819764, -40.768025007397284)"/>
    </symbol>
  </defs>
  <circle cx="158.955" cy="91.706" r="58.77" style="fill: rgb(250, 250, 250); stroke: rgb(182, 182, 182);" transform="matrix(0.858973, -0.512021, 0.512021, 0.858973, -65.234116, 113.089104)"/>
  <use width="75.98909759521484" height="137.21209716796875" transform="matrix(0.23754099011421204, -0.1415950059890747, 0.1415950059890747, 0.23754099011421204, 72.2685546875, 103.52186584472656)" style="stroke-width: 23.94px; stroke: rgb(166, 172, 148);" xlink:href="#symbol-1"/>
  <use width="75.98909759521484" height="137.21209716796875" transform="matrix(0.26897498965263367, 0.06424600630998611, -0.06424600630998611, 0.26897498965263367, 78.08102416992188, 74.4029769897461)" style="stroke-width: 23.94px; stroke: rgb(166, 172, 148);" xlink:href="#symbol-1"/>
  <use width="75.98909759521484" height="137.21209716796875" transform="matrix(-0.2338620126247406, 0.13940200209617615, 0.1415950059890747, 0.23754099011421204, 144.27792358398438, 113.7563247680664)" style="stroke-width: 23.94px; stroke: rgb(166, 172, 148);" xlink:href="#symbol-1"/>
  <use width="75.98909759521484" height="137.21209716796875" transform="matrix(-0.19127300381660461, 0.1966799944639206, 0.1937519907951355, 0.19439999759197235, 129.34739685058594, 95.24662780761719)" style="stroke-width: 23.94px; stroke: rgb(166, 172, 148);" xlink:href="#symbol-1"/>
  <use width="75.98909759521484" height="137.21209716796875" transform="matrix(0.05935300514101982, -0.270097017288208, 0.270097017288208, 0.05935300514101982, 88.59202575683594, 128.84786987304688)" style="stroke-width: 23.94px; stroke: rgb(166, 172, 148);" xlink:href="#symbol-1"/>
  <use width="75.98909759521484" height="137.21209716796875" transform="matrix(-0.274260014295578, 0.007077000103890896, 0.0028000001329928637, 0.2744520306587219, 141.408447265625, 77.12992095947266)" style="stroke-width: 23.94px; stroke: rgb(166, 172, 148);" xlink:href="#symbol-1"/>
  <use width="75.98909759521484" height="137.21209716796875" transform="matrix(0.029085002839565277, 0.2728060185909271, 0.27333998680114746, -0.02483600191771984, 111.00816345214844, 115.26533508300781)" style="stroke-width: 23.94px; stroke: rgb(166, 172, 148);" xlink:href="#symbol-1"/>
  <use width="75.98909759521484" height="137.21209716796875" transform="matrix(0.24462299048900604, -0.1289750188589096, 0.1289750188589096, 0.24462299048900604, 98.89336395263672, 138.1529083251953)" style="stroke-width: 23.94px; stroke: rgb(166, 172, 148);" xlink:href="#symbol-1"/>
  <use width="75.98909759521484" height="137.21209716796875" transform="matrix(0.0915760025382042, 0.26093900203704834, -0.26093900203704834, 0.0915760025382042, 107.21710205078125, 84.6631088256836)" style="stroke-width: 23.94px; stroke: rgb(166, 172, 148);" xlink:href="#symbol-1"/>
  <use width="75.98909759521484" height="137.21209716796875" transform="matrix(0.26495301723480225, -0.07921101152896881, 0.07921101152896881, 0.26495301723480225, 68.6473159790039, 117.29363250732422)" xlink:href="#symbol-2"/>
  <use width="75.98909759521484" height="137.21209716796875" transform="matrix(-0.26754698157310486, 0.03941299766302109, 0.04030400514602661, 0.27358898520469666, 170.2819061279297, 81.1678466796875)" xlink:href="#symbol-2"/>
  <use width="75.98909759521484" height="137.21209716796875" transform="matrix(0.26495301723480225, -0.07921101152896881, 0.07921101152896881, 0.26495301723480225, 58.26213836669922, 97.9125747680664)" xlink:href="#symbol-2"/>
  <use width="75.98909759521484" height="137.21209716796875" transform="matrix(-0.26754698157310486, 0.03941299766302109, 0.04030400514602661, 0.27358898520469666, 153.2562255859375, 62.630096435546875)" xlink:href="#symbol-2"/>
  <use width="75.98909759521484" height="137.21209716796875" transform="matrix(0.07915501296520233, -0.2649710178375244, 0.2649710178375244, 0.07915501296520233, 91.8147964477539, 162.1759796142578)" style="stroke-width: 23.94px; stroke: rgb(166, 172, 148);" xlink:href="#symbol-1"/>
  <use width="75.98909759521484" height="137.21209716796875" transform="matrix(-0.24915501475334167, -0.10975700616836548, -0.11148499697446823, 0.2530730068683624, 171.94882202148438, 123.425048828125)" style="stroke-width: 23.94px; stroke: rgb(166, 172, 148);" xlink:href="#symbol-1"/>
  <use width="75.98909759521484" height="137.21209716796875" transform="matrix(-0.19127300381660461, 0.1966799944639206, 0.1937519907951355, 0.19439999759197235, 148.9677276611328, 97.75452423095703)" style="stroke-width: 23.94px; stroke: rgb(166, 172, 148);" xlink:href="#symbol-1"/>
  <use width="75.98909759521484" height="137.21209716796875" transform="matrix(0.026882002130150795, -0.27523303031921387, 0.27523303031921387, 0.026882002130150795, 90.29694366455078, 85.56973266601562)" xlink:href="#symbol-2"/>
  <use width="75.98909759521484" height="137.21209716796875" transform="matrix(0.18461298942565918, -0.20589500665664673, 0.20589500665664673, 0.18461298942565918, 90.67484283447266, 65.42626953125)" xlink:href="#symbol-2"/>
  <circle cx="160.881" cy="213.013" r="57.981" style="fill: rgb(250, 250, 250); stroke: rgb(182, 182, 182);" transform="matrix(0.858973, -0.512021, 0.512021, 0.858973, -65.234116, 113.089104)"/>
  <use width="75.98909759521484" height="137.21209716796875" transform="matrix(-0.2338620126247406, 0.13940200209617615, 0.1415950059890747, 0.23754099011421204, 209.20565795898438, 200.80259704589844)" style="stroke-width: 23.94px; stroke: rgb(166, 172, 148);" xlink:href="#symbol-1"/>
  <use width="75.98909759521484" height="137.21209716796875" transform="matrix(-0.2743380069732666, -0.002714000176638365, -0.006998000200837851, 0.2743770182132721, 219.7807159423828, 182.8458709716797)" style="stroke-width: 23.94px; stroke: rgb(166, 172, 148);" xlink:href="#symbol-1"/>
  <use width="75.98909759521484" height="137.21209716796875" transform="matrix(0.25700798630714417, -0.10208599269390106, 0.10208599269390106, 0.25700798630714417, 177.58615112304688, 223.27239990234375)" style="stroke-width: 23.94px; stroke: rgb(166, 172, 148);" xlink:href="#symbol-1"/>
  <use width="75.98909759521484" height="137.21209716796875" transform="matrix(0.05935300514101982, -0.270097017288208, 0.270097017288208, 0.05935300514101982, 156.21128845214844, 234.08082580566406)" style="stroke-width: 23.94px; stroke: rgb(166, 172, 148);" xlink:href="#symbol-1"/>
  <use width="75.98909759521484" height="137.21209716796875" transform="matrix(-0.10955701023340225, 0.25152698159217834, 0.24989201128482819, 0.1135139986872673, 189.52813720703125, 167.1056671142578)" style="stroke-width: 23.94px; stroke: rgb(166, 172, 148);" xlink:href="#symbol-1"/>
  <use width="75.98909759521484" height="137.21209716796875" transform="matrix(0.07511701434850693, 0.26386797428131104, 0.26511797308921814, -0.07102100551128387, 174.37625122070312, 207.14125061035156)" style="stroke-width: 23.94px; stroke: rgb(166, 172, 148);" xlink:href="#symbol-1"/>
  <use width="75.98909759521484" height="137.21209716796875" transform="matrix(0.1816670149564743, -0.20850199460983276, 0.20850199460983276, 0.1816670149564743, 155.28782653808594, 245.55224609375)" style="stroke-width: 23.94px; stroke: rgb(166, 172, 148);" xlink:href="#symbol-1"/>
  <use width="75.98909759521484" height="137.21209716796875" transform="matrix(-0.021706001833081245, -0.2756879925727844, 0.2756879925727844, -0.021706001833081245, 157.34713745117188, 270.5117492675781)" style="stroke-width: 23.94px; stroke: rgb(166, 172, 148);" xlink:href="#symbol-1"/>
  <line style="marker-start: url(#marker-0); stroke-width: 1.5px; fill: rgb(255, 246, 246); stroke: rgb(176, 173, 173);" x1="151.903" y1="167.152" x2="126.704" y2="204.485" transform="matrix(0.441529, -0.897247, 0.897247, 0.441529, -88.928117, 228.763902)"/>
  <line style="marker-start: url(#marker-0); stroke-width: 1.5px; fill: rgb(255, 246, 246); stroke: rgb(176, 173, 173);" x1="158.397" y1="148.897" x2="131.384" y2="179.027" transform="matrix(0.441529, -0.897247, 0.897247, 0.441529, -66.19726, 221.570601)"/>
  <line style="marker-start: url(#marker-0); stroke-width: 1.5px; fill: rgb(255, 246, 246); stroke: rgb(176, 173, 173);" x1="175.498" y1="156.747" x2="147.636" y2="190.23" transform="matrix(0.441529, -0.897247, 0.897247, 0.441529, -65.431539, 241.853812)"/>
  <line style="marker-start: url(#marker-0); stroke: rgb(102, 102, 102); fill: rgb(255, 255, 255); stroke-width: 1.5px;" x1="133.091" y1="148.834" x2="123.666" y2="149.109" transform="matrix(0.441529, -0.897247, 0.897247, 0.441529, -61.968552, 198.383496)"/>
  <circle cx="148.496" cy="188.757" r="21.922" style="fill: none; stroke: rgb(182, 182, 182);" transform="matrix(0.858973, -0.512021, 0.512021, 0.858973, -65.234116, 113.089104)"/>
  <line style="marker-start: url(#marker-0); stroke: rgb(102, 102, 102); stroke-width: 1.4px;" x1="161.951" y1="216.609" x2="158.449" y2="223.17" transform="matrix(0.441529, -0.897247, 0.897247, 0.441529, -107.828126, 266.540894)"/>
  <circle style="stroke: rgb(102, 102, 102); fill: rgb(139, 139, 139); stroke-width: 1.5px;" cx="65.837" cy="88.591" r="5.874" transform="matrix(0.441529, -0.897247, 0.897247, 0.441529, 77.072411, 275.48645)"/>
  <circle style="stroke: rgb(102, 102, 102); fill: rgb(139, 139, 139); stroke-width: 1.5px;" cx="65.837" cy="88.591" r="5.874" transform="matrix(0.578379, -0.815768, 0.815768, 0.578379, 89.848907, 248.386749)"/>
  <circle style="stroke: rgb(102, 102, 102); fill: rgb(139, 139, 139); stroke-width: 1.5px;" cx="65.837" cy="88.591" r="5.874" transform="matrix(0.441529, -0.897247, 0.897247, 0.441529, 104.904343, 252.333893)"/>
  <circle style="stroke: rgb(102, 102, 102); fill: rgb(139, 139, 139); stroke-width: 1.5px;" cx="65.837" cy="88.591" r="5.874" transform="matrix(0.441529, -0.897247, 0.897247, 0.441529, 15.246374, 178.270325)"/>
  <circle style="stroke: rgb(102, 102, 102); fill: rgb(139, 139, 139); stroke-width: 1.5px;" cx="65.837" cy="88.591" r="5.874" transform="matrix(0.441529, -0.897247, 0.897247, 0.441529, 25.455463, 156.781342)"/>
  <circle style="stroke: rgb(102, 102, 102); fill: rgb(139, 139, 139); stroke-width: 1.5px;" cx="65.837" cy="88.591" r="5.874" transform="matrix(0.441529, -0.897247, 0.897247, 0.441529, 39.984478, 165.641586)"/>
  <line style="marker-start: url(#marker-0); stroke: rgb(102, 102, 102); fill: rgb(255, 255, 255); stroke-width: 1.5px;" x1="140.781" y1="157.411" x2="130.1" y2="149.203" transform="matrix(0.441529, -0.897247, 0.897247, 0.441529, -61.914644, 207.141111)"/>
  <use width="75.98909759521484" height="137.21209716796875" transform="matrix(0.2707560062408447, 0.05626200512051582, -0.05626200512051582, 0.2707560062408447, 221.79208374023438, 200.32904052734375)" xlink:href="#symbol-2"/>
  <use width="75.98909759521484" height="137.21209716796875" transform="matrix(0.26897498965263367, 0.06424600630998611, -0.06424600630998611, 0.26897498965263367, 148.27719116210938, 178.0998992919922)" style="stroke-width: 23.94px; stroke: rgb(166, 172, 148);" xlink:href="#symbol-1"/>
  <use width="75.98909759521484" height="137.21209716796875" transform="matrix(0.0915760025382042, 0.26093900203704834, -0.26093900203704834, 0.0915760025382042, 177.4132843017578, 188.3600311279297)" style="stroke-width: 23.94px; stroke: rgb(166, 172, 148);" xlink:href="#symbol-1"/>
  <use width="75.98909759521484" height="137.21209716796875" transform="matrix(0.25623002648353577, 0.10402899980545044, -0.10402899980545044, 0.25623002648353577, 116.43096923828125, 64.93585968017578)" xlink:href="#symbol-2"/>
  <circle cx="158.955" cy="91.706" r="58.77" style="fill: rgb(250, 250, 250); stroke: rgb(182, 182, 182);" transform="matrix(0.884218, 0.467075, -0.467075, 0.884218, 142.052124, -48.459808)"/>
  <use width="75.98909759521484" height="137.21209716796875" transform="matrix(0.24452199041843414, 0.12916502356529236, -0.12916502356529236, 0.24452199041843414, 221.7738037109375, 63.98115539550781)" style="stroke-width: 23.94px; stroke: rgb(166, 172, 148);" xlink:href="#symbol-1"/>
  <use width="75.98909759521484" height="137.21209716796875" transform="matrix(0.08510301262140274, 0.26312097907066345, -0.26312097907066345, 0.08510301262140274, 249.66429138183594, 53.79217529296875)" style="stroke-width: 23.94px; stroke: rgb(166, 172, 148);" xlink:href="#symbol-1"/>
  <use width="75.98909759521484" height="137.21209716796875" transform="matrix(-0.2407350093126297, -0.1271650195121765, -0.12916502356529236, 0.24452199041843414, 250.5054473876953, 130.79872131347656)" style="stroke-width: 23.94px; stroke: rgb(166, 172, 148);" xlink:href="#symbol-1"/>
  <use width="75.98909759521484" height="137.21209716796875" transform="matrix(-0.26748597621917725, -0.06099100038409233, -0.06518400460481644, 0.2666120231151581, 258.5423278808594, 108.41708374023438)" style="stroke-width: 23.94px; stroke: rgb(166, 172, 148);" xlink:href="#symbol-1"/>
  <use width="75.98909759521484" height="137.21209716796875" transform="matrix(0.2615329921245575, -0.08986500650644302, 0.08986500650644302, 0.2615329921245575, 208.6410369873047, 91.09928131103516)" style="stroke-width: 23.94px; stroke: rgb(166, 172, 148);" xlink:href="#symbol-1"/>
  <use width="75.98909759521484" height="137.21209716796875" transform="matrix(-0.14875899255275726, -0.23051999509334564, -0.23290900886058807, 0.1452070027589798, 280.28912353515625, 109.28919219970703)" style="stroke-width: 23.94px; stroke: rgb(166, 172, 148);" xlink:href="#symbol-1"/>
  <use width="75.98909759521484" height="137.21209716796875" transform="matrix(-0.2178260087966919, 0.1667959988117218, 0.16344600915908813, 0.22049300372600555, 231.90435791015625, 103.1734848022461)" style="stroke-width: 23.94px; stroke: rgb(166, 172, 148);" xlink:href="#symbol-1"/>
  <use width="75.98909759521484" height="137.21209716796875" transform="matrix(0.1719530075788498, 0.21658000349998474, -0.21658000349998474, 0.1719530075788498, 216.69525146484375, 108.06625366210938)" style="stroke-width: 23.94px; stroke: rgb(166, 172, 148);" xlink:href="#symbol-1"/>
  <use width="75.98909759521484" height="137.21209716796875" transform="matrix(0.20551398396492004, 0.18503600358963013, -0.18503600358963013, 0.20551398396492004, 208.12913513183594, 68.0551986694336)" xlink:href="#symbol-2"/>
  <use width="75.98909759521484" height="137.21209716796875" transform="matrix(0.20551398396492004, 0.18503600358963013, -0.18503600358963013, 0.20551398396492004, 219.2753448486328, 49.10158157348633)" xlink:href="#symbol-2"/>
  <use width="75.98909759521484" height="137.21209716796875" transform="matrix(-0.17287902534008026, -0.20796100795269012, -0.21265700459480286, 0.17678400874137878, 298.8363342285156, 111.86128997802734)" xlink:href="#symbol-2"/>
  <use width="75.98909759521484" height="137.21209716796875" transform="matrix(0.27503401041030884, 0.02883400022983551, -0.02883400022983551, 0.27503401041030884, 191.93667602539062, 105.7070083618164)" style="stroke-width: 23.94px; stroke: rgb(166, 172, 148);" xlink:href="#symbol-1"/>
  <use width="75.98909759521484" height="137.21209716796875" transform="matrix(0.2490220069885254, -0.12026600539684296, 0.12026600539684296, 0.2490220069885254, 246.4852752685547, 70.03468322753906)" xlink:href="#symbol-2"/>
  <use width="75.98909759521484" height="137.21209716796875" transform="matrix(0.27188900113105774, 0.05050800368189812, -0.05050800368189812, 0.27188900113105774, 263.88330078125, 59.87539291381836)" xlink:href="#symbol-2"/>
  <circle style="stroke: rgb(102, 102, 102); fill: rgb(139, 139, 139); stroke-width: 1.5px;" cx="65.837" cy="88.591" r="5.874" transform="matrix(0.995955, -0.089857, 0.089857, 0.995955, 128.270462, 54.184067)"/>
  <circle style="stroke: rgb(102, 102, 102); fill: rgb(139, 139, 139); stroke-width: 1.5px;" cx="65.837" cy="88.591" r="5.874" transform="matrix(0.995955, -0.089857, 0.089857, 0.995955, 151.927551, 68.737427)"/>
  <line style="marker-start: url(#marker-0); stroke: rgb(102, 102, 102); fill: rgb(255, 255, 255); stroke-width: 1.5px;" x1="220.474" y1="148.937" x2="209.793" y2="140.729" transform="matrix(-0.997433, 0.071603, -0.071603, -0.997433, 440.085279, 273.890031)"/>
  <use width="75.98909759521484" height="137.21209716796875" transform="matrix(0.044499002397060394, 0.2729390263557434, -0.2729390263557434, 0.044499002397060394, 277.7047119140625, 81.61447143554688)" xlink:href="#symbol-2"/>
  <line style="marker-start: url(#marker-0); stroke-width: 1.5px; fill: rgb(255, 246, 246); stroke: rgb(176, 173, 173);" x1="199.499" y1="145.072" x2="194.756" y2="171.327" transform="matrix(0.999978, -0.006681, 0.006681, 0.999978, -1.052531, 1.320539)"/>
  <line style="marker-start: url(#marker-0); stroke-width: 1.5px; fill: rgb(255, 246, 246); stroke: rgb(176, 173, 173);" x1="222.473" y1="158.897" x2="213.498" y2="184.467" transform="matrix(0.999978, -0.006681, 0.006681, 0.999978, -1.142142, 1.460192)"/>
  <circle cx="148.496" cy="188.757" r="21.922" style="fill: none; stroke: rgb(182, 182, 182);" transform="matrix(0.858973, -0.512021, 0.512021, 0.858973, -22.769093, 97.335541)"/>
  <use width="75.98909759521484" height="137.21209716796875" transform="matrix(0.21527501940727234, -0.17358702421188354, 0.17358702421188354, 0.21527501940727234, 241.83865356445312, 127.64114379882812)" xlink:href="#symbol-2"/>
  <use width="75.98909759521484" height="137.21209716796875" transform="matrix(0.2750740051269531, 0.028442000970244408, -0.028442000970244408, 0.2750740051269531, 260.9553527832031, 111.77947998046875)" xlink:href="#symbol-2"/>
  <use width="75.98909759521484" height="137.21209716796875" transform="matrix(0.06634099781513214, 0.268466979265213, -0.268466979265213, 0.06634099781513214, 276.4830017089844, 132.3345489501953)" xlink:href="#symbol-2"/>
  <use width="75.98909759521484" height="137.21209716796875" transform="matrix(0.2526320219039917, 0.112481988966465, -0.112481988966465, 0.2526320219039917, 230.8765869140625, 82.40111541748047)" style="stroke-width: 23.94px; stroke: rgb(166, 172, 148);" xlink:href="#symbol-1"/>
  <use width="75.98909759521484" height="137.21209716796875" transform="matrix(0.26277899742126465, -0.08615900576114655, 0.08615900576114655, 0.26277899742126465, 127.67433166503906, 226.5137481689453)" xlink:href="#symbol-2"/>
  <use width="75.98909759521484" height="137.21209716796875" transform="matrix(0.2627819776535034, 0.08614000678062439, -0.08614000678062439, 0.2627819776535034, 146.26658630371094, 218.7529754638672)" xlink:href="#symbol-2"/>
</svg>