<?xml version="1.0" encoding="utf-8"?>
<svg viewBox="30.786 16.849 300 200" width="300px" height="250px" xmlns="http://www.w3.org/2000/svg" xmlns:xlink="http://www.w3.org/1999/xlink">
  <defs>
    <symbol id="symbol-1" viewBox="0 0 75.9891 137.2121">
      <circle style="fill: rgb(216, 216, 216); stroke-width: 5px; stroke: rgb(102, 102, 102);" cx="243.248" cy="327.315" r="21.703" transform="matrix(0.8386710286140442, -0.544638991355896, 0.544638991355896, 0.8386710286140442, -336.30639595590213, -34.83714732185037)"/>
      <circle style="fill: rgb(216, 216, 216); stroke-width: 5px; stroke: rgb(102, 102, 102);" cx="271.904" cy="253.912" r="21.703" transform="matrix(0.8386710286140442, -0.544638991355896, 0.544638991355896, 0.8386710286140442, -336.30639595590213, -34.83714732185037)"/>
      <line style="stroke-width: 5px; marker-start: url(#marker-0); stroke: rgb(102, 102, 102);" x1="260.613" y1="282.91" x2="251.477" y2="305.225" transform="matrix(0.8386710286140442, -0.544638991355896, 0.544638991355896, 0.8386710286140442, -336.30639595590213, -34.83714732185037)"/>
    </symbol>
    <marker id="marker-0" viewBox="0 0 12.641 9.03" overflow="visible" orient="auto" refX="6.32" refY="4.51">
      <polyline style="fill: none; stroke-miterlimit: 2; stroke-width: 5px; stroke: rgb(105, 105, 105);" points="2 3.775 10.625 0 14.641 9.03" transform="matrix(-0.390731, -0.920505, 0.920505, -0.390731, 7.415497, 13.938211)"/>
    </marker>
    <symbol id="symbol-2" viewBox="0 0 75.9891 137.2121">
      <circle style="stroke-width: 5px; stroke: rgb(102, 102, 102); fill: rgb(255, 255, 255);" cx="243.248" cy="327.315" r="21.703" transform="matrix(0.8386710286140442, -0.544638991355896, 0.544638991355896, 0.8386710286140442, -336.3063959559022, -34.83714732185041)"/>
      <circle style="stroke-width: 5px; stroke: rgb(102, 102, 102); fill: rgb(255, 255, 255);" cx="271.904" cy="253.912" r="21.703" transform="matrix(0.8386710286140442, -0.544638991355896, 0.544638991355896, 0.8386710286140442, -336.3063959559022, -34.83714732185041)"/>
      <line style="stroke-width: 5px; marker-start: url(#marker-0); stroke: rgb(102, 102, 102); fill: rgb(255, 255, 255);" x1="222.038" y1="264.931" x2="212.902" y2="287.246" transform="matrix(0.8386710286140442, -0.544638991355896, 0.544638991355896, 0.8386710286140442, -294.1620401819764, -40.768025007397284)"/>
    </symbol>
  </defs>
  <circle cx="118.451" cy="68.338" r="43.795" style="fill: rgb(250, 250, 250); stroke: rgb(182, 182, 182);" transform="matrix(0.858973, -0.512021, 0.512021, 0.858973, -6.008823, 78.268936)"/>
  <use width="75.98909759521484" height="137.21209716796875" transform="matrix(0.177013, -0.105515, 0.105515, 0.177013, 96.456505, 71.139542)" style="stroke-width: 23.94px; stroke: rgb(166, 172, 148);" xlink:href="#symbol-1"/>
  <use width="75.98909759521484" height="137.21209716796875" transform="matrix(0.200437, 0.047875, -0.047875, 0.200437, 100.787888, 49.440498)" style="stroke-width: 23.94px; stroke: rgb(166, 172, 148);" xlink:href="#symbol-1"/>
  <use width="75.98909759521484" height="137.21209716796875" transform="matrix(-0.174271, 0.103881, 0.105515, 0.177013, 150.117004, 78.766136)" style="stroke-width: 23.94px; stroke: rgb(166, 172, 148);" xlink:href="#symbol-1"/>
  <use width="75.98909759521484" height="137.21209716796875" transform="matrix(-0.142534, 0.146564, 0.144382, 0.144864, 138.990967, 64.972939)" style="stroke-width: 23.94px; stroke: rgb(166, 172, 148);" xlink:href="#symbol-1"/>
  <use width="75.98909759521484" height="137.21209716796875" transform="matrix(0.044229, -0.201273, 0.201273, 0.044229, 108.62056, 90.012177)" style="stroke-width: 23.94px; stroke: rgb(166, 172, 148);" xlink:href="#symbol-1"/>
  <use width="75.98909759521484" height="137.21209716796875" transform="matrix(-0.204375, 0.005274, 0.002087, 0.204518, 147.978714, 51.472588)" style="stroke-width: 23.94px; stroke: rgb(166, 172, 148);" xlink:href="#symbol-1"/>
  <use width="75.98909759521484" height="137.21209716796875" transform="matrix(0.021674, 0.203292, 0.20369, -0.018507, 125.324791, 79.890633)" style="stroke-width: 23.94px; stroke: rgb(166, 172, 148);" xlink:href="#symbol-1"/>
  <use width="75.98909759521484" height="137.21209716796875" transform="matrix(0.18229, -0.096111, 0.096111, 0.18229, 116.296989, 96.946167)" style="stroke-width: 23.94px; stroke: rgb(166, 172, 148);" xlink:href="#symbol-1"/>
  <use width="75.98909759521484" height="137.21209716796875" transform="matrix(0.068241, 0.194449, -0.194449, 0.068241, 122.499741, 57.086227)" style="stroke-width: 23.94px; stroke: rgb(166, 172, 148);" xlink:href="#symbol-1"/>
  <use width="75.98909759521484" height="137.21209716796875" transform="matrix(0.19744, -0.059027, 0.059027, 0.19744, 93.758003, 81.4021)" xlink:href="#symbol-2"/>
  <use width="75.98909759521484" height="137.21209716796875" transform="matrix(-0.199373, 0.02937, 0.030034, 0.203875, 169.494873, 54.481598)" xlink:href="#symbol-2"/>
  <use width="75.98909759521484" height="137.21209716796875" transform="matrix(0.19744, -0.059027, 0.059027, 0.19744, 86.019089, 66.959564)" xlink:href="#symbol-2"/>
  <use width="75.98909759521484" height="137.21209716796875" transform="matrix(-0.199373, 0.02937, 0.030034, 0.203875, 156.807541, 40.667496)" xlink:href="#symbol-2"/>
  <use width="75.98909759521484" height="137.21209716796875" transform="matrix(0.058985, -0.197453, 0.197453, 0.058985, 111.022125, 114.84787)" style="stroke-width: 23.94px; stroke: rgb(166, 172, 148);" xlink:href="#symbol-1"/>
  <use width="75.98909759521484" height="137.21209716796875" transform="matrix(-0.185667, -0.08179, -0.083077, 0.188587, 170.73703, 85.971153)" style="stroke-width: 23.94px; stroke: rgb(166, 172, 148);" xlink:href="#symbol-1"/>
  <use width="75.98909759521484" height="137.21209716796875" transform="matrix(-0.142534, 0.146564, 0.144382, 0.144864, 153.611801, 66.841789)" style="stroke-width: 23.94px; stroke: rgb(166, 172, 148);" xlink:href="#symbol-1"/>
  <use width="75.98909759521484" height="137.21209716796875" transform="matrix(0.020032, -0.2051, 0.2051, 0.020032, 109.891045, 57.761833)" xlink:href="#symbol-2"/>
  <use width="75.98909759521484" height="137.21209716796875" transform="matrix(0.137571, -0.15343, 0.15343, 0.137571, 110.172646, 42.751167)" xlink:href="#symbol-2"/>
  <circle cx="119.887" cy="158.735" r="43.207" style="fill: rgb(250, 250, 250); stroke: rgb(182, 182, 182);" transform="matrix(0.858973, -0.512021, 0.512021, 0.858973, -6.008823, 78.268936)"/>
  <use width="75.98909759521484" height="137.21209716796875" transform="matrix(-0.174271, 0.103881, 0.105515, 0.177013, 198.500381, 143.631973)" style="stroke-width: 23.94px; stroke: rgb(166, 172, 148);" xlink:href="#symbol-1"/>
  <use width="75.98909759521484" height="137.21209716796875" transform="matrix(-0.204433, -0.002022, -0.005215, 0.204462, 206.380783, 130.250839)" style="stroke-width: 23.94px; stroke: rgb(166, 172, 148);" xlink:href="#symbol-1"/>
  <use width="75.98909759521484" height="137.21209716796875" transform="matrix(0.191519, -0.076073, 0.076073, 0.191519, 174.937897, 160.37619)" style="stroke-width: 23.94px; stroke: rgb(166, 172, 148);" xlink:href="#symbol-1"/>
  <use width="75.98909759521484" height="137.21209716796875" transform="matrix(0.044229, -0.201273, 0.201273, 0.044229, 159.009613, 168.430496)" style="stroke-width: 23.94px; stroke: rgb(166, 172, 148);" xlink:href="#symbol-1"/>
  <use width="75.98909759521484" height="137.21209716796875" transform="matrix(-0.081641, 0.187435, 0.186217, 0.084589, 183.836929, 118.521423)" style="stroke-width: 23.94px; stroke: rgb(166, 172, 148);" xlink:href="#symbol-1"/>
  <use width="75.98909759521484" height="137.21209716796875" transform="matrix(0.055976, 0.196631, 0.197563, -0.052924, 172.545929, 148.355453)" style="stroke-width: 23.94px; stroke: rgb(166, 172, 148);" xlink:href="#symbol-1"/>
  <use width="75.98909759521484" height="137.21209716796875" transform="matrix(0.135376, -0.155373, 0.155373, 0.135376, 158.321472, 176.978867)" style="stroke-width: 23.94px; stroke: rgb(166, 172, 148);" xlink:href="#symbol-1"/>
  <use width="75.98909759521484" height="137.21209716796875" transform="matrix(-0.016175, -0.205439, 0.205439, -0.016175, 159.856033, 195.578384)" style="stroke-width: 23.94px; stroke: rgb(166, 172, 148);" xlink:href="#symbol-1"/>
  <line style="marker-start: url(#marker-0); stroke-width: 1.5px; fill: rgb(255, 246, 246); stroke: rgb(176, 173, 173);" x1="155.799" y1="118.556" x2="137.021" y2="146.376" transform="matrix(0.441529, -0.897247, 0.897247, 0.441529, -37.08898, 205.34436)"/>
  <line style="marker-start: url(#marker-0); stroke-width: 1.5px; fill: rgb(255, 246, 246); stroke: rgb(176, 173, 173);" x1="160.638" y1="104.953" x2="140.509" y2="127.405" transform="matrix(0.441529, -0.897247, 0.897247, 0.441529, -20.150318, 199.984233)"/>
  <line style="marker-start: url(#marker-0); stroke-width: 1.5px; fill: rgb(255, 246, 246); stroke: rgb(176, 173, 173);" x1="173.382" y1="110.802" x2="152.619" y2="135.753" transform="matrix(0.441529, -0.897247, 0.897247, 0.441529, -19.579308, 215.098632)"/>
  <line style="marker-start: url(#marker-0); stroke: rgb(102, 102, 102); fill: rgb(255, 255, 255); stroke-width: 1.5px;" x1="141.781" y1="104.906" x2="134.757" y2="105.111" transform="matrix(0.441529, -0.897247, 0.897247, 0.441529, -16.999324, 182.705659)"/>
  <circle cx="110.657" cy="140.659" r="16.336" style="fill: none; stroke: rgb(182, 182, 182);" transform="matrix(0.858973, -0.512021, 0.512021, 0.858973, -6.008823, 78.268936)"/>
  <line style="marker-start: url(#marker-0); stroke: rgb(102, 102, 102); stroke-width: 1.4px;" x1="163.287" y1="155.411" x2="160.677" y2="160.3" transform="matrix(0.441529, -0.897247, 0.897247, 0.441529, -51.173114, 233.495595)"/>
  <circle style="stroke: rgb(102, 102, 102); fill: rgb(139, 139, 139); stroke-width: 1.5px;" cx="49.061" cy="66.017" r="4.377" transform="matrix(0.441529, -0.897247, 0.897247, 0.441529, 100.036278, 199.285477)"/>
  <circle style="stroke: rgb(102, 102, 102); fill: rgb(139, 139, 139); stroke-width: 1.5px;" cx="49.061" cy="66.017" r="4.377" transform="matrix(0.578379, -0.815768, 0.815768, 0.578379, 109.557175, 179.091095)"/>
  <circle style="stroke: rgb(102, 102, 102); fill: rgb(139, 139, 139); stroke-width: 1.5px;" cx="49.061" cy="66.017" r="4.377" transform="matrix(0.441529, -0.897247, 0.897247, 0.441529, 120.776299, 182.032471)"/>
  <circle style="stroke: rgb(102, 102, 102); fill: rgb(139, 139, 139); stroke-width: 1.5px;" cx="49.061" cy="66.017" r="4.377" transform="matrix(0.441529, -0.897247, 0.897247, 0.441529, 53.964264, 126.841187)"/>
  <circle style="stroke: rgb(102, 102, 102); fill: rgb(139, 139, 139); stroke-width: 1.5px;" cx="49.061" cy="66.017" r="4.377" transform="matrix(0.441529, -0.897247, 0.897247, 0.441529, 61.571953, 110.82785)"/>
  <circle style="stroke: rgb(102, 102, 102); fill: rgb(139, 139, 139); stroke-width: 1.5px;" cx="49.061" cy="66.017" r="4.377" transform="matrix(0.441529, -0.897247, 0.897247, 0.441529, 72.398804, 117.430405)"/>
  <line style="marker-start: url(#marker-0); stroke: rgb(102, 102, 102); fill: rgb(255, 255, 255); stroke-width: 1.5px;" x1="147.511" y1="111.297" x2="139.552" y2="105.181" transform="matrix(0.441529, -0.897247, 0.897247, 0.441529, -16.958928, 189.231559)"/>
  <use width="75.98909759521484" height="137.21209716796875" transform="matrix(0.201764, 0.041926, -0.041926, 0.201764, 207.879623, 143.279083)" xlink:href="#symbol-2"/>
  <use width="75.98909759521484" height="137.21209716796875" transform="matrix(0.200437, 0.047875, -0.047875, 0.200437, 153.097229, 126.714188)" style="stroke-width: 23.94px; stroke: rgb(166, 172, 148);" xlink:href="#symbol-1"/>
  <use width="75.98909759521484" height="137.21209716796875" transform="matrix(0.068241, 0.194449, -0.194449, 0.068241, 174.809082, 134.359924)" style="stroke-width: 23.94px; stroke: rgb(166, 172, 148);" xlink:href="#symbol-1"/>
  <use width="75.98909759521484" height="137.21209716796875" transform="matrix(0.19094, 0.077521, -0.077521, 0.19094, 129.365799, 42.385719)" xlink:href="#symbol-2"/>
  <circle cx="118.451" cy="68.338" r="43.795" style="fill: rgb(250, 250, 250); stroke: rgb(182, 182, 182);" transform="matrix(0.884218, 0.467075, -0.467075, 0.884218, 148.458374, -42.11536)"/>
  <use width="75.98909759521484" height="137.21209716796875" transform="matrix(0.182215, 0.096252, -0.096252, 0.182215, 207.866013, 41.674286)" style="stroke-width: 23.94px; stroke: rgb(166, 172, 148);" xlink:href="#symbol-1"/>
  <use width="75.98909759521484" height="137.21209716796875" transform="matrix(0.063418, 0.196074, -0.196074, 0.063418, 228.649658, 34.081581)" style="stroke-width: 23.94px; stroke: rgb(166, 172, 148);" xlink:href="#symbol-1"/>
  <use width="75.98909759521484" height="137.21209716796875" transform="matrix(-0.179393, -0.094762, -0.096252, 0.182215, 229.276489, 91.465927)" style="stroke-width: 23.94px; stroke: rgb(166, 172, 148);" xlink:href="#symbol-1"/>
  <use width="75.98909759521484" height="137.21209716796875" transform="matrix(-0.199327, -0.04545, -0.048574, 0.198676, 235.265472, 74.787399)" style="stroke-width: 23.94px; stroke: rgb(166, 172, 148);" xlink:href="#symbol-1"/>
  <use width="75.98909759521484" height="137.21209716796875" transform="matrix(0.194891, -0.066966, 0.066966, 0.194891, 198.079636, 61.882385)" style="stroke-width: 23.94px; stroke: rgb(166, 172, 148);" xlink:href="#symbol-1"/>
  <use width="75.98909759521484" height="137.21209716796875" transform="matrix(-0.110853, -0.171781, -0.173561, 0.108207, 251.470917, 75.437286)" style="stroke-width: 23.94px; stroke: rgb(166, 172, 148);" xlink:href="#symbol-1"/>
  <use width="75.98909759521484" height="137.21209716796875" transform="matrix(-0.162321, 0.124294, 0.121798, 0.164309, 215.415176, 70.879936)" style="stroke-width: 23.94px; stroke: rgb(166, 172, 148);" xlink:href="#symbol-1"/>
  <use width="75.98909759521484" height="137.21209716796875" transform="matrix(0.128137, 0.161393, -0.161393, 0.128137, 204.081528, 74.525963)" style="stroke-width: 23.94px; stroke: rgb(166, 172, 148);" xlink:href="#symbol-1"/>
  <use width="75.98909759521484" height="137.21209716796875" transform="matrix(0.153147, 0.137887, -0.137887, 0.153147, 197.698166, 44.710213)" xlink:href="#symbol-2"/>
  <use width="75.98909759521484" height="137.21209716796875" transform="matrix(0.153147, 0.137887, -0.137887, 0.153147, 206.004181, 30.586205)" xlink:href="#symbol-2"/>
  <use width="75.98909759521484" height="137.21209716796875" transform="matrix(-0.128827, -0.15497, -0.158469, 0.131737, 265.292053, 77.353981)" xlink:href="#symbol-2"/>
  <use width="75.98909759521484" height="137.21209716796875" transform="matrix(0.204952, 0.021487, -0.021487, 0.204952, 185.631744, 72.767883)" style="stroke-width: 23.94px; stroke: rgb(166, 172, 148);" xlink:href="#symbol-1"/>
  <use width="75.98909759521484" height="137.21209716796875" transform="matrix(0.185568, -0.089621, 0.089621, 0.185568, 226.280701, 46.185303)" xlink:href="#symbol-2"/>
  <use width="75.98909759521484" height="137.21209716796875" transform="matrix(0.202608, 0.037638, -0.037638, 0.202608, 239.245499, 38.614723)" xlink:href="#symbol-2"/>
  <circle style="stroke: rgb(102, 102, 102); fill: rgb(139, 139, 139); stroke-width: 1.5px;" cx="49.061" cy="66.017" r="4.377" transform="matrix(0.995955, -0.089857, 0.089857, 0.995955, 138.188446, 34.373611)"/>
  <circle style="stroke: rgb(102, 102, 102); fill: rgb(139, 139, 139); stroke-width: 1.5px;" cx="49.061" cy="66.017" r="4.377" transform="matrix(0.995955, -0.089857, 0.089857, 0.995955, 155.817429, 45.218597)"/>
  <line style="marker-start: url(#marker-0); stroke: rgb(102, 102, 102); fill: rgb(255, 255, 255); stroke-width: 1.5px;" x1="206.897" y1="104.982" x2="198.938" y2="98.866" transform="matrix(-0.997433, 0.071603, -0.071603, -0.997433, 412.612228, 189.056871)"/>
  <use width="75.98909759521484" height="137.21209716796875" transform="matrix(0.03316, 0.203391, -0.203391, 0.03316, 249.545044, 54.814415)" xlink:href="#symbol-2"/>
  <line style="marker-start: url(#marker-0); stroke-width: 1.5px; fill: rgb(255, 246, 246); stroke: rgb(176, 173, 173);" x1="191.267" y1="102.102" x2="187.733" y2="121.667" transform="matrix(0.999978, -0.006681, 0.006681, 0.999978, -0.743271, 1.268546)"/>
  <line style="marker-start: url(#marker-0); stroke-width: 1.5px; fill: rgb(255, 246, 246); stroke: rgb(176, 173, 173);" x1="208.387" y1="112.404" x2="201.699" y2="131.459" transform="matrix(0.999978, -0.006681, 0.006681, 0.999978, -0.810048, 1.372613)"/>
  <circle cx="110.657" cy="140.659" r="16.336" style="fill: none; stroke: rgb(182, 182, 182);" transform="matrix(0.858973, -0.512021, 0.512021, 0.858973, 25.635601, 66.529572)"/>
  <use width="75.98909759521484" height="137.21209716796875" transform="matrix(0.16042, -0.129355, 0.129355, 0.16042, 222.818085, 89.112938)" xlink:href="#symbol-2"/>
  <use width="75.98909759521484" height="137.21209716796875" transform="matrix(0.204982, 0.021195, -0.021195, 0.204982, 237.063629, 77.293015)" xlink:href="#symbol-2"/>
  <use width="75.98909759521484" height="137.21209716796875" transform="matrix(0.049437, 0.200058, -0.200058, 0.049437, 248.634644, 92.610405)" xlink:href="#symbol-2"/>
  <use width="75.98909759521484" height="137.21209716796875" transform="matrix(0.188258, 0.08382, -0.08382, 0.188258, 214.649292, 55.400612)" style="stroke-width: 23.94px; stroke: rgb(166, 172, 148);" xlink:href="#symbol-1"/>
  <use width="75.98909759521484" height="137.21209716796875" transform="matrix(0.19582, -0.064205, 0.064205, 0.19582, 137.744217, 162.791611)" xlink:href="#symbol-2"/>
  <use width="75.98909759521484" height="137.21209716796875" transform="matrix(0.195822, 0.064191, -0.064191, 0.195822, 151.598938, 157.008377)" xlink:href="#symbol-2"/>
</svg>