<?xml version="1.0" encoding="utf-8"?>
<svg viewBox="30.786 16.849 300 300" width="300px" height="300px" xmlns="http://www.w3.org/2000/svg" xmlns:xlink="http://www.w3.org/1999/xlink">
  <defs>
    <symbol id="symbol-1" viewBox="0 0 75.9891 137.2121">
      <circle style="fill: rgb(216, 216, 216); stroke-width: 5px; stroke: rgb(102, 102, 102);" cx="243.248" cy="327.315" r="21.703" transform="matrix(0.8386710286140442, -0.544638991355896, 0.544638991355896, 0.8386710286140442, -336.30639595590213, -34.83714732185037)"/>
      <circle style="fill: rgb(216, 216, 216); stroke-width: 5px; stroke: rgb(102, 102, 102);" cx="271.904" cy="253.912" r="21.703" transform="matrix(0.8386710286140442, -0.544638991355896, 0.544638991355896, 0.8386710286140442, -336.30639595590213, -34.83714732185037)"/>
      <line style="stroke-width: 5px; marker-start: url(#marker-0); stroke: rgb(102, 102, 102);" x1="260.613" y1="282.91" x2="251.477" y2="305.225" transform="matrix(0.8386710286140442, -0.544638991355896, 0.544638991355896, 0.8386710286140442, -336.30639595590213, -34.83714732185037)"/>
    </symbol>
    <marker id="marker-0" viewBox="0 0 12.641 9.03" overflow="visible" orient="auto" refX="6.32" refY="4.51">
      <polyline style="fill: none; stroke-miterlimit: 2; stroke-width: 5px; stroke: rgb(105, 105, 105);" points="2 3.775 10.625 0 14.641 9.03" transform="matrix(-0.390731, -0.920505, 0.920505, -0.390731, 7.415497, 13.938211)"/>
    </marker>
    <symbol id="symbol-2" viewBox="0 0 75.9891 137.2121">
      <circle style="stroke-width: 5px; stroke: rgb(102, 102, 102); fill: rgb(255, 255, 255);" cx="243.248" cy="327.315" r="21.703" transform="matrix(0.8386710286140442, -0.544638991355896, 0.544638991355896, 0.8386710286140442, -336.3063959559022, -34.83714732185041)"/>
      <circle style="stroke-width: 5px; stroke: rgb(102, 102, 102); fill: rgb(255, 255, 255);" cx="271.904" cy="253.912" r="21.703" transform="matrix(0.8386710286140442, -0.544638991355896, 0.544638991355896, 0.8386710286140442, -336.3063959559022, -34.83714732185041)"/>
      <line style="stroke-width: 5px; marker-start: url(#marker-0); stroke: rgb(102, 102, 102); fill: rgb(255, 255, 255);" x1="222.038" y1="264.931" x2="212.902" y2="287.246" transform="matrix(0.8386710286140442, -0.544638991355896, 0.544638991355896, 0.8386710286140442, -294.1620401819764, -40.768025007397284)"/>
    </symbol>
  </defs>
  <circle cx="84.474" cy="48.736" r="31.232" style="fill: rgb(250, 250, 250); stroke: rgb(186, 218, 85);" transform="matrix(0.858973, -0.512021, 0.512021, 0.858973, 39.924805, 180.975922)"/>
  <use width="75.98909759521484" height="137.21209716796875" transform="matrix(0.126237, -0.075248, 0.075248, 0.126237, 112.99826, 175.891571)" style="stroke-width: 23.94px; stroke: rgb(166, 172, 148);" xlink:href="#symbol-1"/>
  <use width="75.98909759521484" height="137.21209716796875" transform="matrix(0.142942, 0.034142, -0.034142, 0.142942, 116.087219, 160.41684)" style="stroke-width: 23.94px; stroke: rgb(166, 172, 148);" xlink:href="#symbol-1"/>
  <use width="75.98909759521484" height="137.21209716796875" transform="matrix(-0.124282, 0.074083, 0.075248, 0.126237, 151.266418, 181.330505)" style="stroke-width: 23.94px; stroke: rgb(166, 172, 148);" xlink:href="#symbol-1"/>
  <use width="75.98909759521484" height="137.21209716796875" transform="matrix(-0.101649, 0.104522, 0.102966, 0.103311, 143.331848, 171.493835)" style="stroke-width: 23.94px; stroke: rgb(166, 172, 148);" xlink:href="#symbol-1"/>
  <use width="75.98909759521484" height="137.21209716796875" transform="matrix(0.031542, -0.143538, 0.143538, 0.031542, 121.673096, 189.350647)" style="stroke-width: 23.94px; stroke: rgb(166, 172, 148);" xlink:href="#symbol-1"/>
  <use width="75.98909759521484" height="137.21209716796875" transform="matrix(-0.145751, 0.003761, 0.001488, 0.145853, 149.741486, 161.866028)" style="stroke-width: 23.94px; stroke: rgb(166, 172, 148);" xlink:href="#symbol-1"/>
  <use width="75.98909759521484" height="137.21209716796875" transform="matrix(0.015457, 0.144978, 0.145262, -0.013199, 133.58577, 182.132446)" style="stroke-width: 23.94px; stroke: rgb(166, 172, 148);" xlink:href="#symbol-1"/>
  <use width="75.98909759521484" height="137.21209716796875" transform="matrix(-0.142183, 0.020945, 0.021419, 0.145394, 165.085785, 164.011902)" xlink:href="#symbol-2"/>
  <use width="75.98909759521484" height="137.21209716796875" transform="matrix(0.140805, -0.042095, 0.042095, 0.140805, 110.337692, 186.196426)" xlink:href="#symbol-2"/>
  <use width="75.98909759521484" height="137.21209716796875" transform="matrix(-0.132409, -0.058329, -0.059247, 0.134491, 165.971664, 186.468781)" style="stroke-width: 23.94px; stroke: rgb(166, 172, 148);" xlink:href="#symbol-1"/>
  <circle cx="85.497" cy="113.202" r="30.813" style="fill: rgb(250, 250, 250); stroke: rgb(186, 218, 85);" transform="matrix(0.858973, -0.512021, 0.512021, 0.858973, 39.924805, 180.975922)"/>
  <use width="75.98909759521484" height="137.21209716796875" transform="matrix(-0.124282, 0.074083, 0.075248, 0.126237, 185.771164, 227.589783)" style="stroke-width: 23.94px; stroke: rgb(166, 172, 148);" xlink:href="#symbol-1"/>
  <use width="75.98909759521484" height="137.21209716796875" transform="matrix(-0.145792, -0.001442, -0.003719, 0.145813, 191.391113, 218.046967)" style="stroke-width: 23.94px; stroke: rgb(166, 172, 148);" xlink:href="#symbol-1"/>
  <use width="75.98909759521484" height="137.21209716796875" transform="matrix(0.136583, -0.054252, 0.054252, 0.136583, 168.967529, 239.530975)" style="stroke-width: 23.94px; stroke: rgb(166, 172, 148);" xlink:href="#symbol-1"/>
  <use width="75.98909759521484" height="137.21209716796875" transform="matrix(0.031542, -0.143538, 0.143538, 0.031542, 157.608215, 245.274933)" style="stroke-width: 23.94px; stroke: rgb(166, 172, 148);" xlink:href="#symbol-1"/>
  <use width="75.98909759521484" height="137.21209716796875" transform="matrix(-0.058222, 0.13367, 0.132801, 0.060325, 175.313873, 209.682114)" style="stroke-width: 23.94px; stroke: rgb(166, 172, 148);" xlink:href="#symbol-1"/>
  <use width="75.98909759521484" height="137.21209716796875" transform="matrix(0.03992, 0.140228, 0.140892, -0.037743, 167.261658, 230.958344)" style="stroke-width: 23.94px; stroke: rgb(166, 172, 148);" xlink:href="#symbol-1"/>
  <use width="75.98909759521484" height="137.21209716796875" transform="matrix(0.096544, -0.110805, 0.110805, 0.096544, 157.117462, 251.371216)" style="stroke-width: 23.94px; stroke: rgb(166, 172, 148);" xlink:href="#symbol-1"/>
  <use width="75.98909759521484" height="137.21209716796875" transform="matrix(-0.011535, -0.14651, 0.14651, -0.011535, 158.211838, 264.635529)" style="stroke-width: 23.94px; stroke: rgb(166, 172, 148);" xlink:href="#symbol-1"/>
  <line style="marker-start: url(#marker-0); stroke-width: 1.5px; fill: rgb(255, 246, 246); stroke: rgb(176, 173, 173);" x1="155.318" y1="209.707" x2="141.927" y2="229.547" transform="matrix(0.441529, -0.897247, 0.897247, 0.441529, -114.058304, 256.006414)"/>
  <line style="marker-start: url(#marker-0); stroke-width: 1.5px; fill: rgb(255, 246, 246); stroke: rgb(176, 173, 173);" x1="158.77" y1="200.006" x2="144.414" y2="216.018" transform="matrix(0.441529, -0.897247, 0.897247, 0.441529, -101.978399, 252.184153)"/>
  <line style="marker-start: url(#marker-0); stroke-width: 1.5px; fill: rgb(255, 246, 246); stroke: rgb(176, 173, 173);" x1="167.858" y1="204.177" x2="153.051" y2="221.971" transform="matrix(0.441529, -0.897247, 0.897247, 0.441529, -101.570813, 262.962979)"/>
  <line style="marker-start: url(#marker-0); stroke: rgb(102, 102, 102); fill: rgb(255, 255, 255); stroke-width: 1.5px;" x1="145.321" y1="199.972" x2="140.312" y2="200.118" transform="matrix(0.441529, -0.897247, 0.897247, 0.441529, -99.730895, 239.861017)"/>
  <circle cx="78.916" cy="100.312" r="11.65" style="fill: none; stroke: rgb(186, 218, 85);" transform="matrix(0.858973, -0.512021, 0.512021, 0.858973, 39.924805, 180.975922)"/>
  <line style="marker-start: url(#marker-0); stroke: rgb(102, 102, 102); stroke-width: 1.4px;" x1="160.658" y1="235.99" x2="158.797" y2="239.477" transform="matrix(0.441529, -0.897247, 0.897247, 0.441529, -124.10249, 276.082305)"/>
  <circle style="stroke: rgb(102, 102, 102); fill: rgb(139, 139, 139); stroke-width: 1.5px;" cx="34.988" cy="47.08" r="3.122" transform="matrix(0.441529, -0.897247, 0.897247, 0.441529, 115.551193, 267.279236)"/>
  <circle style="stroke: rgb(102, 102, 102); fill: rgb(139, 139, 139); stroke-width: 1.5px;" cx="34.988" cy="47.08" r="3.122" transform="matrix(0.578379, -0.815768, 0.815768, 0.578379, 122.341049, 252.877563)"/>
  <circle style="stroke: rgb(102, 102, 102); fill: rgb(139, 139, 139); stroke-width: 1.5px;" cx="34.988" cy="47.08" r="3.122" transform="matrix(0.441529, -0.897247, 0.897247, 0.441529, 130.34201, 254.975189)"/>
  <circle style="stroke: rgb(102, 102, 102); fill: rgb(139, 139, 139); stroke-width: 1.5px;" cx="34.988" cy="47.08" r="3.122" transform="matrix(0.441529, -0.897247, 0.897247, 0.441529, 82.694794, 215.615372)"/>
  <circle style="stroke: rgb(102, 102, 102); fill: rgb(139, 139, 139); stroke-width: 1.5px;" cx="34.988" cy="47.08" r="3.122" transform="matrix(0.441529, -0.897247, 0.897247, 0.441529, 88.120255, 204.195419)"/>
  <circle style="stroke: rgb(102, 102, 102); fill: rgb(139, 139, 139); stroke-width: 1.5px;" cx="34.988" cy="47.08" r="3.122" transform="matrix(0.441529, -0.897247, 0.897247, 0.441529, 95.841446, 208.904053)"/>
  <line style="marker-start: url(#marker-0); stroke: rgb(102, 102, 102); fill: rgb(255, 255, 255); stroke-width: 1.5px;" x1="149.408" y1="204.53" x2="143.732" y2="200.168" transform="matrix(0.441529, -0.897247, 0.897247, 0.441529, -99.701931, 244.515553)"/>
  <use width="75.98909759521484" height="137.21209716796875" transform="matrix(0.143889, 0.029899, -0.029899, 0.143889, 192.460022, 227.338104)" xlink:href="#symbol-2"/>
  <use width="75.98909759521484" height="137.21209716796875" transform="matrix(0.142942, 0.034142, -0.034142, 0.142942, 153.391754, 215.524811)" style="stroke-width: 23.94px; stroke: rgb(166, 172, 148);" xlink:href="#symbol-1"/>
  <use width="75.98909759521484" height="137.21209716796875" transform="matrix(0.048667, 0.138672, -0.138672, 0.048667, 168.875641, 220.977371)" style="stroke-width: 23.94px; stroke: rgb(166, 172, 148);" xlink:href="#symbol-1"/>
  <circle cx="84.474" cy="48.736" r="31.232" style="fill: rgb(250, 250, 250); stroke: rgb(186, 218, 85);" transform="matrix(0.884218, 0.467075, -0.467075, 0.884218, 150.083572, 95.123482)"/>
  <use width="75.98909759521484" height="137.21209716796875" transform="matrix(0.129947, 0.068643, -0.068643, 0.129947, 192.450302, 154.878326)" style="stroke-width: 23.94px; stroke: rgb(166, 172, 148);" xlink:href="#symbol-1"/>
  <use width="75.98909759521484" height="137.21209716796875" transform="matrix(-0.044827, 0.13996, -0.13996, -0.044827, 211.476059, 159.114838)" style="stroke-width: 23.94px; stroke: rgb(166, 172, 148);" xlink:href="#symbol-1"/>
  <use width="75.98909759521484" height="137.21209716796875" transform="matrix(-0.127935, -0.06758, -0.068643, 0.129947, 207.719238, 190.38739)" style="stroke-width: 23.94px; stroke: rgb(166, 172, 148);" xlink:href="#symbol-1"/>
  <use width="75.98909759521484" height="137.21209716796875" transform="matrix(-0.142151, -0.032413, -0.034641, 0.141686, 211.990311, 178.493042)" style="stroke-width: 23.94px; stroke: rgb(166, 172, 148);" xlink:href="#symbol-1"/>
  <use width="75.98909759521484" height="137.21209716796875" transform="matrix(0.138987, -0.047757, 0.047757, 0.138987, 185.471115, 169.289795)" style="stroke-width: 23.94px; stroke: rgb(166, 172, 148);" xlink:href="#symbol-1"/>
  <use width="75.98909759521484" height="137.21209716796875" transform="matrix(-0.079055, -0.122506, -0.123776, 0.077168, 223.547272, 178.956512)" style="stroke-width: 23.94px; stroke: rgb(166, 172, 148);" xlink:href="#symbol-1"/>
  <use width="75.98909759521484" height="137.21209716796875" transform="matrix(-0.11576, 0.088641, 0.086861, 0.117177, 197.834015, 175.706421)" style="stroke-width: 23.94px; stroke: rgb(166, 172, 148);" xlink:href="#symbol-1"/>
  <use width="75.98909759521484" height="137.21209716796875" transform="matrix(0.091382, 0.115098, -0.115098, 0.091382, 189.751389, 178.30661)" style="stroke-width: 23.94px; stroke: rgb(166, 172, 148);" xlink:href="#symbol-1"/>
  <use width="75.98909759521484" height="137.21209716796875" transform="matrix(0.109217, 0.098334, -0.098334, 0.109217, 185.199066, 157.043411)" xlink:href="#symbol-2"/>
  <use width="75.98909759521484" height="137.21209716796875" transform="matrix(0.109217, 0.098334, -0.098334, 0.109217, 191.122543, 146.97084)" xlink:href="#symbol-2"/>
  <use width="75.98909759521484" height="137.21209716796875" transform="matrix(-0.091874, -0.110517, -0.113013, 0.093949, 233.40387, 180.32341)" xlink:href="#symbol-2"/>
  <use width="75.98909759521484" height="137.21209716796875" transform="matrix(0.146162, 0.015323, -0.015323, 0.146162, 176.593872, 177.052826)" style="stroke-width: 23.94px; stroke: rgb(166, 172, 148);" xlink:href="#symbol-1"/>
  <circle style="stroke: rgb(102, 102, 102); fill: rgb(139, 139, 139); stroke-width: 1.5px;" cx="34.988" cy="47.08" r="3.122" transform="matrix(0.995955, -0.089857, 0.089857, 0.995955, 142.759537, 149.671829)"/>
  <circle style="stroke: rgb(102, 102, 102); fill: rgb(139, 139, 139); stroke-width: 1.5px;" cx="34.988" cy="47.08" r="3.122" transform="matrix(0.995955, -0.089857, 0.089857, 0.995955, 155.33168, 157.405975)"/>
  <line style="marker-start: url(#marker-0); stroke: rgb(102, 102, 102); fill: rgb(255, 255, 255); stroke-width: 1.5px;" x1="191.76" y1="200.027" x2="186.084" y2="195.665" transform="matrix(-0.997433, 0.071603, -0.071603, -0.997433, 391.525446, 381.656766)"/>
  <line style="marker-start: url(#marker-0); stroke-width: 1.5px; fill: rgb(255, 246, 246); stroke: rgb(176, 173, 173);" x1="180.613" y1="197.973" x2="178.092" y2="211.926" transform="matrix(0.999978, -0.006681, 0.006681, 0.999978, -1.365265, 1.202828)"/>
  <line style="marker-start: url(#marker-0); stroke-width: 1.5px; fill: rgb(255, 246, 246); stroke: rgb(176, 173, 173);" x1="192.822" y1="205.32" x2="188.053" y2="218.909" transform="matrix(0.999978, -0.006681, 0.006681, 0.999978, -1.412886, 1.277047)"/>
  <circle cx="78.916" cy="100.312" r="11.65" style="fill: none; stroke: rgb(186, 218, 85);" transform="matrix(0.858973, -0.512021, 0.512021, 0.858973, 62.492119, 172.603958)"/>
  <use width="75.98909759521484" height="137.21209716796875" transform="matrix(0.114404, -0.09225, 0.09225, 0.114404, 203.113419, 188.709351)" xlink:href="#symbol-2"/>
  <use width="75.98909759521484" height="137.21209716796875" transform="matrix(0.146183, 0.015115, -0.015115, 0.146183, 213.272675, 180.279938)" xlink:href="#symbol-2"/>
  <use width="75.98909759521484" height="137.21209716796875" transform="matrix(0.035256, 0.142672, -0.142672, 0.035256, 221.524567, 191.203583)" xlink:href="#symbol-2"/>
  <use width="75.98909759521484" height="137.21209716796875" transform="matrix(0.134257, 0.059777, -0.059777, 0.134257, 197.287811, 164.667313)" style="stroke-width: 23.94px; stroke: rgb(166, 172, 148);" xlink:href="#symbol-1"/>
  <use width="75.98909759521484" height="137.21209716796875" transform="matrix(0.139649, -0.045788, 0.045788, 0.139649, 142.442719, 241.25351)" xlink:href="#symbol-2"/>
  <use width="75.98909759521484" height="137.21209716796875" transform="matrix(0.139651, 0.045778, -0.045778, 0.139651, 152.323257, 237.129181)" xlink:href="#symbol-2"/>
  <circle cx="84.474" cy="48.736" r="31.232" style="fill: rgb(250, 250, 250); stroke: rgb(186, 218, 85);" transform="matrix(0.950488, 0.31076, -0.31076, 0.950488, 180.892853, -19.508461)"/>
  <use width="75.98909759521484" height="137.21209716796875" transform="matrix(0.139687, 0.04567, -0.04567, 0.139687, 232.75769, 32.217953)" style="stroke-width: 23.94px; stroke: rgb(166, 172, 148);" xlink:href="#symbol-1"/>
  <use width="75.98909759521484" height="137.21209716796875" transform="matrix(0.06823, 0.130165, -0.130165, 0.06823, 246.449951, 24.373817)" style="stroke-width: 23.94px; stroke: rgb(166, 172, 148);" xlink:href="#symbol-1"/>
  <use width="75.98909759521484" height="137.21209716796875" transform="matrix(-0.137523, -0.044963, -0.04567, 0.139687, 253.813599, 64.632179)" style="stroke-width: 23.94px; stroke: rgb(166, 172, 148);" xlink:href="#symbol-1"/>
  <use width="75.98909759521484" height="137.21209716796875" transform="matrix(-0.145585, -0.007898, -0.010173, 0.145505, 256.010956, 52.186745)" style="stroke-width: 23.94px; stroke: rgb(166, 172, 148);" xlink:href="#symbol-1"/>
  <use width="75.98909759521484" height="137.21209716796875" transform="matrix(0.128905, -0.070582, 0.070582, 0.128905, 228.317047, 47.602386)" style="stroke-width: 23.94px; stroke: rgb(166, 172, 148);" xlink:href="#symbol-1"/>
  <use width="75.98909759521484" height="137.21209716796875" transform="matrix(-0.09864, -0.107366, -0.108937, 0.096995, 267.479767, 50.688431)" style="stroke-width: 23.94px; stroke: rgb(166, 172, 148);" xlink:href="#symbol-1"/>
  <use width="75.98909759521484" height="137.21209716796875" transform="matrix(-0.099096, 0.106947, 0.105432, 0.100794, 241.58728, 51.835106)" style="stroke-width: 23.94px; stroke: rgb(166, 172, 148);" xlink:href="#symbol-1"/>
  <use width="75.98909759521484" height="137.21209716796875" transform="matrix(0.137107, 0.052915, -0.052915, 0.137107, 228.189026, 54.978462)" style="stroke-width: 23.94px; stroke: rgb(166, 172, 148);" xlink:href="#symbol-1"/>
  <use width="75.98909759521484" height="137.21209716796875" transform="matrix(-0.072514, 0.127828, -0.127828, -0.072514, 252.51886, 39.626671)" style="stroke-width: 23.94px; stroke: rgb(166, 172, 148);" xlink:href="#symbol-1"/>
  <use width="75.98909759521484" height="137.21209716796875" transform="matrix(0.124278, 0.078441, -0.078441, 0.124278, 225.977234, 35.578522)" xlink:href="#symbol-2"/>
  <use width="75.98909759521484" height="137.21209716796875" transform="matrix(-0.109246, -0.093382, -0.095491, 0.111713, 275.948853, 63.662529)" xlink:href="#symbol-2"/>
  <use width="75.98909759521484" height="137.21209716796875" transform="matrix(0.124278, 0.078441, -0.078441, 0.124278, 230.111328, 24.649055)" xlink:href="#symbol-2"/>
  <use width="75.98909759521484" height="137.21209716796875" transform="matrix(-0.109246, -0.093382, -0.095491, 0.111713, 277.425537, 50.368195)" xlink:href="#symbol-2"/>
  <use width="75.98909759521484" height="137.21209716796875" transform="matrix(0.133769, -0.06086, 0.06086, 0.133769, 216.095276, 60.535446)" style="stroke-width: 23.94px; stroke: rgb(166, 172, 148);" xlink:href="#symbol-1"/>
  <use width="75.98909759521484" height="137.21209716796875" transform="matrix(-0.04308, -0.138125, -0.140298, 0.043756, 259.607544, 79.091652)" style="stroke-width: 23.94px; stroke: rgb(166, 172, 148);" xlink:href="#symbol-1"/>
  <use width="75.98909759521484" height="137.21209716796875" transform="matrix(-0.145585, -0.007898, -0.010173, 0.145505, 261.860443, 60.920555)" style="stroke-width: 23.94px; stroke: rgb(166, 172, 148);" xlink:href="#symbol-1"/>
  <use width="75.98909759521484" height="137.21209716796875" transform="matrix(0.119619, -0.08538, 0.08538, 0.119619, 246.245117, 33.167027)" xlink:href="#symbol-2"/>
  <use width="75.98909759521484" height="137.21209716796875" transform="matrix(0.146949, 0.002011, -0.002011, 0.146949, 254.444397, 26.281734)" xlink:href="#symbol-2"/>
  <circle cx="85.497" cy="113.202" r="30.813" style="fill: rgb(250, 250, 250); stroke: rgb(186, 218, 85);" transform="matrix(0.950488, 0.31076, -0.31076, 0.950488, 180.892853, -19.508461)"/>
  <use width="75.98909759521484" height="137.21209716796875" transform="matrix(-0.137523, -0.044963, -0.04567, 0.139687, 241.633331, 121.042633)" style="stroke-width: 23.94px; stroke: rgb(166, 172, 148);" xlink:href="#symbol-1"/>
  <use width="75.98909759521484" height="137.21209716796875" transform="matrix(-0.094747, -0.110818, -0.11233, 0.093044, 252.518982, 119.005096)" style="stroke-width: 23.94px; stroke: rgb(166, 172, 148);" xlink:href="#symbol-1"/>
  <use width="75.98909759521484" height="137.21209716796875" transform="matrix(0.130664, 0.067268, -0.067268, 0.130664, 221.588898, 116.228607)" style="stroke-width: 23.94px; stroke: rgb(166, 172, 148);" xlink:href="#symbol-1"/>
  <use width="75.98909759521484" height="137.21209716796875" transform="matrix(0.128905, -0.070582, 0.070582, 0.128905, 209.793427, 111.443848)" style="stroke-width: 23.94px; stroke: rgb(166, 172, 148);" xlink:href="#symbol-1"/>
  <use width="75.98909759521484" height="137.21209716796875" transform="matrix(-0.139005, 0.043988, 0.041832, 0.139733, 248.254761, 101.390762)" style="stroke-width: 23.94px; stroke: rgb(166, 172, 148);" xlink:href="#symbol-1"/>
  <use width="75.98909759521484" height="137.21209716796875" transform="matrix(-0.079437, 0.122259, 0.121056, 0.081368, 226.927948, 109.308029)" style="stroke-width: 23.94px; stroke: rgb(166, 172, 148);" xlink:href="#symbol-1"/>
  <use width="75.98909759521484" height="137.21209716796875" transform="matrix(0.146964, -0.000079, 0.000079, 0.146964, 204.876648, 115.081268)" style="stroke-width: 23.94px; stroke: rgb(166, 172, 148);" xlink:href="#symbol-1"/>
  <use width="75.98909759521484" height="137.21209716796875" transform="matrix(0.102828, -0.104998, 0.104998, 0.102828, 195.599976, 124.625)" style="stroke-width: 23.94px; stroke: rgb(166, 172, 148);" xlink:href="#symbol-1"/>
  <line style="marker-start: url(#marker-0); stroke-width: 1.5px; fill: rgb(255, 246, 246); stroke: rgb(176, 173, 173);" x1="229.911" y1="77.893" x2="216.52" y2="97.733" transform="matrix(0.966399, -0.257047, 0.257047, 0.966399, -15.071781, 60.327473)"/>
  <line style="marker-start: url(#marker-0); stroke-width: 1.5px; fill: rgb(255, 246, 246); stroke: rgb(176, 173, 173);" x1="241.099" y1="74.409" x2="226.743" y2="90.421" transform="matrix(0.966399, -0.257047, 0.257047, 0.966399, -13.324524, 62.89791)"/>
  <line style="marker-start: url(#marker-0); stroke-width: 1.5px; fill: rgb(255, 246, 246); stroke: rgb(176, 173, 173);" x1="243.334" y1="83.525" x2="228.528" y2="101.319" transform="matrix(0.966399, -0.257047, 0.257047, 0.966399, -15.829256, 63.750821)"/>
  <line style="marker-start: url(#marker-0); stroke: rgb(102, 102, 102); fill: rgb(255, 255, 255); stroke-width: 1.5px;" x1="236.661" y1="70.493" x2="231.652" y2="70.639" transform="matrix(0.966399, -0.257047, 0.257047, 0.966399, -10.270863, 62.560305)"/>
  <circle cx="78.916" cy="100.312" r="11.65" style="fill: none; stroke: rgb(186, 218, 85);" transform="matrix(0.950488, 0.31076, -0.31076, 0.950488, 180.892853, -19.508461)"/>
  <line style="marker-start: url(#marker-0); stroke: rgb(102, 102, 102); stroke-width: 1.4px;" x1="217.801" y1="106.34" x2="215.939" y2="109.827" transform="matrix(0.966399, -0.257047, 0.257047, 0.966399, -20.495467, 59.377492)"/>
  <circle style="stroke: rgb(102, 102, 102); fill: rgb(139, 139, 139); stroke-width: 1.5px;" cx="34.988" cy="47.08" r="3.122" transform="matrix(0.966399, -0.257047, 0.257047, 0.966399, 165.565613, 94.213524)"/>
  <circle style="stroke: rgb(102, 102, 102); fill: rgb(139, 139, 139); stroke-width: 1.5px;" cx="34.988" cy="47.08" r="3.122" transform="matrix(0.994951, -0.100358, 0.100358, 0.994951, 180.881943, 89.863762)"/>
  <circle style="stroke: rgb(102, 102, 102); fill: rgb(139, 139, 139); stroke-width: 1.5px;" cx="34.988" cy="47.08" r="3.122" transform="matrix(0.966399, -0.257047, 0.257047, 0.966399, 184.560394, 97.272156)"/>
  <circle style="stroke: rgb(102, 102, 102); fill: rgb(139, 139, 139); stroke-width: 1.5px;" cx="34.988" cy="47.08" r="3.122" transform="matrix(0.966399, -0.257047, 0.257047, 0.966399, 182.902313, 35.492683)"/>
  <circle style="stroke: rgb(102, 102, 102); fill: rgb(139, 139, 139); stroke-width: 1.5px;" cx="34.988" cy="47.08" r="3.122" transform="matrix(0.966399, -0.257047, 0.257047, 0.966399, 195.074738, 32.074677)"/>
  <circle style="stroke: rgb(102, 102, 102); fill: rgb(139, 139, 139); stroke-width: 1.5px;" cx="34.988" cy="47.08" r="3.122" transform="matrix(0.966399, -0.257047, 0.257047, 0.966399, 196.601654, 40.988518)"/>
  <line style="marker-start: url(#marker-0); stroke: rgb(102, 102, 102); fill: rgb(255, 255, 255); stroke-width: 1.5px;" x1="237.725" y1="77.09" x2="232.049" y2="72.728" transform="matrix(0.966399, -0.257047, 0.257047, 0.966399, -11.362671, 62.894009)"/>
  <use width="75.98909759521484" height="137.21209716796875" transform="matrix(0.07205, 0.128089, -0.128089, 0.07205, 246.219757, 125.917938)" xlink:href="#symbol-2"/>
  <use width="75.98909759521484" height="137.21209716796875" transform="matrix(0.06823, 0.130165, -0.130165, 0.06823, 229.44165, 88.710709)" style="stroke-width: 23.94px; stroke: rgb(166, 172, 148);" xlink:href="#symbol-1"/>
  <use width="75.98909759521484" height="137.21209716796875" transform="matrix(-0.072514, 0.127828, -0.127828, -0.072514, 235.510559, 103.963577)" style="stroke-width: 23.94px; stroke: rgb(166, 172, 148);" xlink:href="#symbol-1"/>
  <use width="75.98909759521484" height="137.21209716796875" transform="matrix(0.047845, 0.138958, -0.138958, 0.047845, 263.638062, 36.425491)" xlink:href="#symbol-2"/>
  <circle cx="84.474" cy="48.736" r="31.232" style="fill: rgb(250, 250, 250); stroke: rgb(186, 218, 85);" transform="matrix(0.229231, 0.973372, -0.973372, 0.229231, 318.002075, 7.074497)"/>
  <use width="75.98909759521484" height="137.21209716796875" transform="matrix(0.033689, 0.14305, -0.14305, 0.033689, 300.819397, 78.280792)" style="stroke-width: 23.94px; stroke: rgb(166, 172, 148);" xlink:href="#symbol-1"/>
  <use width="75.98909759521484" height="137.21209716796875" transform="matrix(-0.075649, 0.125998, -0.125998, -0.075649, 314.642822, 85.89138)" style="stroke-width: 23.94px; stroke: rgb(166, 172, 148);" xlink:href="#symbol-1"/>
  <use width="75.98909759521484" height="137.21209716796875" transform="matrix(-0.033167, -0.140834, -0.14305, 0.033689, 284.096313, 113.128632)" style="stroke-width: 23.94px; stroke: rgb(166, 172, 148);" xlink:href="#symbol-1"/>
  <use width="75.98909759521484" height="137.21209716796875" transform="matrix(-0.069014, -0.128431, -0.129546, 0.067029, 295.867432, 108.528839)" style="stroke-width: 23.94px; stroke: rgb(166, 172, 148);" xlink:href="#symbol-1"/>
  <use width="75.98909759521484" height="137.21209716796875" transform="matrix(0.12735, 0.073349, -0.073349, 0.12735, 285.371216, 82.494293)" style="stroke-width: 23.94px; stroke: rgb(166, 172, 148);" xlink:href="#symbol-1"/>
  <use width="75.98909759521484" height="137.21209716796875" transform="matrix(0.040356, -0.140103, -0.139515, -0.042553, 303.114868, 117.542877)" style="stroke-width: 23.94px; stroke: rgb(166, 172, 148);" xlink:href="#symbol-1"/>
  <use width="75.98909759521484" height="137.21209716796875" transform="matrix(-0.142892, -0.028971, -0.031209, 0.142483, 288.662109, 96.02887)" style="stroke-width: 23.94px; stroke: rgb(166, 172, 148);" xlink:href="#symbol-1"/>
  <use width="75.98909759521484" height="137.21209716796875" transform="matrix(-0.026671, 0.144523, -0.144523, -0.026671, 281.389679, 91.646942)" style="stroke-width: 23.94px; stroke: rgb(166, 172, 148);" xlink:href="#symbol-1"/>
  <use width="75.98909759521484" height="137.21209716796875" transform="matrix(-0.002314, 0.146944, -0.146944, -0.002314, 294.421326, 74.239395)" xlink:href="#symbol-2"/>
  <use width="75.98909759521484" height="137.21209716796875" transform="matrix(-0.002314, 0.146944, -0.146944, -0.002314, 305.905762, 72.082367)" xlink:href="#symbol-2"/>
  <use width="75.98909759521484" height="137.21209716796875" transform="matrix(0.022895, -0.141883, -0.145087, -0.023412, 308.563782, 125.869354)" xlink:href="#symbol-2"/>
  <use width="75.98909759521484" height="137.21209716796875" transform="matrix(0.084529, 0.120221, -0.120221, 0.084529, 273.68573, 80.907219)" style="stroke-width: 23.94px; stroke: rgb(166, 172, 148);" xlink:href="#symbol-1"/>
  <use width="75.98909759521484" height="137.21209716796875" transform="matrix(0.135155, 0.057719, -0.057719, 0.135155, 307.027374, 90.292145)" xlink:href="#symbol-2"/>
  <use width="75.98909759521484" height="137.21209716796875" transform="matrix(0.07475, 0.126533, -0.126533, 0.07475, 317.173645, 93.710991)" xlink:href="#symbol-2"/>
  <circle style="stroke: rgb(102, 102, 102); fill: rgb(139, 139, 139); stroke-width: 1.5px;" cx="34.988" cy="47.08" r="3.122" transform="matrix(0.722385, 0.691491, -0.691491, 0.722385, 272.079895, 37.411217)"/>
  <circle style="stroke: rgb(102, 102, 102); fill: rgb(139, 139, 139); stroke-width: 1.5px;" cx="34.988" cy="47.08" r="3.122" transform="matrix(0.722385, 0.691491, -0.691491, 0.722385, 274.515442, 51.969521)"/>
  <line style="marker-start: url(#marker-0); stroke: rgb(102, 102, 102); fill: rgb(255, 255, 255); stroke-width: 1.5px;" x1="268.958" y1="106.047" x2="263.282" y2="101.685" transform="matrix(-0.709601, -0.704604, 0.704604, -0.709601, 381.77462, 365.078586)"/>
  <use width="75.98909759521484" height="137.21209716796875" transform="matrix(-0.093765, 0.113166, -0.113166, -0.093765, 313.295532, 106.840363)" xlink:href="#symbol-2"/>
  <line style="marker-start: url(#marker-0); stroke-width: 1.5px; fill: rgb(255, 246, 246); stroke: rgb(176, 173, 173);" x1="255.737" y1="94.347" x2="253.216" y2="108.3" transform="matrix(0.662348, 0.749196, -0.749196, 0.662348, 161.835676, -156.440769)"/>
  <line style="marker-start: url(#marker-0); stroke-width: 1.5px; fill: rgb(255, 246, 246); stroke: rgb(176, 173, 173);" x1="258.748" y1="107.592" x2="253.978" y2="121.181" transform="matrix(0.662348, 0.749196, -0.749196, 0.662348, 172.259403, -153.443373)"/>
  <circle cx="78.916" cy="100.312" r="11.65" style="fill: none; stroke: rgb(186, 218, 85);" transform="matrix(0.950488, 0.31076, -0.31076, 0.950488, 202.036133, -8.004747)"/>
  <use width="75.98909759521484" height="137.21209716796875" transform="matrix(0.144721, 0.025577, -0.025577, 0.144721, 282.333344, 108.554642)" xlink:href="#symbol-2"/>
  <use width="75.98909759521484" height="137.21209716796875" transform="matrix(0.0847, 0.1201, -0.1201, 0.0847, 295.36377, 110.669815)" xlink:href="#symbol-2"/>
  <use width="75.98909759521484" height="137.21209716796875" transform="matrix(-0.084344, 0.120352, -0.120352, -0.084344, 292.555847, 124.068909)" xlink:href="#symbol-2"/>
  <use width="75.98909759521484" height="137.21209716796875" transform="matrix(0.043203, 0.140469, -0.140469, 0.043203, 296.622192, 88.360939)" style="stroke-width: 23.94px; stroke: rgb(166, 172, 148);" xlink:href="#symbol-1"/>
  <use width="75.98909759521484" height="137.21209716796875" transform="matrix(0.126301, 0.075143, -0.075143, 0.126301, 202.85527, 97.371674)" xlink:href="#symbol-2"/>
  <use width="75.98909759521484" height="137.21209716796875" transform="matrix(0.057298, 0.135333, -0.135333, 0.057298, 212.45813, 102.106659)" xlink:href="#symbol-2"/>
  <use width="75.98909759521484" height="137.21209716796875" transform="matrix(0.13092, -0.066769, 0.066769, 0.13092, 204.199356, 166.662033)" style="stroke-width: 23.94px; stroke: rgb(166, 172, 148);" xlink:href="#symbol-1"/>
  <use width="75.98909759521484" height="137.21209716796875" transform="matrix(0.141311, 0.040366, -0.040366, 0.141311, 215.251404, 160.428711)" style="stroke-width: 23.94px; stroke: rgb(166, 172, 148);" xlink:href="#symbol-1"/>
  <circle cx="78.916" cy="100.312" r="11.65" style="fill: none; stroke: rgb(186, 218, 85);" transform="matrix(0.950488, 0.31076, -0.31076, 0.950488, 167.660187, 43.968307)"/>
  <line style="marker-start: url(#marker-0); stroke-width: 1.5px; fill: rgb(255, 246, 246); stroke: rgb(176, 173, 173);" x1="213.754" y1="136.138" x2="203.45" y2="157.551" transform="matrix(0.966399, -0.257047, 0.257047, 0.966399, -30.736676, 58.55464)"/>
  <line style="marker-start: url(#marker-0); stroke-width: 1.5px; fill: rgb(255, 246, 246); stroke: rgb(176, 173, 173);" x1="222.52" y1="139.328" x2="207.94" y2="163.635" transform="matrix(0.966399, -0.257047, 0.257047, 0.966399, -31.705895, 60.414156)"/>
  <line style="marker-start: url(#marker-0); stroke-width: 1.5px; fill: rgb(255, 246, 246); stroke: rgb(176, 173, 173);" x1="231.239" y1="139.36" x2="216.73" y2="161.222" transform="matrix(0.966399, -0.257047, 0.257047, 0.966399, -31.105721, 62.62447)"/>
  <circle cx="158.955" cy="91.706" r="58.77" style="fill: rgb(250, 250, 250); stroke: rgb(186, 218, 85);" transform="matrix(-0.513051, -0.160684, -0.168678, 0.507643, 250.079926, 92.668076)"/>
  <use width="75.98909759521484" height="137.21209716796875" transform="matrix(-0.141879, -0.044436, -0.046647, 0.140384, 176.480133, 104.470825)" style="stroke-width: 23.94px; stroke: rgb(166, 172, 148);" xlink:href="#symbol-1"/>
  <use width="75.98909759521484" height="137.21209716796875" transform="matrix(-0.134199, 0.066088, 0.065548, 0.131585, 169.986328, 90.086327)" style="stroke-width: 23.94px; stroke: rgb(166, 172, 148);" xlink:href="#symbol-1"/>
  <use width="75.98909759521484" height="137.21209716796875" transform="matrix(0.139682, 0.043747, -0.046647, 0.140384, 139.732239, 118.553604)" style="stroke-width: 23.94px; stroke: rgb(166, 172, 148);" xlink:href="#symbol-1"/>
  <use width="75.98909759521484" height="137.21209716796875" transform="matrix(0.123983, 0.078628, -0.079218, 0.124381, 145.421097, 107.139526)" style="stroke-width: 23.94px; stroke: rgb(166, 172, 148);" xlink:href="#symbol-1"/>
  <use width="75.98909759521484" height="137.21209716796875" transform="matrix(-0.063101, -0.132763, -0.135367, 0.063689, 170.860107, 119.587769)" style="stroke-width: 23.94px; stroke: rgb(166, 172, 148);" xlink:href="#symbol-1"/>
  <use width="75.98909759521484" height="137.21209716796875" transform="matrix(0.145387, -0.029764, 0.030856, 0.142596, 136.929947, 99.219437)" style="stroke-width: 23.94px; stroke: rgb(166, 172, 148);" xlink:href="#symbol-1"/>
  <use width="75.98909759521484" height="137.21209716796875" transform="matrix(0.016808, 0.144947, -0.146993, 0.020448, 157.445297, 115.280151)" style="stroke-width: 23.94px; stroke: rgb(166, 172, 148);" xlink:href="#symbol-1"/>
  <use width="75.98909759521484" height="137.21209716796875" transform="matrix(-0.144126, -0.037031, -0.039161, 0.142517, 166.526779, 125.66655)" style="stroke-width: 23.94px; stroke: rgb(166, 172, 148);" xlink:href="#symbol-1"/>
  <use width="75.98909759521484" height="137.21209716796875" transform="matrix(-0.017527, 0.146415, 0.148319, 0.015658, 155.838409, 98.956116)" style="stroke-width: 23.94px; stroke: rgb(166, 172, 148);" xlink:href="#symbol-1"/>
  <use width="75.98909759521484" height="137.21209716796875" transform="matrix(-0.148978, -0.008759, -0.010537, 0.146987, 180.011108, 111.167633)" xlink:href="#symbol-2"/>
  <use width="75.98909759521484" height="137.21209716796875" transform="matrix(0.145657, -0.012185, 0.010987, 0.146721, 122.187469, 104.832092)" xlink:href="#symbol-2"/>
  <use width="75.98909759521484" height="137.21209716796875" transform="matrix(-0.148978, -0.008759, -0.010537, 0.146987, 183.20163, 99.856003)" xlink:href="#symbol-2"/>
  <use width="75.98909759521484" height="137.21209716796875" transform="matrix(0.145657, -0.012185, 0.010987, 0.146721, 128.977295, 93.148071)" xlink:href="#symbol-2"/>
  <use width="75.98909759521484" height="137.21209716796875" transform="matrix(-0.072934, -0.127692, -0.130332, 0.073329, 173.087631, 137.255417)" style="stroke-width: 23.94px; stroke: rgb(166, 172, 148);" xlink:href="#symbol-1"/>
  <use width="75.98909759521484" height="137.21209716796875" transform="matrix(0.118391, -0.087262, 0.088572, 0.117584, 126.286911, 126.938248)" style="stroke-width: 23.94px; stroke: rgb(166, 172, 148);" xlink:href="#symbol-1"/>
  <use width="75.98909759521484" height="137.21209716796875" transform="matrix(0.123983, 0.078628, -0.079218, 0.124381, 135.375351, 110.831161)" style="stroke-width: 23.94px; stroke: rgb(166, 172, 148);" xlink:href="#symbol-1"/>
  <use width="75.98909759521484" height="137.21209716796875" transform="matrix(-0.046591, -0.139383, -0.141898, 0.047485, 164.86322, 97.363472)" xlink:href="#symbol-2"/>
  <use width="75.98909759521484" height="137.21209716796875" transform="matrix(-0.121558, -0.084217, -0.086772, 0.120788, 162.291107, 86.968674)" xlink:href="#symbol-2"/>
  <line style="marker-start: url(#marker-0); stroke: rgb(102, 102, 102); fill: rgb(255, 255, 255); stroke-width: 1.5px;" x1="154.77" y1="134.943" x2="149.752" y2="134.794" transform="matrix(-0.635418, -0.772168, 0.772168, -0.635418, 144.869251, 338.137501)"/>
  <circle style="stroke: rgb(102, 102, 102); fill: rgb(139, 139, 139); stroke-width: 1.5px;" cx="65.837" cy="88.591" r="5.874" transform="matrix(-0.338412, -0.411243, -0.420893, 0.33823, 215.340042, 136.263763)"/>
  <circle style="stroke: rgb(102, 102, 102); fill: rgb(139, 139, 139); stroke-width: 1.5px;" cx="65.837" cy="88.591" r="5.874" transform="matrix(-0.338412, -0.411243, -0.420893, 0.33823, 207.427765, 126.369995)"/>
  <circle style="stroke: rgb(102, 102, 102); fill: rgb(139, 139, 139); stroke-width: 1.5px;" cx="65.837" cy="88.591" r="5.874" transform="matrix(-0.338412, -0.411243, -0.420893, 0.33823, 200.813782, 132.733566)"/>
  <line style="marker-start: url(#marker-0); stroke: rgb(102, 102, 102); fill: rgb(255, 255, 255); stroke-width: 1.5px;" x1="151.919" y1="135.761" x2="146.179" y2="140.193" transform="matrix(-0.635418, -0.772168, 0.772168, -0.635418, 137.216008, 340.740992)"/>
  <use width="75.98909759521484" height="137.21209716796875" transform="matrix(-0.122795, 0.085155, 0.085014, 0.120129, 148.658203, 89.854172)" xlink:href="#symbol-2"/>
  <circle cx="158.955" cy="91.706" r="58.77" style="fill: rgb(250, 250, 250); stroke: rgb(186, 218, 85);" transform="matrix(-0.411017, 0.349883, 0.350341, 0.401375, 121.795883, 34.201614)"/>
  <use width="75.98909759521484" height="137.21209716796875" transform="matrix(-0.113662, 0.096757, 0.096884, 0.110997, 93.023285, 102.200714)" style="stroke-width: 23.94px; stroke: rgb(166, 172, 148);" xlink:href="#symbol-1"/>
  <use width="75.98909759521484" height="137.21209716796875" transform="matrix(0.075484, 0.126225, 0.128872, -0.075825, 75.093056, 110.696869)" style="stroke-width: 23.94px; stroke: rgb(166, 172, 148);" xlink:href="#symbol-1"/>
  <use width="75.98909759521484" height="137.21209716796875" transform="matrix(0.111903, -0.095259, 0.096884, 0.110997, 85.75116, 140.336334)" style="stroke-width: 23.94px; stroke: rgb(166, 172, 148);" xlink:href="#symbol-1"/>
  <use width="75.98909759521484" height="137.21209716796875" transform="matrix(0.133797, -0.064219, 0.065765, 0.130246, 78.878593, 129.715073)" style="stroke-width: 23.94px; stroke: rgb(166, 172, 148);" xlink:href="#symbol-1"/>
  <use width="75.98909759521484" height="137.21209716796875" transform="matrix(-0.148431, -0.014698, -0.016556, 0.146513, 103.139694, 114.655807)" style="stroke-width: 23.94px; stroke: rgb(166, 172, 148);" xlink:href="#symbol-1"/>
  <use width="75.98909759521484" height="137.21209716796875" transform="matrix(0.05125, -0.137618, 0.139864, 0.046873, 67.519363, 132.818054)" style="stroke-width: 23.94px; stroke: rgb(166, 172, 148);" xlink:href="#symbol-1"/>
  <use width="75.98909759521484" height="137.21209716796875" transform="matrix(0.134457, 0.059902, -0.060172, 0.134211, 92.300797, 123.749985)" style="stroke-width: 23.94px; stroke: rgb(166, 172, 148);" xlink:href="#symbol-1"/>
  <use width="75.98909759521484" height="137.21209716796875" transform="matrix(-0.065116, 0.13322, 0.134409, 0.062726, 100.893372, 124.432022)" style="stroke-width: 23.94px; stroke: rgb(166, 172, 148);" xlink:href="#symbol-1"/>
  <use width="75.98909759521484" height="137.21209716796875" transform="matrix(-0.086521, 0.120962, 0.121736, 0.083967, 100.694855, 102.649094)" xlink:href="#symbol-2"/>
  <use width="75.98909759521484" height="137.21209716796875" transform="matrix(-0.086521, 0.120962, 0.121736, 0.083967, 92.587296, 94.183693)" xlink:href="#symbol-2"/>
  <use width="75.98909759521484" height="137.21209716796875" transform="matrix(0.06662, -0.128866, 0.13291, 0.065709, 58.046799, 136.412155)" xlink:href="#symbol-2"/>
  <use width="75.98909759521484" height="137.21209716796875" transform="matrix(-0.141564, 0.048472, 0.047597, 0.139043, 113.664795, 120.191086)" style="stroke-width: 23.94px; stroke: rgb(166, 172, 148);" xlink:href="#symbol-1"/>
  <circle style="stroke: rgb(102, 102, 102); fill: rgb(139, 139, 139); stroke-width: 1.5px;" cx="65.837" cy="88.591" r="5.874" transform="matrix(-0.535518, 0.074833, 0.069966, 0.527182, 141.151428, 85.724487)"/>
  <circle style="stroke: rgb(102, 102, 102); fill: rgb(139, 139, 139); stroke-width: 1.5px;" cx="65.837" cy="88.591" r="5.874" transform="matrix(-0.535518, 0.074833, 0.069966, 0.527182, 130.397064, 96.15168)"/>
  <line style="marker-start: url(#marker-0); stroke: rgb(102, 102, 102); fill: rgb(255, 255, 255); stroke-width: 1.5px;" x1="108.949" y1="141.117" x2="103.145" y2="145.482" transform="matrix(0.987724, -0.156207, 0.156207, 0.987724, -21.082595, 18.324387)"/>
  <line style="marker-start: url(#marker-0); stroke-width: 1.5px; fill: rgb(255, 246, 246); stroke: rgb(176, 173, 173);" x1="116.569" y1="162.777" x2="116.718" y2="141.254" transform="matrix(-0.97574, 0.218934, -0.218934, -0.97574, 263.738544, 274.805827)"/>
  <use width="75.98909759521484" height="137.21209716796875" transform="matrix(-0.133913, -0.063733, -0.066131, 0.132742, 89.947159, 137.643188)" xlink:href="#symbol-2"/>
  <use width="75.98909759521484" height="137.21209716796875" transform="matrix(-0.141632, 0.048274, 0.047395, 0.139111, 78.002876, 131.752029)" xlink:href="#symbol-2"/>
  <use width="75.98909759521484" height="137.21209716796875" transform="matrix(-0.00334, 0.14724, 0.149314, 0.00166, 72.24025, 144.299072)" xlink:href="#symbol-2"/>
  <use width="75.98909759521484" height="137.21209716796875" transform="matrix(-0.119902, 0.089099, 0.089046, 0.117234, 90.395447, 112.85788)" style="stroke-width: 23.94px; stroke: rgb(166, 172, 148);" xlink:href="#symbol-1"/>
  <use width="75.98909759521484" height="137.21209716796875" transform="matrix(-0.144644, -0.035092, -0.037199, 0.143007, 83.98291, 116.388779)" style="stroke-width: 23.94px; stroke: rgb(166, 172, 148);" xlink:href="#symbol-1"/>
  <use width="75.98909759521484" height="137.21209716796875" transform="matrix(-0.131201, 0.071784, 0.071359, 0.128566, 71.639992, 112.84433)" style="stroke-width: 23.94px; stroke: rgb(166, 172, 148);" xlink:href="#symbol-1"/>
  <circle cx="148.496" cy="188.757" r="21.922" style="fill: none; stroke: rgb(186, 218, 85);" transform="matrix(-0.46436, 0.27694, 0.275761, 0.45478, 91.852295, -11.934576)"/>
  <line style="marker-start: url(#marker-0); stroke-width: 1.5px; fill: rgb(255, 246, 246); stroke: rgb(176, 173, 173);" x1="113.796" y1="175.436" x2="106.353" y2="150.288" transform="matrix(-0.97574, 0.218934, -0.218934, -0.97574, 253.13457, 297.673874)"/>
  <circle cx="78.916" cy="100.312" r="11.65" style="fill: none; stroke: rgb(186, 218, 85);" transform="matrix(0.950488, 0.31076, -0.31076, 0.950488, 75.551399, 51.85627)"/>
  <use width="75.98909759521484" height="137.21209716796875" transform="matrix(0.14084, -0.04198, 0.04198, 0.14084, 134.514084, 153.007385)" style="stroke-width: 23.94px; stroke: rgb(166, 172, 148);" xlink:href="#symbol-1"/>
  <use width="75.98909759521484" height="137.21209716796875" transform="matrix(0.042066, -0.140814, 0.140814, 0.042066, 128.278961, 168.058289)" style="stroke-width: 23.94px; stroke: rgb(166, 172, 148);" xlink:href="#symbol-1"/>
  <line style="marker-start: url(#marker-0); stroke-width: 1.5px; fill: rgb(255, 246, 246); stroke: rgb(176, 173, 173);" x1="143.518" y1="140.835" x2="130.437" y2="159.867" transform="matrix(0.933294, -0.359112, 0.359112, 0.933294, -44.85571, 59.21954)"/>
  <line style="marker-start: url(#marker-0); stroke-width: 1.5px; fill: rgb(255, 246, 246); stroke: rgb(176, 173, 173);" x1="151.969" y1="136.5" x2="137.413" y2="149.877" transform="matrix(0.860445, -0.509543, 0.509543, 0.860445, -52.768378, 93.708944)"/>
  <line style="marker-start: url(#marker-0); stroke-width: 1.5px; fill: rgb(255, 246, 246); stroke: rgb(176, 173, 173);" x1="157.136" y1="144.996" x2="143.309" y2="160.847" transform="matrix(0.933294, -0.359112, 0.359112, 0.933294, -44.89529, 64.147448)"/>
  <circle cx="78.916" cy="100.312" r="11.65" style="fill: none; stroke: rgb(186, 218, 85);" transform="matrix(0.950488, 0.31076, -0.31076, 0.950488, 96.792526, 42.142555)"/>
</svg>