<?xml version="1.0" encoding="utf-8"?>
<svg viewBox="30.786 17 300 250" width="300px" height="250px" xmlns="http://www.w3.org/2000/svg" xmlns:xlink="http://www.w3.org/1999/xlink">
  <defs>
    <symbol id="symbol-1" viewBox="0 0 75.9891 137.2121">
      <circle style="fill: rgb(216, 216, 216); stroke-width: 5px; stroke: rgb(102, 102, 102);" cx="243.248" cy="327.315" r="21.703" transform="matrix(0.8386710286140442, -0.544638991355896, 0.544638991355896, 0.8386710286140442, -336.30639595590213, -34.83714732185037)"/>
      <circle style="fill: rgb(216, 216, 216); stroke-width: 5px; stroke: rgb(102, 102, 102);" cx="271.904" cy="253.912" r="21.703" transform="matrix(0.8386710286140442, -0.544638991355896, 0.544638991355896, 0.8386710286140442, -336.30639595590213, -34.83714732185037)"/>
      <line style="stroke-width: 5px; marker-start: url(#marker-0); stroke: rgb(102, 102, 102);" x1="260.613" y1="282.91" x2="251.477" y2="305.225" transform="matrix(0.8386710286140442, -0.544638991355896, 0.544638991355896, 0.8386710286140442, -336.30639595590213, -34.83714732185037)"/>
    </symbol>
    <marker id="marker-0" viewBox="0 0 12.641 9.03" overflow="visible" orient="auto" refX="6.32" refY="4.51">
      <polyline style="fill: none; stroke-miterlimit: 2; stroke-width: 5px; stroke: rgb(105, 105, 105);" points="2 3.775 10.625 0 14.641 9.03" transform="matrix(-0.390731, -0.920505, 0.920505, -0.390731, 7.415497, 13.938211)"/>
    </marker>
    <symbol id="symbol-2" viewBox="0 0 75.9891 137.2121">
      <circle style="stroke-width: 5px; stroke: rgb(102, 102, 102); fill: rgb(255, 255, 255);" cx="243.248" cy="327.315" r="21.703" transform="matrix(0.8386710286140442, -0.544638991355896, 0.544638991355896, 0.8386710286140442, -336.3063959559022, -34.83714732185041)"/>
      <circle style="stroke-width: 5px; stroke: rgb(102, 102, 102); fill: rgb(255, 255, 255);" cx="271.904" cy="253.912" r="21.703" transform="matrix(0.8386710286140442, -0.544638991355896, 0.544638991355896, 0.8386710286140442, -336.3063959559022, -34.83714732185041)"/>
      <line style="stroke-width: 5px; marker-start: url(#marker-0); stroke: rgb(102, 102, 102); fill: rgb(255, 255, 255);" x1="222.038" y1="264.931" x2="212.902" y2="287.246" transform="matrix(0.8386710286140442, -0.544638991355896, 0.544638991355896, 0.8386710286140442, -294.1620401819764, -40.768025007397284)"/>
    </symbol>
  </defs>
  <circle cx="84.474" cy="48.736" r="31.232" style="fill: rgb(250, 250, 250); stroke: rgb(182, 182, 182);" transform="matrix(0.858973, -0.512021, 0.512021, 0.858973, 39.924805, 178.975922)"/>
  <use width="75.98909759521484" height="137.21209716796875" transform="matrix(0.12623700499534607, -0.07524801790714264, 0.07524801790714264, 0.12623700499534607, 112.99826049804688, 173.89157104492188)" style="stroke-width: 23.94px; stroke: rgb(166, 172, 148);" xlink:href="#symbol-1"/>
  <use width="75.98909759521484" height="137.21209716796875" transform="matrix(0.14294199645519257, 0.03414200246334076, -0.03414200246334076, 0.14294199645519257, 116.08721923828125, 158.41683959960938)" style="stroke-width: 23.94px; stroke: rgb(166, 172, 148);" xlink:href="#symbol-1"/>
  <use width="75.98909759521484" height="137.21209716796875" transform="matrix(-0.12428200244903564, 0.07408300787210464, 0.07524801790714264, 0.12623700499534607, 151.26641845703125, 179.33050537109375)" style="stroke-width: 23.94px; stroke: rgb(166, 172, 148);" xlink:href="#symbol-1"/>
  <use width="75.98909759521484" height="137.21209716796875" transform="matrix(-0.10164900869131088, 0.10452199727296829, 0.10296599566936493, 0.10331099480390549, 143.33184814453125, 169.49383544921875)" style="stroke-width: 23.94px; stroke: rgb(166, 172, 148);" xlink:href="#symbol-1"/>
  <use width="75.98909759521484" height="137.21209716796875" transform="matrix(0.03154199942946434, -0.1435379981994629, 0.1435379981994629, 0.03154199942946434, 121.673095703125, 187.35064697265625)" style="stroke-width: 23.94px; stroke: rgb(166, 172, 148);" xlink:href="#symbol-1"/>
  <use width="75.98909759521484" height="137.21209716796875" transform="matrix(-0.1457509845495224, 0.0037609999999403954, 0.0014880000380799174, 0.1458529829978943, 149.74148559570312, 159.86602783203125)" style="stroke-width: 23.94px; stroke: rgb(166, 172, 148);" xlink:href="#symbol-1"/>
  <use width="75.98909759521484" height="137.21209716796875" transform="matrix(0.015457000583410263, 0.14497800171375275, 0.1452620029449463, -0.013199000619351864, 133.5857696533203, 180.1324462890625)" style="stroke-width: 23.94px; stroke: rgb(166, 172, 148);" xlink:href="#symbol-1"/>
  <use width="75.98909759521484" height="137.21209716796875" transform="matrix(-0.14218300580978394, 0.020945001393556595, 0.02141900174319744, 0.1453939974308014, 165.08578491210938, 162.01190185546875)" xlink:href="#symbol-2"/>
  <use width="75.98909759521484" height="137.21209716796875" transform="matrix(0.14080500602722168, -0.04209500178694725, 0.04209500178694725, 0.14080500602722168, 110.33769226074219, 184.19642639160156)" xlink:href="#symbol-2"/>
  <use width="75.98909759521484" height="137.21209716796875" transform="matrix(-0.132409006357193, -0.058329008519649506, -0.05924700200557709, 0.1344909965991974, 165.97166442871094, 184.46878051757812)" style="stroke-width: 23.94px; stroke: rgb(166, 172, 148);" xlink:href="#symbol-1"/>
  <circle cx="85.497" cy="113.202" r="30.813" style="fill: rgb(250, 250, 250); stroke: rgb(182, 182, 182);" transform="matrix(1, 0.000025, -0.000025, 1, 85.8321, 119.232933)"/>
  <use width="75.98909759521484" height="137.21209716796875" transform="matrix(-0.12428200244903564, 0.07408300787210464, 0.07524801790714264, 0.12623700499534607, 185.7711639404297, 225.58978271484375)" style="stroke-width: 23.94px; stroke: rgb(166, 172, 148);" xlink:href="#symbol-1"/>
  <use width="75.98909759521484" height="137.21209716796875" transform="matrix(-0.14579199254512787, -0.0014420000370591879, -0.003719000145792961, 0.14581298828125, 191.39111328125, 216.04696655273438)" style="stroke-width: 23.94px; stroke: rgb(166, 172, 148);" xlink:href="#symbol-1"/>
  <use width="75.98909759521484" height="137.21209716796875" transform="matrix(0.13658298552036285, -0.054252006113529205, 0.054252006113529205, 0.13658298552036285, 168.967529296875, 237.53097534179688)" style="stroke-width: 23.94px; stroke: rgb(166, 172, 148);" xlink:href="#symbol-1"/>
  <use width="75.98909759521484" height="137.21209716796875" transform="matrix(0.03154199942946434, -0.1435379981994629, 0.1435379981994629, 0.03154199942946434, 157.60821533203125, 243.27493286132812)" style="stroke-width: 23.94px; stroke: rgb(166, 172, 148);" xlink:href="#symbol-1"/>
  <use width="75.98909759521484" height="137.21209716796875" transform="matrix(-0.058222007006406784, 0.13367000222206116, 0.13280099630355835, 0.060325004160404205, 175.31387329101562, 207.68211364746094)" style="stroke-width: 23.94px; stroke: rgb(166, 172, 148);" xlink:href="#symbol-1"/>
  <use width="75.98909759521484" height="137.21209716796875" transform="matrix(0.03992000222206116, 0.1402280032634735, 0.14089199900627136, -0.03774299845099449, 167.26165771484375, 228.95834350585938)" style="stroke-width: 23.94px; stroke: rgb(166, 172, 148);" xlink:href="#symbol-1"/>
  <use width="75.98909759521484" height="137.21209716796875" transform="matrix(0.09654400497674942, -0.11080499738454819, 0.11080499738454819, 0.09654400497674942, 157.11746215820312, 249.3712158203125)" style="stroke-width: 23.94px; stroke: rgb(166, 172, 148);" xlink:href="#symbol-1"/>
  <use width="75.98909759521484" height="137.21209716796875" transform="matrix(-0.01153500098735094, -0.14650999009609222, 0.14650999009609222, -0.01153500098735094, 158.2118377685547, 262.6355285644531)" style="stroke-width: 23.94px; stroke: rgb(166, 172, 148);" xlink:href="#symbol-1"/>
  <line style="marker-start: url(#marker-0); fill: rgb(255, 246, 246); stroke: rgb(176, 173, 173); stroke-width: 0.7px;" x1="155.318" y1="207.707" x2="141.927" y2="227.547" transform="matrix(0.441529, -0.897247, 0.897247, 0.441529, -112.26381, 254.889472)"/>
  <line style="marker-start: url(#marker-0); fill: rgb(255, 246, 246); stroke: rgb(176, 173, 173); stroke-width: 0.7px;" x1="158.77" y1="198.006" x2="144.414" y2="214.018" transform="matrix(0.441529, -0.897247, 0.897247, 0.441529, -100.183905, 251.067211)"/>
  <line style="marker-start: url(#marker-0); fill: rgb(255, 246, 246); stroke: rgb(176, 173, 173); stroke-width: 0.7px;" x1="167.858" y1="202.177" x2="153.051" y2="219.971" transform="matrix(0.441529, -0.897247, 0.897247, 0.441529, -99.776319, 261.846037)"/>
  <line style="marker-start: url(#marker-0); stroke: rgb(102, 102, 102); fill: rgb(255, 255, 255); stroke-width: 0.7px;" x1="145.321" y1="197.972" x2="140.312" y2="198.118" transform="matrix(0.441529, -0.897247, 0.897247, 0.441529, -97.936401, 238.744075)"/>
  <circle cx="78.916" cy="100.312" r="11.65" style="fill: none; stroke: rgb(182, 182, 182);" transform="matrix(0.858973, -0.512021, 0.512021, 0.858973, 39.924805, 178.975922)"/>
  <line style="marker-start: url(#marker-0); stroke: rgb(102, 102, 102); stroke-width: 0.7px;" x1="160.658" y1="233.99" x2="158.797" y2="237.477" transform="matrix(0.441529, -0.897247, 0.897247, 0.441529, -122.307996, 274.965362)"/>
  <circle style="stroke: rgb(102, 102, 102); fill: rgb(139, 139, 139); stroke-width: 0.7px;" cx="34.988" cy="47.08" r="3.122" transform="matrix(0.441529, -0.897247, 0.897247, 0.441529, 115.551193, 265.279236)"/>
  <circle style="stroke: rgb(102, 102, 102); fill: rgb(139, 139, 139); stroke-width: 0.7px;" cx="34.988" cy="47.08" r="3.122" transform="matrix(0.578379, -0.815768, 0.815768, 0.578379, 122.341049, 250.877563)"/>
  <circle style="stroke: rgb(102, 102, 102); fill: rgb(139, 139, 139); stroke-width: 0.7px;" cx="34.988" cy="47.08" r="3.122" transform="matrix(0.441529, -0.897247, 0.897247, 0.441529, 130.34201, 252.975189)"/>
  <circle style="stroke: rgb(102, 102, 102); fill: rgb(139, 139, 139); stroke-width: 0.7px;" cx="34.988" cy="47.08" r="3.122" transform="matrix(0.441529, -0.897247, 0.897247, 0.441529, 82.694794, 213.615372)"/>
  <circle style="stroke: rgb(102, 102, 102); fill: rgb(139, 139, 139); stroke-width: 0.7px;" cx="34.988" cy="47.08" r="3.122" transform="matrix(0.441529, -0.897247, 0.897247, 0.441529, 88.120255, 202.195419)"/>
  <circle style="stroke: rgb(102, 102, 102); fill: rgb(139, 139, 139); stroke-width: 0.7px;" cx="34.988" cy="47.08" r="3.122" transform="matrix(0.441529, -0.897247, 0.897247, 0.441529, 95.841446, 206.904053)"/>
  <line style="marker-start: url(#marker-0); stroke: rgb(102, 102, 102); fill: rgb(255, 255, 255); stroke-width: 0.7px;" x1="149.408" y1="202.53" x2="143.732" y2="198.168" transform="matrix(0.441529, -0.897247, 0.897247, 0.441529, -97.907437, 243.398611)"/>
  <use width="75.98909759521484" height="137.21209716796875" transform="matrix(0.14388900995254517, 0.029899002984166145, -0.029899002984166145, 0.14388900995254517, 192.46002197265625, 225.33810424804688)" xlink:href="#symbol-2"/>
  <use width="75.98909759521484" height="137.21209716796875" transform="matrix(0.14294199645519257, 0.03414200246334076, -0.03414200246334076, 0.14294199645519257, 153.39175415039062, 213.52481079101562)" style="stroke-width: 23.94px; stroke: rgb(166, 172, 148);" xlink:href="#symbol-1"/>
  <use width="75.98909759521484" height="137.21209716796875" transform="matrix(0.048667002469301224, 0.13867199420928955, -0.13867199420928955, 0.048667002469301224, 168.87564086914062, 218.9773712158203)" style="stroke-width: 23.94px; stroke: rgb(166, 172, 148);" xlink:href="#symbol-1"/>
  <circle cx="84.474" cy="48.736" r="31.232" style="fill: rgb(250, 250, 250); stroke: rgb(182, 182, 182);" transform="matrix(0.884218, 0.467075, -0.467075, 0.884218, 150.083572, 93.123482)"/>
  <use width="75.98909759521484" height="137.21209716796875" transform="matrix(0.1299470067024231, 0.0686430111527443, -0.0686430111527443, 0.1299470067024231, 192.45030212402344, 152.87832641601562)" style="stroke-width: 23.94px; stroke: rgb(166, 172, 148);" xlink:href="#symbol-1"/>
  <use width="75.98909759521484" height="137.21209716796875" transform="matrix(-0.04482700303196907, 0.13996000587940216, -0.13996000587940216, -0.04482700303196907, 211.47605895996094, 157.11483764648438)" style="stroke-width: 23.94px; stroke: rgb(166, 172, 148);" xlink:href="#symbol-1"/>
  <use width="75.98909759521484" height="137.21209716796875" transform="matrix(-0.1279350072145462, -0.06757999956607819, -0.0686430111527443, 0.1299470067024231, 207.71923828125, 188.38739013671875)" style="stroke-width: 23.94px; stroke: rgb(166, 172, 148);" xlink:href="#symbol-1"/>
  <use width="75.98909759521484" height="137.21209716796875" transform="matrix(-0.14215099811553955, -0.032412998378276825, -0.034640997648239136, 0.14168600738048553, 211.9903106689453, 176.4930419921875)" style="stroke-width: 23.94px; stroke: rgb(166, 172, 148);" xlink:href="#symbol-1"/>
  <use width="75.98909759521484" height="137.21209716796875" transform="matrix(0.1389870047569275, -0.04775700345635414, 0.04775700345635414, 0.1389870047569275, 185.4711151123047, 167.289794921875)" style="stroke-width: 23.94px; stroke: rgb(166, 172, 148);" xlink:href="#symbol-1"/>
  <use width="75.98909759521484" height="137.21209716796875" transform="matrix(-0.07905501127243042, -0.12250600010156631, -0.12377599626779556, 0.07716801017522812, 223.54727172851562, 176.95651245117188)" style="stroke-width: 23.94px; stroke: rgb(166, 172, 148);" xlink:href="#symbol-1"/>
  <use width="75.98909759521484" height="137.21209716796875" transform="matrix(-0.11575999855995178, 0.08864101022481918, 0.08686099946498871, 0.11717700213193893, 197.83401489257812, 173.7064208984375)" style="stroke-width: 23.94px; stroke: rgb(166, 172, 148);" xlink:href="#symbol-1"/>
  <use width="75.98909759521484" height="137.21209716796875" transform="matrix(0.0913819968700409, 0.1150980070233345, -0.1150980070233345, 0.0913819968700409, 189.7513885498047, 176.30661010742188)" style="stroke-width: 23.94px; stroke: rgb(166, 172, 148);" xlink:href="#symbol-1"/>
  <use width="75.98909759521484" height="137.21209716796875" transform="matrix(0.10921701043844223, 0.09833400696516037, -0.09833400696516037, 0.10921701043844223, 185.19906616210938, 155.0434112548828)" xlink:href="#symbol-2"/>
  <use width="75.98909759521484" height="137.21209716796875" transform="matrix(0.10921701043844223, 0.09833400696516037, -0.09833400696516037, 0.10921701043844223, 191.12254333496094, 144.97084045410156)" xlink:href="#symbol-2"/>
  <use width="75.98909759521484" height="137.21209716796875" transform="matrix(-0.09187400341033936, -0.1105170026421547, -0.11301299929618835, 0.09394900500774384, 233.40386962890625, 178.3234100341797)" xlink:href="#symbol-2"/>
  <use width="75.98909759521484" height="137.21209716796875" transform="matrix(0.1461620032787323, 0.015323000960052013, -0.015323000960052013, 0.1461620032787323, 176.5938720703125, 175.05282592773438)" style="stroke-width: 23.94px; stroke: rgb(166, 172, 148);" xlink:href="#symbol-1"/>
  <circle style="stroke: rgb(102, 102, 102); fill: rgb(139, 139, 139); stroke-width: 0.7px;" cx="34.988" cy="47.08" r="3.122" transform="matrix(0.995955, -0.089857, 0.089857, 0.995955, 142.759537, 147.671829)"/>
  <circle style="stroke: rgb(102, 102, 102); fill: rgb(139, 139, 139); stroke-width: 0.7px;" cx="34.988" cy="47.08" r="3.122" transform="matrix(0.995955, -0.089857, 0.089857, 0.995955, 155.33168, 155.405975)"/>
  <line style="marker-start: url(#marker-0); stroke: rgb(102, 102, 102); fill: rgb(255, 255, 255); stroke-width: 0.7px;" x1="191.76" y1="198.027" x2="186.084" y2="193.665" transform="matrix(-0.997433, 0.071603, -0.071603, -0.997433, 391.38224, 377.6619)"/>
  <line style="marker-start: url(#marker-0); fill: rgb(255, 246, 246); stroke: rgb(176, 173, 173); stroke-width: 0.7px;" x1="180.613" y1="195.973" x2="178.092" y2="209.926" transform="matrix(0.999978, -0.006681, 0.006681, 0.999978, -1.351903, 1.202783)"/>
  <line style="marker-start: url(#marker-0); fill: rgb(255, 246, 246); stroke: rgb(176, 173, 173); stroke-width: 0.7px;" x1="192.822" y1="203.32" x2="188.053" y2="216.909" transform="matrix(0.999978, -0.006681, 0.006681, 0.999978, -1.399524, 1.277002)"/>
  <circle cx="78.916" cy="100.312" r="11.65" style="fill: none; stroke: rgb(182, 182, 182); stroke-width: 0.7px;" transform="matrix(0.858973, -0.512021, 0.512021, 0.858973, 62.492119, 170.603958)"/>
  <use width="75.98909759521484" height="137.21209716796875" transform="matrix(0.11440400034189224, -0.09225000441074371, 0.09225000441074371, 0.11440400034189224, 203.11341857910156, 186.7093505859375)" xlink:href="#symbol-2"/>
  <use width="75.98909759521484" height="137.21209716796875" transform="matrix(0.14618299901485443, 0.015115000307559967, -0.015115000307559967, 0.14618299901485443, 213.27267456054688, 178.27993774414062)" xlink:href="#symbol-2"/>
  <use width="75.98909759521484" height="137.21209716796875" transform="matrix(0.035256002098321915, 0.14267200231552124, -0.14267200231552124, 0.035256002098321915, 221.52456665039062, 189.20358276367188)" xlink:href="#symbol-2"/>
  <use width="75.98909759521484" height="137.21209716796875" transform="matrix(0.1342569887638092, 0.05977700278162956, -0.05977700278162956, 0.1342569887638092, 197.28781127929688, 162.6673126220703)" style="stroke-width: 23.94px; stroke: rgb(166, 172, 148);" xlink:href="#symbol-1"/>
  <use width="75.98909759521484" height="137.21209716796875" transform="matrix(0.13964898884296417, -0.0457880012691021, 0.0457880012691021, 0.13964898884296417, 142.44271850585938, 239.25350952148438)" xlink:href="#symbol-2"/>
  <use width="75.98909759521484" height="137.21209716796875" transform="matrix(0.13965098559856415, 0.045777998864650726, -0.045777998864650726, 0.13965098559856415, 152.32325744628906, 235.12918090820312)" xlink:href="#symbol-2"/>
  <circle cx="84.474" cy="48.736" r="31.232" style="fill: rgb(250, 250, 250); stroke: rgb(182, 182, 182);" transform="matrix(1, -0.000087, 0.000087, 1, 161.560989, 2.336987)"/>
  <use width="75.98909759521484" height="137.21209716796875" transform="matrix(0.13968700170516968, 0.04566999897360802, -0.04566999897360802, 0.13968700170516968, 232.7576904296875, 30.217952728271484)" style="stroke-width: 23.94px; stroke: rgb(166, 172, 148);" xlink:href="#symbol-1"/>
  <use width="75.98909759521484" height="137.21209716796875" transform="matrix(0.06823001056909561, 0.1301650106906891, -0.1301650106906891, 0.06823001056909561, 246.449951171875, 22.373817443847656)" style="stroke-width: 23.94px; stroke: rgb(166, 172, 148);" xlink:href="#symbol-1"/>
  <use width="75.98909759521484" height="137.21209716796875" transform="matrix(-0.13752298057079315, -0.04496300220489502, -0.04566999897360802, 0.13968700170516968, 253.8135986328125, 62.632179260253906)" style="stroke-width: 23.94px; stroke: rgb(166, 172, 148);" xlink:href="#symbol-1"/>
  <use width="75.98909759521484" height="137.21209716796875" transform="matrix(-0.14558500051498413, -0.007898000068962574, -0.010173000395298004, 0.14550499618053436, 256.0109558105469, 50.186744689941406)" style="stroke-width: 23.94px; stroke: rgb(166, 172, 148);" xlink:href="#symbol-1"/>
  <use width="75.98909759521484" height="137.21209716796875" transform="matrix(0.1289050132036209, -0.07058200240135193, 0.07058200240135193, 0.1289050132036209, 228.31704711914062, 45.602386474609375)" style="stroke-width: 23.94px; stroke: rgb(166, 172, 148);" xlink:href="#symbol-1"/>
  <use width="75.98909759521484" height="137.21209716796875" transform="matrix(-0.09864000976085663, -0.10736599564552307, -0.10893701016902924, 0.09699500352144241, 267.4797668457031, 48.68843078613281)" style="stroke-width: 23.94px; stroke: rgb(166, 172, 148);" xlink:href="#symbol-1"/>
  <use width="75.98909759521484" height="137.21209716796875" transform="matrix(-0.09909600764513016, 0.10694700479507446, 0.10543200373649597, 0.1007940024137497, 241.5872802734375, 49.835105895996094)" style="stroke-width: 23.94px; stroke: rgb(166, 172, 148);" xlink:href="#symbol-1"/>
  <use width="75.98909759521484" height="137.21209716796875" transform="matrix(0.1371069997549057, 0.05291500315070152, -0.05291500315070152, 0.1371069997549057, 228.18902587890625, 52.97846221923828)" style="stroke-width: 23.94px; stroke: rgb(166, 172, 148);" xlink:href="#symbol-1"/>
  <use width="75.98909759521484" height="137.21209716796875" transform="matrix(-0.07251400500535965, 0.12782800197601318, -0.12782800197601318, -0.07251400500535965, 252.51885986328125, 37.626670837402344)" style="stroke-width: 23.94px; stroke: rgb(166, 172, 148);" xlink:href="#symbol-1"/>
  <use width="75.98909759521484" height="137.21209716796875" transform="matrix(0.1242780089378357, 0.07844100892543793, -0.07844100892543793, 0.1242780089378357, 225.97723388671875, 33.578521728515625)" xlink:href="#symbol-2"/>
  <use width="75.98909759521484" height="137.21209716796875" transform="matrix(-0.10924600809812546, -0.09338199347257614, -0.09549100697040558, 0.1117129996418953, 275.9488525390625, 61.66252899169922)" xlink:href="#symbol-2"/>
  <use width="75.98909759521484" height="137.21209716796875" transform="matrix(0.1242780089378357, 0.07844100892543793, -0.07844100892543793, 0.1242780089378357, 230.111328125, 22.64905548095703)" xlink:href="#symbol-2"/>
  <use width="75.98909759521484" height="137.21209716796875" transform="matrix(-0.10924600809812546, -0.09338199347257614, -0.09549100697040558, 0.1117129996418953, 277.425537109375, 48.368194580078125)" xlink:href="#symbol-2"/>
  <use width="75.98909759521484" height="137.21209716796875" transform="matrix(0.13376900553703308, -0.06086000055074692, 0.06086000055074692, 0.13376900553703308, 216.09527587890625, 58.53544616699219)" style="stroke-width: 23.94px; stroke: rgb(166, 172, 148);" xlink:href="#symbol-1"/>
  <use width="75.98909759521484" height="137.21209716796875" transform="matrix(-0.04308000206947327, -0.1381250023841858, -0.1402980089187622, 0.04375600442290306, 259.6075439453125, 77.0916519165039)" style="stroke-width: 23.94px; stroke: rgb(166, 172, 148);" xlink:href="#symbol-1"/>
  <use width="75.98909759521484" height="137.21209716796875" transform="matrix(-0.14558500051498413, -0.007898000068962574, -0.010173000395298004, 0.14550499618053436, 261.8604431152344, 58.920555114746094)" style="stroke-width: 23.94px; stroke: rgb(166, 172, 148);" xlink:href="#symbol-1"/>
  <use width="75.98909759521484" height="137.21209716796875" transform="matrix(0.11961900442838669, -0.08538000285625458, 0.08538000285625458, 0.11961900442838669, 246.2451171875, 31.16702651977539)" xlink:href="#symbol-2"/>
  <use width="75.98909759521484" height="137.21209716796875" transform="matrix(0.14694899320602417, 0.0020110001787543297, -0.0020110001787543297, 0.14694899320602417, 254.44439697265625, 24.281734466552734)" xlink:href="#symbol-2"/>
  <circle cx="85.497" cy="113.202" r="30.813" style="fill: rgb(250, 250, 250); stroke: rgb(182, 182, 182);" transform="matrix(0.950488, 0.31076, -0.31076, 0.950488, 180.892853, -21.508461)"/>
  <use width="75.98909759521484" height="137.21209716796875" transform="matrix(-0.13752298057079315, -0.04496300220489502, -0.04566999897360802, 0.13968700170516968, 241.63333129882812, 119.04263305664062)" style="stroke-width: 23.94px; stroke: rgb(166, 172, 148);" xlink:href="#symbol-1"/>
  <use width="75.98909759521484" height="137.21209716796875" transform="matrix(-0.09474700689315796, -0.11081799864768982, -0.11232999712228775, 0.09304400533437729, 252.51898193359375, 117.00509643554688)" style="stroke-width: 23.94px; stroke: rgb(166, 172, 148);" xlink:href="#symbol-1"/>
  <use width="75.98909759521484" height="137.21209716796875" transform="matrix(0.13066399097442627, 0.067268006503582, -0.067268006503582, 0.13066399097442627, 221.58889770507812, 114.22860717773438)" style="stroke-width: 23.94px; stroke: rgb(166, 172, 148);" xlink:href="#symbol-1"/>
  <use width="75.98909759521484" height="137.21209716796875" transform="matrix(0.1289050132036209, -0.07058200240135193, 0.07058200240135193, 0.1289050132036209, 209.79342651367188, 109.44384765625)" style="stroke-width: 23.94px; stroke: rgb(166, 172, 148);" xlink:href="#symbol-1"/>
  <use width="75.98909759521484" height="137.21209716796875" transform="matrix(-0.13900500535964966, 0.043988000601530075, 0.04183200001716614, 0.1397329866886139, 248.2547607421875, 99.39076232910156)" style="stroke-width: 23.94px; stroke: rgb(166, 172, 148);" xlink:href="#symbol-1"/>
  <use width="75.98909759521484" height="137.21209716796875" transform="matrix(-0.0794370174407959, 0.12225900590419769, 0.12105600535869598, 0.08136800676584244, 226.92794799804688, 107.30802917480469)" style="stroke-width: 23.94px; stroke: rgb(166, 172, 148);" xlink:href="#symbol-1"/>
  <use width="75.98909759521484" height="137.21209716796875" transform="matrix(0.14696399867534637, -0.00007900000491645187, 0.00007900000491645187, 0.14696399867534637, 204.87664794921875, 113.08126831054688)" style="stroke-width: 23.94px; stroke: rgb(166, 172, 148);" xlink:href="#symbol-1"/>
  <use width="75.98909759521484" height="137.21209716796875" transform="matrix(0.1028279960155487, -0.10499800741672516, 0.10499800741672516, 0.1028279960155487, 195.5999755859375, 122.625)" style="stroke-width: 23.94px; stroke: rgb(166, 172, 148);" xlink:href="#symbol-1"/>
  <line style="marker-start: url(#marker-0); fill: rgb(255, 246, 246); stroke: rgb(176, 173, 173); stroke-width: 0.7px;" x1="229.911" y1="75.893" x2="216.52" y2="95.733" transform="matrix(0.966399, -0.257047, 0.257047, 0.966399, -14.557687, 60.260271)"/>
  <line style="marker-start: url(#marker-0); fill: rgb(255, 246, 246); stroke: rgb(176, 173, 173); stroke-width: 0.7px;" x1="241.099" y1="72.409" x2="226.743" y2="88.421" transform="matrix(0.966399, -0.257047, 0.257047, 0.966399, -12.810431, 62.830708)"/>
  <line style="marker-start: url(#marker-0); fill: rgb(255, 246, 246); stroke: rgb(176, 173, 173); stroke-width: 0.7px;" x1="243.334" y1="81.525" x2="228.528" y2="99.319" transform="matrix(0.966399, -0.257047, 0.257047, 0.966399, -15.315162, 63.683619)"/>
  <line style="marker-start: url(#marker-0); stroke: rgb(102, 102, 102); fill: rgb(255, 255, 255); stroke-width: 0.7px;" x1="236.661" y1="68.493" x2="231.652" y2="68.639" transform="matrix(0.966399, -0.257047, 0.257047, 0.966399, -9.756769, 62.493103)"/>
  <circle cx="78.916" cy="100.312" r="11.65" style="fill: none; stroke: rgb(182, 182, 182);" transform="matrix(0.950488, 0.31076, -0.31076, 0.950488, 180.892853, -21.508461)"/>
  <line style="marker-start: url(#marker-0); stroke: rgb(102, 102, 102); stroke-width: 0.7px;" x1="217.801" y1="104.34" x2="215.939" y2="107.827" transform="matrix(0.966399, -0.257047, 0.257047, 0.966399, -19.981373, 59.310289)"/>
  <circle style="stroke: rgb(102, 102, 102); fill: rgb(139, 139, 139); stroke-width: 0.7px;" cx="34.988" cy="47.08" r="3.122" transform="matrix(0.966399, -0.257047, 0.257047, 0.966399, 165.565613, 92.213524)"/>
  <circle style="stroke: rgb(102, 102, 102); fill: rgb(139, 139, 139); stroke-width: 0.7px;" cx="34.988" cy="47.08" r="3.122" transform="matrix(0.994951, -0.100358, 0.100358, 0.994951, 180.881943, 87.863762)"/>
  <circle style="stroke: rgb(102, 102, 102); fill: rgb(139, 139, 139); stroke-width: 0.7px;" cx="34.988" cy="47.08" r="3.122" transform="matrix(0.966399, -0.257047, 0.257047, 0.966399, 184.560394, 95.272156)"/>
  <circle style="stroke: rgb(102, 102, 102); fill: rgb(139, 139, 139); stroke-width: 0.7px;" cx="34.988" cy="47.08" r="3.122" transform="matrix(0.966399, -0.257047, 0.257047, 0.966399, 182.902313, 33.492683)"/>
  <circle style="stroke: rgb(102, 102, 102); fill: rgb(139, 139, 139); stroke-width: 0.7px;" cx="34.988" cy="47.08" r="3.122" transform="matrix(0.966399, -0.257047, 0.257047, 0.966399, 195.074738, 30.074677)"/>
  <circle style="stroke: rgb(102, 102, 102); fill: rgb(139, 139, 139); stroke-width: 0.7px;" cx="34.988" cy="47.08" r="3.122" transform="matrix(0.966399, -0.257047, 0.257047, 0.966399, 196.601654, 38.988518)"/>
  <line style="marker-start: url(#marker-0); stroke: rgb(102, 102, 102); fill: rgb(255, 255, 255); stroke-width: 0.7px;" x1="237.725" y1="75.09" x2="232.049" y2="70.728" transform="matrix(0.966399, -0.257047, 0.257047, 0.966399, -10.848577, 62.826807)"/>
  <use width="75.98909759521484" height="137.21209716796875" transform="matrix(0.07205000519752502, 0.12808901071548462, -0.12808901071548462, 0.07205000519752502, 246.21975708007812, 123.91793823242188)" xlink:href="#symbol-2"/>
  <use width="75.98909759521484" height="137.21209716796875" transform="matrix(0.06823001056909561, 0.1301650106906891, -0.1301650106906891, 0.06823001056909561, 229.441650390625, 86.71070861816406)" style="stroke-width: 23.94px; stroke: rgb(166, 172, 148);" xlink:href="#symbol-1"/>
  <use width="75.98909759521484" height="137.21209716796875" transform="matrix(-0.07251400500535965, 0.12782800197601318, -0.12782800197601318, -0.07251400500535965, 235.51055908203125, 101.96357727050781)" style="stroke-width: 23.94px; stroke: rgb(166, 172, 148);" xlink:href="#symbol-1"/>
  <use width="75.98909759521484" height="137.21209716796875" transform="matrix(0.04784499853849411, 0.13895799219608307, -0.13895799219608307, 0.04784499853849411, 263.6380615234375, 34.42549133300781)" xlink:href="#symbol-2"/>
  <circle cx="84.474" cy="48.736" r="31.232" style="fill: rgb(250, 250, 250); stroke: rgb(182, 182, 182);" transform="matrix(0.229231, 0.973372, -0.973372, 0.229231, 318.002075, 5.074497)"/>
  <use width="75.98909759521484" height="137.21209716796875" transform="matrix(0.033688999712467194, 0.14305000007152557, -0.14305000007152557, 0.033688999712467194, 300.81939697265625, 76.28079223632812)" style="stroke-width: 23.94px; stroke: rgb(166, 172, 148);" xlink:href="#symbol-1"/>
  <use width="75.98909759521484" height="137.21209716796875" transform="matrix(-0.07564901560544968, 0.12599800527095795, -0.12599800527095795, -0.07564901560544968, 314.642822265625, 83.8913803100586)" style="stroke-width: 23.94px; stroke: rgb(166, 172, 148);" xlink:href="#symbol-1"/>
  <use width="75.98909759521484" height="137.21209716796875" transform="matrix(-0.033167000859975815, -0.1408339887857437, -0.14305000007152557, 0.033688999712467194, 284.0963134765625, 111.12863159179688)" style="stroke-width: 23.94px; stroke: rgb(166, 172, 148);" xlink:href="#symbol-1"/>
  <use width="75.98909759521484" height="137.21209716796875" transform="matrix(-0.06901400536298752, -0.12843100726604462, -0.12954600155353546, 0.06702899932861328, 295.867431640625, 106.52883911132812)" style="stroke-width: 23.94px; stroke: rgb(166, 172, 148);" xlink:href="#symbol-1"/>
  <use width="75.98909759521484" height="137.21209716796875" transform="matrix(0.12735000252723694, 0.0733490064740181, -0.0733490064740181, 0.12735000252723694, 285.3712158203125, 80.49429321289062)" style="stroke-width: 23.94px; stroke: rgb(166, 172, 148);" xlink:href="#symbol-1"/>
  <use width="75.98909759521484" height="137.21209716796875" transform="matrix(0.04035600647330284, -0.14010299742221832, -0.1395149976015091, -0.04255300387740135, 303.1148681640625, 115.54287719726562)" style="stroke-width: 23.94px; stroke: rgb(166, 172, 148);" xlink:href="#symbol-1"/>
  <use width="75.98909759521484" height="137.21209716796875" transform="matrix(-0.1428920030593872, -0.028971001505851746, -0.031209001317620277, 0.14248301088809967, 288.662109375, 94.02886962890625)" style="stroke-width: 23.94px; stroke: rgb(166, 172, 148);" xlink:href="#symbol-1"/>
  <use width="75.98909759521484" height="137.21209716796875" transform="matrix(-0.026671001687645912, 0.14452297985553741, -0.14452297985553741, -0.026671001687645912, 281.3896789550781, 89.64694213867188)" style="stroke-width: 23.94px; stroke: rgb(166, 172, 148);" xlink:href="#symbol-1"/>
  <use width="75.98909759521484" height="137.21209716796875" transform="matrix(-0.0023140001576393843, 0.14694398641586304, -0.14694398641586304, -0.0023140001576393843, 294.42132568359375, 72.23939514160156)" xlink:href="#symbol-2"/>
  <use width="75.98909759521484" height="137.21209716796875" transform="matrix(-0.0023140001576393843, 0.14694398641586304, -0.14694398641586304, -0.0023140001576393843, 305.90576171875, 70.08236694335938)" xlink:href="#symbol-2"/>
  <use width="75.98909759521484" height="137.21209716796875" transform="matrix(0.022895000874996185, -0.1418830007314682, -0.14508700370788574, -0.023412002250552177, 308.56378173828125, 123.86935424804688)" xlink:href="#symbol-2"/>
  <use width="75.98909759521484" height="137.21209716796875" transform="matrix(0.08452900499105453, 0.12022100389003754, -0.12022100389003754, 0.08452900499105453, 273.68572998046875, 78.90721893310547)" style="stroke-width: 23.94px; stroke: rgb(166, 172, 148);" xlink:href="#symbol-1"/>
  <use width="75.98909759521484" height="137.21209716796875" transform="matrix(0.13515499234199524, 0.05771900340914726, -0.05771900340914726, 0.13515499234199524, 307.0273742675781, 88.29214477539062)" xlink:href="#symbol-2"/>
  <use width="75.98909759521484" height="137.21209716796875" transform="matrix(0.07475000619888306, 0.12653298676013947, -0.12653298676013947, 0.07475000619888306, 317.17364501953125, 91.71099090576172)" xlink:href="#symbol-2"/>
  <circle style="stroke: rgb(102, 102, 102); fill: rgb(139, 139, 139); stroke-width: 0.7px;" cx="34.988" cy="47.08" r="3.122" transform="matrix(0.722385, 0.691491, -0.691491, 0.722385, 272.079895, 35.411217)"/>
  <circle style="stroke: rgb(102, 102, 102); fill: rgb(139, 139, 139); stroke-width: 0.7px;" cx="34.988" cy="47.08" r="3.122" transform="matrix(0.722385, 0.691491, -0.691491, 0.722385, 274.515442, 49.969521)"/>
  <line style="marker-start: url(#marker-0); stroke: rgb(102, 102, 102); fill: rgb(255, 255, 255); stroke-width: 0.7px;" x1="268.958" y1="104.047" x2="263.282" y2="99.685" transform="matrix(-0.709601, -0.704604, 0.704604, -0.709601, 383.183828, 361.659385)"/>
  <use width="75.98909759521484" height="137.21209716796875" transform="matrix(-0.09376499801874161, 0.11316599696874619, -0.11316599696874619, -0.09376499801874161, 313.2955322265625, 104.84036254882812)" xlink:href="#symbol-2"/>
  <line style="marker-start: url(#marker-0); fill: rgb(255, 246, 246); stroke: rgb(176, 173, 173); stroke-width: 0.7px;" x1="255.737" y1="92.347" x2="253.216" y2="106.3" transform="matrix(0.662348, 0.749196, -0.749196, 0.662348, 160.337283, -157.116073)"/>
  <line style="marker-start: url(#marker-0); fill: rgb(255, 246, 246); stroke: rgb(176, 173, 173); stroke-width: 0.7px;" x1="258.748" y1="105.592" x2="253.978" y2="119.181" transform="matrix(0.662348, 0.749196, -0.749196, 0.662348, 170.761011, -154.118677)"/>
  <circle cx="78.916" cy="100.312" r="11.65" style="fill: none; stroke: rgb(182, 182, 182);" transform="matrix(0.950488, 0.31076, -0.31076, 0.950488, 202.036133, -10.004747)"/>
  <use width="75.98909759521484" height="137.21209716796875" transform="matrix(0.14472098648548126, 0.02557700127363205, -0.02557700127363205, 0.14472098648548126, 282.3333435058594, 106.55464172363281)" xlink:href="#symbol-2"/>
  <use width="75.98909759521484" height="137.21209716796875" transform="matrix(0.08470000326633453, 0.1201000064611435, -0.1201000064611435, 0.08470000326633453, 295.36376953125, 108.66981506347656)" xlink:href="#symbol-2"/>
  <use width="75.98909759521484" height="137.21209716796875" transform="matrix(-0.08434400707483292, 0.12035199999809265, -0.12035199999809265, -0.08434400707483292, 292.55584716796875, 122.06890869140625)" xlink:href="#symbol-2"/>
  <use width="75.98909759521484" height="137.21209716796875" transform="matrix(0.043202999979257584, 0.1404690146446228, -0.1404690146446228, 0.043202999979257584, 296.6221923828125, 86.3609390258789)" style="stroke-width: 23.94px; stroke: rgb(166, 172, 148);" xlink:href="#symbol-1"/>
  <use width="75.98909759521484" height="137.21209716796875" transform="matrix(0.12630100548267365, 0.07514301687479019, -0.07514301687479019, 0.12630100548267365, 202.8552703857422, 95.37167358398438)" xlink:href="#symbol-2"/>
  <use width="75.98909759521484" height="137.21209716796875" transform="matrix(0.057298000901937485, 0.13533298671245575, -0.13533298671245575, 0.057298000901937485, 212.4581298828125, 100.10665893554688)" xlink:href="#symbol-2"/>
  <use width="75.98909759521484" height="137.21209716796875" transform="matrix(0.13091999292373657, -0.06676899641752243, 0.06676899641752243, 0.13091999292373657, 204.19935607910156, 164.6620330810547)" style="stroke-width: 23.94px; stroke: rgb(166, 172, 148);" xlink:href="#symbol-1"/>
  <use width="75.98909759521484" height="137.21209716796875" transform="matrix(0.14131100475788116, 0.04036600515246391, -0.04036600515246391, 0.14131100475788116, 215.25140380859375, 158.4287109375)" style="stroke-width: 23.94px; stroke: rgb(166, 172, 148);" xlink:href="#symbol-1"/>
  <circle cx="78.916" cy="100.312" r="11.65" style="fill: none; stroke: rgb(182, 182, 182);" transform="matrix(0.950488, 0.31076, -0.31076, 0.950488, 167.660187, 41.968307)"/>
  <line style="marker-start: url(#marker-0); fill: rgb(255, 246, 246); stroke: rgb(176, 173, 173); stroke-width: 0.7px;" x1="213.754" y1="134.138" x2="203.45" y2="155.551" transform="matrix(0.966399, -0.257047, 0.257047, 0.966399, -30.222582, 58.487437)"/>
  <line style="marker-start: url(#marker-0); fill: rgb(255, 246, 246); stroke: rgb(176, 173, 173); stroke-width: 0.7px;" x1="222.52" y1="137.328" x2="207.94" y2="161.635" transform="matrix(0.966399, -0.257047, 0.257047, 0.966399, -31.191801, 60.346954)"/>
  <line style="marker-start: url(#marker-0); fill: rgb(255, 246, 246); stroke: rgb(176, 173, 173); stroke-width: 0.7px;" x1="231.239" y1="137.36" x2="216.73" y2="159.222" transform="matrix(0.966399, -0.257047, 0.257047, 0.966399, -30.591627, 62.557268)"/>
  <circle cx="158.955" cy="91.706" r="58.77" style="fill: rgb(250, 250, 250); stroke: rgb(182, 182, 182);" transform="matrix(-0.513051, -0.160684, -0.168678, 0.507643, 250.079926, 90.668076)"/>
  <use width="75.98909759521484" height="137.21209716796875" transform="matrix(-0.14187900722026825, -0.044436004012823105, -0.046647001057863235, 0.1403840035200119, 176.48013305664062, 102.4708251953125)" style="stroke-width: 23.94px; stroke: rgb(166, 172, 148);" xlink:href="#symbol-1"/>
  <use width="75.98909759521484" height="137.21209716796875" transform="matrix(-0.13419899344444275, 0.0660879984498024, 0.06554801017045975, 0.1315850019454956, 169.986328125, 88.0863265991211)" style="stroke-width: 23.94px; stroke: rgb(166, 172, 148);" xlink:href="#symbol-1"/>
  <use width="75.98909759521484" height="137.21209716796875" transform="matrix(0.13968199491500854, 0.04374700039625168, -0.046647001057863235, 0.1403840035200119, 139.73223876953125, 116.55360412597656)" style="stroke-width: 23.94px; stroke: rgb(166, 172, 148);" xlink:href="#symbol-1"/>
  <use width="75.98909759521484" height="137.21209716796875" transform="matrix(0.1239830031991005, 0.07862801104784012, -0.07921801507472992, 0.12438099831342697, 145.4210968017578, 105.1395263671875)" style="stroke-width: 23.94px; stroke: rgb(166, 172, 148);" xlink:href="#symbol-1"/>
  <use width="75.98909759521484" height="137.21209716796875" transform="matrix(-0.06310100108385086, -0.13276299834251404, -0.1353670060634613, 0.06368900090456009, 170.860107421875, 117.5877685546875)" style="stroke-width: 23.94px; stroke: rgb(166, 172, 148);" xlink:href="#symbol-1"/>
  <use width="75.98909759521484" height="137.21209716796875" transform="matrix(0.14538700878620148, -0.029764002189040184, 0.030856002122163773, 0.14259600639343262, 136.92994689941406, 97.21943664550781)" style="stroke-width: 23.94px; stroke: rgb(166, 172, 148);" xlink:href="#symbol-1"/>
  <use width="75.98909759521484" height="137.21209716796875" transform="matrix(0.016808001324534416, 0.14494699239730835, -0.1469929963350296, 0.020448001101613045, 157.44529724121094, 113.2801513671875)" style="stroke-width: 23.94px; stroke: rgb(166, 172, 148);" xlink:href="#symbol-1"/>
  <use width="75.98909759521484" height="137.21209716796875" transform="matrix(-0.14412599802017212, -0.03703099861741066, -0.03916100040078163, 0.14251700043678284, 166.5267791748047, 123.66654968261719)" style="stroke-width: 23.94px; stroke: rgb(166, 172, 148);" xlink:href="#symbol-1"/>
  <use width="75.98909759521484" height="137.21209716796875" transform="matrix(-0.01752699911594391, 0.14641501009464264, 0.14831900596618652, 0.015658000484108925, 155.83840942382812, 96.95611572265625)" style="stroke-width: 23.94px; stroke: rgb(166, 172, 148);" xlink:href="#symbol-1"/>
  <use width="75.98909759521484" height="137.21209716796875" transform="matrix(-0.14897800981998444, -0.008759000338613987, -0.010537000373005867, 0.14698700606822968, 180.0111083984375, 109.16763305664062)" xlink:href="#symbol-2"/>
  <use width="75.98909759521484" height="137.21209716796875" transform="matrix(0.1456569880247116, -0.01218500081449747, 0.010987000539898872, 0.1467209905385971, 122.18746948242188, 102.83209228515625)" xlink:href="#symbol-2"/>
  <use width="75.98909759521484" height="137.21209716796875" transform="matrix(-0.14897800981998444, -0.008759000338613987, -0.010537000373005867, 0.14698700606822968, 183.20162963867188, 97.85600280761719)" xlink:href="#symbol-2"/>
  <use width="75.98909759521484" height="137.21209716796875" transform="matrix(0.1456569880247116, -0.01218500081449747, 0.010987000539898872, 0.1467209905385971, 128.977294921875, 91.1480712890625)" xlink:href="#symbol-2"/>
  <use width="75.98909759521484" height="137.21209716796875" transform="matrix(-0.07293400913476944, -0.12769199907779694, -0.13033199310302734, 0.07332900166511536, 173.08763122558594, 135.2554168701172)" style="stroke-width: 23.94px; stroke: rgb(166, 172, 148);" xlink:href="#symbol-1"/>
  <use width="75.98909759521484" height="137.21209716796875" transform="matrix(0.1183909997344017, -0.08726200461387634, 0.08857200294733047, 0.1175839975476265, 126.28691101074219, 124.93824768066406)" style="stroke-width: 23.94px; stroke: rgb(166, 172, 148);" xlink:href="#symbol-1"/>
  <use width="75.98909759521484" height="137.21209716796875" transform="matrix(0.1239830031991005, 0.07862801104784012, -0.07921801507472992, 0.12438099831342697, 135.37535095214844, 108.83116149902344)" style="stroke-width: 23.94px; stroke: rgb(166, 172, 148);" xlink:href="#symbol-1"/>
  <use width="75.98909759521484" height="137.21209716796875" transform="matrix(-0.046591002494096756, -0.139383003115654, -0.1418980062007904, 0.047485001385211945, 164.86322021484375, 95.36347198486328)" xlink:href="#symbol-2"/>
  <use width="75.98909759521484" height="137.21209716796875" transform="matrix(-0.12155801057815552, -0.08421701192855835, -0.08677199482917786, 0.12078800052404404, 162.29110717773438, 84.96867370605469)" xlink:href="#symbol-2"/>
  <line style="marker-start: url(#marker-0); stroke: rgb(102, 102, 102); fill: rgb(255, 255, 255); stroke-width: 0.7px;" x1="154.77" y1="132.943" x2="149.752" y2="132.794" transform="matrix(-0.635418, -0.772168, 0.772168, -0.635418, 146.413587, 334.866665)"/>
  <circle style="stroke: rgb(102, 102, 102); fill: rgb(139, 139, 139); stroke-width: 1.5px;" cx="65.837" cy="88.591" r="5.874" transform="matrix(-0.338412, -0.411243, -0.420893, 0.33823, 215.340042, 134.263763)"/>
  <circle style="stroke: rgb(102, 102, 102); fill: rgb(139, 139, 139); stroke-width: 1.5px;" cx="65.837" cy="88.591" r="5.874" transform="matrix(-0.338412, -0.411243, -0.420893, 0.33823, 207.427765, 124.369995)"/>
  <circle style="stroke: rgb(102, 102, 102); fill: rgb(139, 139, 139); stroke-width: 1.5px;" cx="65.837" cy="88.591" r="5.874" transform="matrix(-0.338412, -0.411243, -0.420893, 0.33823, 200.813782, 130.733566)"/>
  <line style="marker-start: url(#marker-0); stroke: rgb(102, 102, 102); fill: rgb(255, 255, 255); stroke-width: 0.7px;" x1="151.919" y1="133.761" x2="146.179" y2="138.193" transform="matrix(-0.635418, -0.772168, 0.772168, -0.635418, 138.760344, 337.470156)"/>
  <use width="75.98909759521484" height="137.21209716796875" transform="matrix(-0.1227950006723404, 0.08515501022338867, 0.08501400798559189, 0.12012900412082672, 148.658203125, 87.85417175292969)" xlink:href="#symbol-2"/>
  <circle cx="158.955" cy="91.706" r="58.77" style="fill: rgb(250, 250, 250); stroke: rgb(182, 182, 182);" transform="matrix(-0.411017, 0.349883, 0.350341, 0.401375, 121.795883, 32.201614)"/>
  <use width="75.98909759521484" height="137.21209716796875" transform="matrix(-0.1136619970202446, 0.09675700217485428, 0.09688399732112885, 0.11099700629711151, 93.02328491210938, 100.20071411132812)" style="stroke-width: 23.94px; stroke: rgb(166, 172, 148);" xlink:href="#symbol-1"/>
  <use width="75.98909759521484" height="137.21209716796875" transform="matrix(0.0754840075969696, 0.12622500956058502, 0.12887200713157654, -0.07582500576972961, 75.09305572509766, 108.69686889648438)" style="stroke-width: 23.94px; stroke: rgb(166, 172, 148);" xlink:href="#symbol-1"/>
  <use width="75.98909759521484" height="137.21209716796875" transform="matrix(0.11190300434827805, -0.09525901079177856, 0.09688399732112885, 0.11099700629711151, 85.75115966796875, 138.33633422851562)" style="stroke-width: 23.94px; stroke: rgb(166, 172, 148);" xlink:href="#symbol-1"/>
  <use width="75.98909759521484" height="137.21209716796875" transform="matrix(0.13379700481891632, -0.06421900540590286, 0.06576500087976456, 0.13024599850177765, 78.87859344482422, 127.71507263183594)" style="stroke-width: 23.94px; stroke: rgb(166, 172, 148);" xlink:href="#symbol-1"/>
  <use width="75.98909759521484" height="137.21209716796875" transform="matrix(-0.14843100309371948, -0.014698000624775887, -0.01655600033700466, 0.1465129852294922, 103.13969421386719, 112.65580749511719)" style="stroke-width: 23.94px; stroke: rgb(166, 172, 148);" xlink:href="#symbol-1"/>
  <use width="75.98909759521484" height="137.21209716796875" transform="matrix(0.05125000327825546, -0.13761799037456512, 0.1398639976978302, 0.046872999519109726, 67.51936340332031, 130.81805419921875)" style="stroke-width: 23.94px; stroke: rgb(166, 172, 148);" xlink:href="#symbol-1"/>
  <use width="75.98909759521484" height="137.21209716796875" transform="matrix(0.13445699214935303, 0.05990200489759445, -0.060172002762556076, 0.1342109888792038, 92.30079650878906, 121.74998474121094)" style="stroke-width: 23.94px; stroke: rgb(166, 172, 148);" xlink:href="#symbol-1"/>
  <use width="75.98909759521484" height="137.21209716796875" transform="matrix(-0.06511600315570831, 0.13322000205516815, 0.13440899550914764, 0.06272599846124649, 100.89337158203125, 122.43202209472656)" style="stroke-width: 23.94px; stroke: rgb(166, 172, 148);" xlink:href="#symbol-1"/>
  <use width="75.98909759521484" height="137.21209716796875" transform="matrix(-0.08652099967002869, 0.1209620013833046, 0.12173600494861603, 0.08396700769662857, 100.69485473632812, 100.64909362792969)" xlink:href="#symbol-2"/>
  <use width="75.98909759521484" height="137.21209716796875" transform="matrix(-0.08652099967002869, 0.1209620013833046, 0.12173600494861603, 0.08396700769662857, 92.58729553222656, 92.1836929321289)" xlink:href="#symbol-2"/>
  <use width="75.98909759521484" height="137.21209716796875" transform="matrix(0.06661999970674515, -0.1288660168647766, 0.13290999829769135, 0.06570900231599808, 58.04679870605469, 134.4121551513672)" xlink:href="#symbol-2"/>
  <use width="75.98909759521484" height="137.21209716796875" transform="matrix(-0.1415639966726303, 0.048472002148628235, 0.0475970022380352, 0.13904298841953278, 113.664794921875, 118.19108581542969)" style="stroke-width: 23.94px; stroke: rgb(166, 172, 148);" xlink:href="#symbol-1"/>
  <circle style="stroke: rgb(102, 102, 102); fill: rgb(139, 139, 139); stroke-width: 1.5px;" cx="65.837" cy="88.591" r="5.874" transform="matrix(-0.535518, 0.074833, 0.069966, 0.527182, 141.151428, 83.724487)"/>
  <circle style="stroke: rgb(102, 102, 102); fill: rgb(139, 139, 139); stroke-width: 1.5px;" cx="65.837" cy="88.591" r="5.874" transform="matrix(-0.535518, 0.074833, 0.069966, 0.527182, 130.397064, 94.15168)"/>
  <line style="marker-start: url(#marker-0); stroke: rgb(102, 102, 102); fill: rgb(255, 255, 255); stroke-width: 0.7px;" x1="108.949" y1="139.117" x2="103.145" y2="143.482" transform="matrix(0.987724, -0.156207, 0.156207, 0.987724, -20.770181, 18.299835)"/>
  <line style="marker-start: url(#marker-0); fill: rgb(255, 246, 246); stroke: rgb(176, 173, 173); stroke-width: 0.7px;" x1="116.569" y1="160.777" x2="116.718" y2="139.254" transform="matrix(-0.97574, 0.218934, -0.218934, -0.97574, 263.300676, 270.854348)"/>
  <use width="75.98909759521484" height="137.21209716796875" transform="matrix(-0.13391299545764923, -0.06373300403356552, -0.06613100320100784, 0.1327419877052307, 89.94715881347656, 135.6431884765625)" xlink:href="#symbol-2"/>
  <use width="75.98909759521484" height="137.21209716796875" transform="matrix(-0.14163199067115784, 0.048274002969264984, 0.0473950020968914, 0.1391109973192215, 78.00287628173828, 129.7520294189453)" xlink:href="#symbol-2"/>
  <use width="75.98909759521484" height="137.21209716796875" transform="matrix(-0.0033400000538676977, 0.14723999798297882, 0.1493140012025833, 0.001660000067204237, 72.24024963378906, 142.299072265625)" xlink:href="#symbol-2"/>
  <use width="75.98909759521484" height="137.21209716796875" transform="matrix(-0.11990199983119965, 0.08909901231527328, 0.08904600888490677, 0.117234006524086, 90.39544677734375, 110.85787963867188)" style="stroke-width: 23.94px; stroke: rgb(166, 172, 148);" xlink:href="#symbol-1"/>
  <use width="75.98909759521484" height="137.21209716796875" transform="matrix(-0.14464397728443146, -0.03509199991822243, -0.037199001759290695, 0.14300701022148132, 83.98291015625, 114.38877868652344)" style="stroke-width: 23.94px; stroke: rgb(166, 172, 148);" xlink:href="#symbol-1"/>
  <use width="75.98909759521484" height="137.21209716796875" transform="matrix(-0.13120099902153015, 0.07178400456905365, 0.07135900855064392, 0.12856601178646088, 71.6399917602539, 110.84432983398438)" style="stroke-width: 23.94px; stroke: rgb(166, 172, 148);" xlink:href="#symbol-1"/>
  <circle cx="148.496" cy="188.757" r="21.922" style="fill: none; stroke: rgb(182, 182, 182);" transform="matrix(-0.46436, 0.27694, 0.275761, 0.45478, 91.852295, -13.934576)"/>
  <line style="marker-start: url(#marker-0); fill: rgb(255, 246, 246); stroke: rgb(176, 173, 173); stroke-width: 0.7px;" x1="113.796" y1="173.436" x2="106.353" y2="148.288" transform="matrix(-0.97574, 0.218934, -0.218934, -0.97574, 252.696702, 293.722395)"/>
  <circle cx="78.916" cy="100.312" r="11.65" style="fill: none; stroke: rgb(182, 182, 182);" transform="matrix(0.950488, 0.31076, -0.31076, 0.950488, 75.551399, 49.85627)"/>
  <use width="75.98909759521484" height="137.21209716796875" transform="matrix(0.14083999395370483, -0.04198000207543373, 0.04198000207543373, 0.14083999395370483, 134.5140838623047, 151.00738525390625)" style="stroke-width: 23.94px; stroke: rgb(166, 172, 148);" xlink:href="#symbol-1"/>
  <use width="75.98909759521484" height="137.21209716796875" transform="matrix(0.04206600412726402, -0.14081399142742157, 0.14081399142742157, 0.04206600412726402, 128.27896118164062, 166.05828857421875)" style="stroke-width: 23.94px; stroke: rgb(166, 172, 148);" xlink:href="#symbol-1"/>
  <line style="marker-start: url(#marker-0); fill: rgb(255, 246, 246); stroke: rgb(176, 173, 173); stroke-width: 0.7px;" x1="143.518" y1="138.835" x2="130.437" y2="157.867" transform="matrix(0.933294, -0.359112, 0.359112, 0.933294, -44.137486, 59.086129)"/>
  <line style="marker-start: url(#marker-0); fill: rgb(255, 246, 246); stroke: rgb(176, 173, 173); stroke-width: 0.7px;" x1="151.969" y1="134.5" x2="137.413" y2="147.877" transform="matrix(0.860445, -0.509543, 0.509543, 0.860445, -51.749292, 93.429834)"/>
  <line style="marker-start: url(#marker-0); fill: rgb(255, 246, 246); stroke: rgb(176, 173, 173); stroke-width: 0.7px;" x1="157.136" y1="142.996" x2="143.309" y2="158.847" transform="matrix(0.933294, -0.359112, 0.359112, 0.933294, -44.177066, 64.014037)"/>
  <circle cx="78.916" cy="100.312" r="11.65" style="fill: none; stroke: rgb(182, 182, 182);" transform="matrix(0.950488, 0.31076, -0.31076, 0.950488, 96.792526, 40.142555)"/>
</svg>