<?xml version="1.0" encoding="UTF-8" standalone="no"?>
<svg
   xmlns:dc="http://purl.org/dc/elements/1.1/"
   xmlns:cc="http://creativecommons.org/ns#"
   xmlns:rdf="http://www.w3.org/1999/02/22-rdf-syntax-ns#"
   xmlns:svg="http://www.w3.org/2000/svg"
   xmlns="http://www.w3.org/2000/svg"
   xmlns:sodipodi="http://sodipodi.sourceforge.net/DTD/sodipodi-0.dtd"
   xmlns:inkscape="http://www.inkscape.org/namespaces/inkscape"
   width="210mm"
   height="100mm"
   viewBox="0 0 210 100"
   version="1.1"
   id="svg8"
   inkscape:version="1.0.1 (0767f8302a, 2020-10-17)"
   sodipodi:docname="logo.svg">
  <defs
     id="defs2" />
  <sodipodi:namedview
     id="base"
     pagecolor="#ffffff"
     bordercolor="#666666"
     borderopacity="1.0"
     inkscape:pageopacity="0.0"
     inkscape:pageshadow="2"
     inkscape:zoom="0.7"
     inkscape:cx="385.98325"
     inkscape:cy="476.36257"
     inkscape:document-units="mm"
     inkscape:current-layer="text835"
     inkscape:document-rotation="0"
     showgrid="false"
     showguides="false"
     inkscape:window-width="1612"
     inkscape:window-height="1224"
     inkscape:window-x="0"
     inkscape:window-y="27"
     inkscape:window-maximized="0" />
  <metadata
     id="metadata5">
    <rdf:RDF>
      <cc:Work
         rdf:about="">
        <dc:format>image/svg+xml</dc:format>
        <dc:type
           rdf:resource="http://purl.org/dc/dcmitype/StillImage" />
        <dc:title></dc:title>
      </cc:Work>
    </rdf:RDF>
  </metadata>
  <g
     inkscape:label="Layer 1"
     inkscape:groupmode="layer"
     id="layer1">
    <g
       aria-label="Aβu∑e"
       id="text835"
       style="font-style:normal;font-weight:normal;font-size:41.6415px;line-height:1.25;font-family:sans-serif;fill:#000000;fill-opacity:1;stroke:none;stroke-width:1.04104">
      <path
         d="m 48.49627,17.147111 -5.571177,15.107243 h 11.162686 z m -2.317935,-4.04622 h 4.656202 l 11.569342,30.356815 h -4.26988 L 55.368743,35.670258 H 41.684794 l -2.765256,7.787448 H 34.58866 Z"
         style="stroke-width:1.04104;fill:#ffffff"
         id="path1034" />
      <path
         d="M 70.394655,42.054746 V 52.119463 H 66.633094 V 20.827341 q 0,-9.27174 8.661757,-9.27174 8.824419,0 8.824419,7.828114 0,5.571177 -3.497235,7.604453 5.693174,1.829949 5.693174,7.258797 0,9.637729 -9.800392,9.637729 -4.310546,0 -6.120162,-1.829948 z m 0,-4.879863 q 2.256937,3.517568 6.262491,3.517568 5.855836,0 5.855836,-6.384488 0,-5.733839 -9.434402,-5.286518 v -3.45657 q 7.380793,0 7.380793,-6.506484 0,-4.452875 -4.757867,-4.452875 -5.306851,0 -5.306851,6.343822 z"
         style="stroke-width:1.04104;fill:#ffffff"
         id="path1036" />
      <path
         d="M 90.745691,34.470625 V 20.685012 h 3.741229 v 13.643284 q 0,3.232909 1.260631,4.85953 1.260631,1.606289 3.781894,1.606289 3.029585,0 4.778195,-1.931613 1.76895,-1.931612 1.76895,-5.266186 V 20.685012 h 3.74123 v 22.772694 h -3.74123 v -3.497235 q -1.36229,2.073942 -3.17191,3.09058 -1.78928,0.996306 -4.168213,0.996306 -3.924223,0 -5.9575,-2.439932 -2.033276,-2.439932 -2.033276,-7.1368 z m 9.414069,-14.334598 z"
         style="stroke-width:1.04104;fill:#ffffff"
         id="path1038" />
      <path
         d="m 112.11283,13.507547 h 25.57862 v 3.924223 h -19.49912 l 13.66362,14.578591 -14.11094,15.534231 h 20.47509 v 3.90389 H 111.50285 V 48.418901 L 126.2441,32.132357 112.11283,17.106446 Z"
         style="stroke-width:1.04104;fill:#ffffff"
         id="path1040" />
      <path
         d="m 159.28174,31.136052 v 1.829949 h -17.20152 q 0.244,3.863225 2.31794,5.896501 2.09427,2.012944 5.81517,2.012944 2.15527,0 4.16821,-0.528652 2.03328,-0.528652 4.02589,-1.585956 v 3.537901 q -2.01294,0.853976 -4.12755,1.301297 -2.11461,0.447321 -4.29021,0.447321 -5.44918,0 -8.64143,-3.171911 -3.17191,-3.171911 -3.17191,-8.580426 0,-5.59151 3.00925,-8.865085 3.02958,-3.293908 8.15344,-3.293908 4.5952,0 7.2588,2.968584 2.68392,2.94825 2.68392,8.031441 z m -3.74123,-1.097969 q -0.0407,-3.070247 -1.72828,-4.900196 -1.66729,-1.829949 -4.43255,-1.829949 -3.13124,0 -5.02219,1.768951 -1.87061,1.76895 -2.15527,4.981527 z"
         style="stroke-width:1.04104;fill:#ffffff"
         id="path1042" />
    </g>
    <g
       aria-label="of"
       id="text839"
       style="font-style:normal;font-weight:normal;font-size:16.2862px;line-height:1.25;font-family:sans-serif;fill:#ffffff;fill-opacity:1;stroke:none;stroke-width:0.407156">
      <path
         d="m 176.84425,11.931294 q -0.94632,0 -1.44731,0.683893 -0.49304,0.675941 -0.49304,1.956252 0,1.280312 0.49304,1.964205 0.50099,0.675941 1.44731,0.675941 0.93041,0 1.42345,-0.675941 0.49304,-0.683893 0.49304,-1.964205 0,-1.280311 -0.49304,-1.956252 -0.49304,-0.683893 -1.42345,-0.683893 z m 0,-2.0357754 q 2.2982,0 3.58646,1.2405504 1.29622,1.24055 1.29622,3.43537 0,2.19482 -1.29622,3.43537 -1.28826,1.240551 -3.58646,1.240551 -2.30615,0 -3.61032,-1.240551 -1.29622,-1.24055 -1.29622,-3.43537 0,-2.19482 1.29622,-3.43537 1.30417,-1.2405504 3.61032,-1.2405504 z"
         style="font-style:normal;font-variant:normal;font-weight:bold;font-stretch:normal;font-family:sans-serif;-inkscape-font-specification:'sans-serif Bold';stroke-width:0.407156;fill:#ffffff"
         id="path1029" />
      <path
         d="m 189.66327,6.64305 v 1.8687778 h -1.57455 q -0.60437,0 -0.84293,0.2226629 -0.23857,0.2147106 -0.23857,0.7554633 v 0.620275 h 2.43339 v 2.035775 h -2.43339 v 6.870741 h -2.84691 v -6.870741 h -1.4155 v -2.035775 h 1.4155 V 9.489954 q 0,-1.455261 0.81113,-2.1471063 0.81113,-0.6997977 2.51291,-0.6997977 z"
         style="font-style:normal;font-variant:normal;font-weight:bold;font-stretch:normal;font-family:sans-serif;-inkscape-font-specification:'sans-serif Bold';stroke-width:0.407156;fill:#ffffff"
         id="path1031" />
    </g>
    <g
       aria-label="ℕotλti∅n"
       id="text843"
       style="font-style:normal;font-weight:normal;font-size:41.6415px;line-height:1.25;font-family:sans-serif;fill:#ffffff;fill-opacity:1;stroke:none;stroke-width:1.04104">
      <path
         d="M 40.566656,89.213268 25.398415,62.923005 H 20.559218 L 35.727459,89.213268 Z M 17.915959,60.889729 H 26.53705 L 41.176639,86.28535 V 60.889729 h 2.033277 V 91.246544 H 34.588824 L 19.949235,65.850923 v 25.395621 h -2.033276 z"
         style="stroke-width:1.04104;fill:#ffffff"
         id="path1012" />
      <path
         d="m 57.338612,71.096776 q -3.009249,0 -4.757867,2.3586 -1.748617,2.338268 -1.748617,6.425153 0,4.086886 1.728284,6.445486 1.748618,2.338268 4.7782,2.338268 2.988916,0 4.737533,-2.358601 1.748618,-2.3586 1.748618,-6.425153 0,-4.046219 -1.748618,-6.40482 -1.748617,-2.378933 -4.737533,-2.378933 z m 0,-3.171911 q 4.879863,0 7.665451,3.171911 2.785589,3.171911 2.785589,8.783753 0,5.59151 -2.785589,8.783754 -2.785588,3.171911 -7.665451,3.171911 -4.900196,0 -7.685785,-3.171911 -2.765255,-3.192244 -2.765255,-8.783754 0,-5.611842 2.765255,-8.783753 2.785589,-3.171911 7.685785,-3.171911 z"
         style="stroke-width:1.04104;fill:#ffffff"
         id="path1014" />
      <path
         d="m 76.613041,62.008031 v 6.465818 h 7.706117 v 2.907585 h -7.706117 v 12.36232 q 0,2.785589 0.752312,3.578567 0.772645,0.792977 3.110913,0.792977 h 3.842892 v 3.131246 h -3.842892 q -4.330879,0 -5.977833,-1.606288 -1.646953,-1.626621 -1.646953,-5.896502 v -12.36232 h -2.744923 v -2.907585 h 2.744923 v -6.465818 z"
         style="stroke-width:1.04104;fill:#ffffff"
         id="path1016" />
      <path
         d="M 98.226764,63.166998 108.7388,91.246544 h -3.96489 L 98.389426,74.411016 90.54098,91.246544 h -3.964889 l 9.983387,-21.837388 -1.504625,-4.025887 q -0.95564,-2.561928 -3.131245,-2.561928 h -1.951946 v -3.212576 l 2.378934,0.04067 q 4.595204,0.061 5.876168,3.517568 z"
         style="stroke-width:1.04104;fill:#ffffff"
         id="path1018" />
      <path
         d="m 115.48721,62.008031 v 6.465818 h 7.70612 v 2.907585 h -7.70612 v 12.36232 q 0,2.785589 0.75231,3.578567 0.77265,0.792977 3.11091,0.792977 h 3.8429 v 3.131246 h -3.8429 q -4.33087,0 -5.97783,-1.606288 -1.64695,-1.626621 -1.64695,-5.896502 v -12.36232 h -2.74492 v -2.907585 h 2.74492 v -6.465818 z"
         style="stroke-width:1.04104;fill:#ffffff"
         id="path1020" />
      <path
         d="m 128.13419,68.473849 h 3.74123 v 22.772695 h -3.74123 z m 0,-8.865084 h 3.74123 v 4.737533 h -3.74123 z"
         style="stroke-width:1.04104;fill:#ffffff"
         id="path1022" />
      <path
         d="m 159.83089,64.020974 1.80962,-2.236604 h 2.15527 l -2.60259,3.192244 q 2.13494,1.687619 3.5379,4.168217 2.03328,3.619231 2.03328,7.523122 0,3.90389 -2.03328,7.523122 -2.03328,3.598899 -5.61184,5.530512 -3.57857,1.931612 -7.34013,1.931612 -3.80223,0 -7.38079,-1.931612 -1.13864,-0.609983 -2.11461,-1.402961 l -2.56193,3.171911 h -2.13494 l 3.45657,-4.26988 q -1.28096,-1.341963 -2.2366,-3.049915 -2.01295,-3.598899 -2.01295,-7.502789 0,-3.903891 2.01295,-7.50279 2.01294,-3.619232 5.59151,-5.550844 3.57856,-1.931612 7.38079,-1.931612 3.76156,0 7.34013,1.931612 0.36599,0.203328 0.71164,0.406655 z m -17.07952,21.085075 15.37157,-18.970467 -0.28466,-0.162662 q -2.94825,-1.585956 -6.05916,-1.585956 -3.13124,0 -6.09983,1.606288 -2.94825,1.585956 -4.61554,4.574872 -1.64695,2.948251 -1.66728,6.099829 0.0203,3.151578 1.66728,6.099829 0.73198,1.301297 1.68762,2.338267 z m 16.7542,-18.03516 -15.5139,19.153462 q 0.79298,0.630316 1.70795,1.118302 2.94826,1.606289 6.0795,1.606289 3.11091,0 6.05916,-1.585956 2.94825,-1.606288 4.63587,-4.595204 1.66729,-2.948251 1.68762,-6.099829 -0.0203,-3.151578 -1.68762,-6.099829 -1.1793,-2.094275 -2.96858,-3.497235 z"
         style="stroke-width:1.04104;fill:#ffffff"
         id="path1024" />
      <path
         d="m 189.06578,77.501596 v 13.744948 h -3.74123 V 77.623593 q 0,-3.23291 -1.26063,-4.839198 -1.26064,-1.606288 -3.7819,-1.606288 -3.02958,0 -4.7782,1.931612 -1.74862,1.931613 -1.74862,5.266186 v 12.870639 h -3.76156 V 68.473849 h 3.76156 v 3.537901 q 1.34197,-2.053609 3.15158,-3.070247 1.82995,-1.016638 4.20888,-1.016638 3.92423,0 5.93717,2.439931 2.01295,2.419599 2.01295,7.1368 z"
         style="stroke-width:1.04104;fill:#ffffff"
         id="path1026" />
    </g>
  </g>
</svg>
