<?xml version="1.0" encoding="UTF-8" standalone="no"?>
<!-- Created with Inkscape (http://www.inkscape.org/) -->

<svg
   width="210mm"
   height="100mm"
   viewBox="0 0 210 100"
   version="1.1"
   id="svg40601"
   sodipodi:docname="muhite.svg"
   inkscape:version="1.2.2 (1:1.2.2+202212051552+b0a8486541)"
   inkscape:export-filename="muhite.png"
   inkscape:export-xdpi="275.13663"
   inkscape:export-ydpi="275.13663"
   xmlns:inkscape="http://www.inkscape.org/namespaces/inkscape"
   xmlns:sodipodi="http://sodipodi.sourceforge.net/DTD/sodipodi-0.dtd"
   xmlns="http://www.w3.org/2000/svg"
   xmlns:svg="http://www.w3.org/2000/svg">
  <sodipodi:namedview
     id="namedview40603"
     pagecolor="#ffffff"
     bordercolor="#666666"
     borderopacity="1.0"
     inkscape:showpageshadow="2"
     inkscape:pageopacity="0.0"
     inkscape:pagecheckerboard="0"
     inkscape:deskcolor="#d1d1d1"
     inkscape:document-units="mm"
     showgrid="false"
     inkscape:zoom="0.40569444"
     inkscape:cx="200.89011"
     inkscape:cy="39.438548"
     inkscape:window-width="1080"
     inkscape:window-height="1864"
     inkscape:window-x="0"
     inkscape:window-y="0"
     inkscape:window-maximized="1"
     inkscape:current-layer="layer4" />
  <defs
     id="defs40598" />
  <g
     inkscape:groupmode="layer"
     id="layer2"
     inkscape:label="Layer 2"
     sodipodi:insensitive="true"
     style="display:none">
    <ellipse
       style="display:inline;opacity:0.262128;fill:#474747;fill-opacity:1;stroke-width:1.5875"
       id="path43757"
       cx="103.87016"
       cy="103.00718"
       rx="98.250252"
       ry="46.935501" />
  </g>
  <g
     inkscape:label="Layer 1"
     inkscape:groupmode="layer"
     id="layer1"
     sodipodi:insensitive="true">
    <path
       style="fill:#000000;fill-opacity:1;stroke:#000000;stroke-width:1.83444;stroke-linecap:butt;stroke-linejoin:round;stroke-dasharray:none;stroke-opacity:1"
       d="m 26.918988,78.624221 c -6.090114,-3.35363 -11.636866,-10.13321 -12.15823,-22.89974 -0.521365,-12.766529 2.916855,-26.700074 11.228145,-36.735493 4.533122,4.685655 11.304502,16.673309 10.783135,27.876893 0,0 3.026964,-27.573436 10.771562,-32.25692 6.644525,6.122582 12.602873,21.921787 12.861517,34.95571 0.27838,14.0285 -6.675124,28.64514 -14.104563,34.518 -0.723252,-7.06694 5.179645,-20.60478 5.304617,-31.29899 C 51.742199,41.057798 48.655607,31.429129 48.655607,31.429129 47.517413,42.699714 41.970135,51.349021 36.77204,58.850371 31.571929,51.770941 27.772025,43.226432 26.248432,32.797096 c 0,0 -2.343837,11.20128 -2.343837,21.363295 0,10.16201 2.546343,15.66218 3.014393,24.46383 z"
       id="path42783"
       sodipodi:nodetypes="cscccscscccsc" />
    <path
       style="fill:#000000;fill-opacity:1;stroke:#000000;stroke-width:1.83444;stroke-linecap:butt;stroke-linejoin:round;stroke-dasharray:none;stroke-opacity:1"
       d="m 61.365834,9.8270241 c -1.272133,11.6151229 3.549272,29.5496679 9.324879,38.2613769 0,0 -11.014604,24.86648 -12.126781,39.74873 13.924502,-7.10593 21.368052,-39.54661 21.368052,-39.54661 0,0 9.05178,-27.531077 5.848909,-40.2650976 -7.158204,7.7850216 -11.043959,28.3356296 -11.043959,28.3356296 0,0 -5.042064,-19.743558 -13.3711,-26.5340289 z"
       id="path42785"
       sodipodi:nodetypes="ccccccc" />
    <path
       id="path42785-8"
       style="fill:#000000;fill-opacity:1;stroke:#000000;stroke-width:1.83444;stroke-linecap:butt;stroke-linejoin:round;stroke-dasharray:none;stroke-opacity:1"
       d="m 84.431502,92.393531 c 10.327768,-9.56735 15.265635,-29.44163 15.265635,-29.44163 0,0 1.957813,19.7313 11.746043,31.16797 4.27969,-13.52009 -3.33188,-33.13337 -6.11012,-43.51993 6.94472,-8.663 13.44364,-29.68337 13.81145,-45.0349036 -10.3142,6.4058036 -17.09834,33.9578316 -17.09834,33.9578316 0,0 -2.313013,-26.092926 -9.653675,-35.8865096 -4.95525,12.3213036 -0.359171,33.9982166 2.399603,46.4860416 -2.167337,4.52303 -14.897545,27.79574 -10.360596,42.27113 z"
       sodipodi:nodetypes="ccccccccc" />
    <path
       style="fill:#000000;fill-opacity:1;stroke:#000000;stroke-width:1.83444;stroke-linecap:butt;stroke-linejoin:round;stroke-dasharray:none;stroke-opacity:1"
       d="m 121.98974,4.7260654 c 2.11715,6.7573636 1.3097,12.9258326 0.68605,18.6555156 -1.3219,12.144429 -6.86778,19.562966 -7.88505,33.61151 -1.16837,16.13535 3.51916,30.87535 11.14773,30.63761 7.62859,-0.23774 12.85662,-9.65856 15.09423,-17.51602 1.3219,8.33403 0.0252,12.9924 4.63725,17.27828 3.86507,-5.45423 4.30702,-23.78088 4.57584,-39.13781 0.20402,-11.655291 1.78401,-26.933303 -3.50305,-36.11858 -5.30182,10.39799 -6.52583,24.304304 -7.15605,34.1681 -0.67418,10.5518 -3.0173,24.84419 -9.92078,25.45 -3.06825,0.26925 -4.10281,-8.67437 -3.73155,-17.41853 0.40927,-9.639726 4.60517,-18.474024 6.03469,-27.497169 1.26688,-7.996552 -1.02627,-19.1196376 -9.97931,-22.1129066 z"
       id="path43699"
       sodipodi:nodetypes="csssccscssssc" />
    <path
       style="fill:#000000;fill-opacity:1;stroke:#000000;stroke-width:1.83444;stroke-linecap:butt;stroke-linejoin:round;stroke-dasharray:none;stroke-opacity:1"
       d="m 182.0712,19.851237 c -4.30918,2.026661 -12.51485,2.421822 -12.51485,2.421822 0,0 0.39279,11.834386 -0.23932,26.026132 -0.55795,12.5266 -0.52344,27.72541 -5.04431,39.35434 -3.83435,-8.84524 -4.44367,-25.58868 -4.78132,-39.64526 -0.35018,-14.578628 0.19062,-27.46325 0.19062,-27.46325 0,0 -6.39563,-3.039735 -9.17756,-7.64721 8.92464,-1.166726 23.27831,0.981795 31.56674,6.953426 z"
       id="path43701"
       sodipodi:nodetypes="ccscsccc" />
    <path
       style="fill:#000000;fill-opacity:1;stroke:#000000;stroke-width:1.83444;stroke-linecap:butt;stroke-linejoin:round;stroke-dasharray:none;stroke-opacity:1"
       d="m 175.84028,28.743297 c 10.07717,-4.41663 17.84635,-5.275168 23.79377,-4.489701 -4.75821,5.163105 -15.76352,9.652808 -15.76352,9.652808 l -0.59529,11.448897 c 0,0 9.96459,-0.450305 15.46657,1.57093 -3.12356,5.27517 -14.27599,6.9592 -14.27599,6.9592 l 0.59392,15.93859 c 0,0 10.55986,0.67341 13.68206,4.93796 -4.60973,4.04043 -14.1143,3.2598 -22.60454,-1.12166 -2.35332,-14.64515 -2.78131,-34.457868 -0.29698,-44.897024 z"
       id="path43703"
       sodipodi:nodetypes="cccccccccc" />
  </g>
  <g
     inkscape:groupmode="layer"
     id="layer4"
     inkscape:label="Layer 3">
    <path
       style="color:#000000;fill:#eeeeee;stroke-width:1.0634;stroke-linecap:round;stroke-linejoin:round;-inkscape-stroke:none"
       d="m 47.289184,17.218111 c -0.429472,0.518122 -0.478887,1.426897 -0.110415,2.030592 6.658795,10.279987 10.258049,29.390532 8.871699,44.510575 -0.0055,0.795033 0.448657,1.446022 1.014759,1.454643 0.566791,0.0091 1.031408,-0.629114 1.037544,-1.425107 C 61.61596,47.483431 56.97767,27.572297 48.735085,17.373175 48.366152,16.770034 47.71905,16.700636 47.289184,17.218111 Z"
       id="path54519"
       sodipodi:nodetypes="ccccccc" />
    <path
       style="color:#000000;fill:#eeeeee;stroke-linecap:round;stroke-linejoin:round;-inkscape-stroke:none"
       d="m 26.767578,21.144531 c -0.439138,-0.333956 -1.065773,-0.249182 -1.400391,0.189453 -0.333956,0.439138 -0.249181,1.065774 0.189454,1.400391 4.231336,6.035114 5.82608,10.34209 7.767578,16.328125 0.170441,0.525309 0.734448,0.812997 1.259765,0.642578 0.52531,-0.170441 0.812997,-0.734449 0.642578,-1.259766 -1.344191,-4.747383 -1.818728,-11.061865 -8.458984,-17.300781 z"
       id="path54521"
       sodipodi:nodetypes="ccccccc" />
    <path
       style="color:#000000;fill:#eeeeee;stroke-width:1.05545;stroke-linecap:round;stroke-linejoin:round;-inkscape-stroke:none"
       d="m 62.869468,12.671019 c -0.254299,-0.02874 -0.507747,0.06434 -0.704778,0.258843 -0.410474,0.405798 -0.468641,1.13275 -0.129974,1.624369 2.852232,4.541625 5.50853,9.359211 8.667628,17.764298 0.108422,0.625145 0.620309,1.0263 1.142562,0.895402 0.521573,-0.129751 0.856572,-0.740733 0.748353,-1.364877 -2.122182,-7.471131 -6.381964,-15.116935 -9.071024,-18.763673 -0.163017,-0.236293 -0.397847,-0.385358 -0.652767,-0.414362 z"
       id="path54525"
       sodipodi:nodetypes="cccccccc" />
    <path
       style="color:#000000;fill:#eeeeee;stroke-linecap:round;stroke-linejoin:round;-inkscape-stroke:none"
       d="m 93.470703,5.4804687 c -0.255665,-0.070761 -0.52897,-0.037037 -0.759766,0.09375 -0.481083,0.2730331 -0.649112,0.8847657 -0.375,1.3652344 1.830866,6.3992189 2.955966,16.6890209 6.685547,25.9316409 0.20297,0.51434 0.784827,0.766333 1.298826,0.5625 0.51357,-0.203744 0.76459,-0.785372 0.56055,-1.298828 -1.3022,-6.995182 -0.82976,-13.907438 -6.804688,-26.1855473 -0.131639,-0.2303914 -0.349449,-0.399018 -0.605469,-0.46875 z"
       id="path54533"
       sodipodi:nodetypes="cccccccc" />
    <path
       style="color:#000000;fill:#eeeeee;stroke-linecap:round;stroke-linejoin:round;-inkscape-stroke:none"
       d="m 147.32617,14.095703 c -0.66764,0.067 -1.15463,0.662415 -1.08789,1.330078 1.30994,18.276717 1.53918,33.504206 0.66016,52.324219 -0.0307,0.670373 0.48783,1.238718 1.1582,1.269531 0.66965,0.03069 1.23768,-0.486658 1.26953,-1.15625 0.88146,-18.872145 2.57424,-36.297218 -0.66992,-52.679687 -0.067,-0.667638 -0.66242,-1.154635 -1.33008,-1.087891 z"
       id="path54543"
       sodipodi:nodetypes="ccccccc" />
    <path
       style="color:#000000;fill:#eeeeee;stroke-linecap:round;stroke-linejoin:round;-inkscape-stroke:none"
       d="m 124.23633,5.3027344 c -0.26089,0.047957 -0.49204,0.1976059 -0.64258,0.4160156 -0.31365,0.454179 -0.2,1.0765928 0.25391,1.390625 3.06547,3.961551 5.00658,8.01488 5.33552,13.734839 0.32894,5.719958 -0.59486,10.520014 -1.64802,16.106958 -0.22502,0.503754 4.7e-4,1.094573 0.5039,1.320312 0.50427,0.226332 1.09652,6.31e-4 1.32227,-0.503906 1.99598,-4.461919 3.30135,-10.752597 2.95117,-16.841797 -0.35018,-6.089199 -2.39151,-12.0571084 -7.32812,-15.4628904 -0.21827,-0.1504218 -0.48733,-0.2080274 -0.74805,-0.1601562 z"
       id="path54547"
       sodipodi:nodetypes="cccscccscc" />
    <path
       style="color:#000000;fill:#eeeeee;stroke-linecap:round;stroke-linejoin:round;-inkscape-stroke:none"
       d="m 158.58581,13.765234 c -0.54897,-0.05689 -1.04024,0.341713 -1.09766,0.890625 -0.0569,0.548968 0.34171,1.040235 0.89063,1.097657 7.26419,1.054823 15.09403,3.084284 18.99023,4.697265 0.50914,0.213405 1.09489,-0.02614 1.3086,-0.535156 0.21363,-0.508603 -0.025,-1.094135 -0.53321,-1.308594 -4.94135,-3.547258 -12.28122,-4.754014 -19.55859,-4.841797 z"
       id="path54549"
       sodipodi:nodetypes="ccccccc" />
    <path
       style="color:#000000;fill:#eeeeee;stroke-linecap:round;stroke-linejoin:round;-inkscape-stroke:none"
       d="m 196.70117,23.761719 c -4.83263,-0.141371 -8.76456,1.162594 -10.02734,2.197265 -0.53577,0.130972 -0.86434,0.671012 -0.73438,1.207032 0.13095,0.536731 0.67232,0.865579 1.20899,0.734375 3.4562,-0.84349 6.37275,-2.138672 9.55273,-2.138672 0.55228,0 1,-0.447715 1,-1 0,-0.552285 -0.44795,-0.983851 -1,-1 z"
       id="path54555"
       sodipodi:nodetypes="scccsss" />
    <path
       style="color:#000000;fill:#eeeeee;stroke-linecap:round;stroke-linejoin:round;-inkscape-stroke:none"
       d="m 187.70312,44.941406 c -0.55076,0.04458 -0.96098,0.527394 -0.91601,1.078125 0.0446,0.550763 0.52739,0.960983 1.07812,0.916016 2.73474,-0.222201 5.24976,0.498682 7.86914,1.423828 0.52045,0.183617 1.09126,-0.08911 1.2754,-0.609375 0.18489,-0.521028 -0.0978,-1.067687 -0.60938,-1.277344 -2.45739,-1.007124 -5.22577,-1.86248 -8.69727,-1.53125 z"
       id="path54557"
       sodipodi:nodetypes="cccccsc" />
    <path
       style="color:#000000;fill:#eeeeee;stroke-linecap:round;stroke-linejoin:round;-inkscape-stroke:none"
       d="m 188.71484,71.166016 c -0.54284,0.09804 -0.90377,0.617148 -0.80664,1.160156 0.0971,0.54364 0.61651,0.905646 1.16016,0.808594 2.19422,0.216864 4.70361,0.423707 7.29492,1.632812 0.44458,0.326191 1.0693,0.230953 1.39649,-0.212891 0.32794,-0.444413 0.23349,-1.070528 -0.21094,-1.398437 -2.74858,-2.023103 -5.83328,-2.529314 -8.83399,-1.990234 z"
       id="path54563"
       sodipodi:nodetypes="ccccccc" />
    <path
       style="color:#000000;fill:#eeeeee;stroke-linecap:round;stroke-linejoin:round;-inkscape-stroke:none"
       d="m 105.78906,57.671875 a 1.07853,1.07853 0 0 0 -0.55859,1.419922 c 3.9795,9.148675 4.26728,18.949377 4.47266,28.935547 a 1.07853,1.07853 0 0 0 1.10156,1.05664 1.07853,1.07853 0 0 0 1.05664,-1.099609 c -0.20558,-9.996 -0.4642,-20.123611 -4.65235,-29.751953 a 1.07853,1.07853 0 0 0 -1.41992,-0.560547 z"
       id="path54699" />
    <path
       style="color:#000000;fill:#eeeeee;stroke-linecap:round;stroke-linejoin:round;-inkscape-stroke:none"
       d="m 167.67578,23.695312 c -0.48567,0.0037 -0.87604,0.401056 -0.87109,0.886719 0.60465,18.137623 0.33402,33.166358 -1.56055,48.332031 -0.0531,0.482251 0.29503,0.916148 0.77734,0.96875 0.48225,0.05313 0.91615,-0.295033 0.96875,-0.777343 1.91432,-16.06658 1.94187,-32.385157 1.57032,-48.539063 -0.004,-0.484908 -0.39986,-0.874964 -0.88477,-0.871094 z"
       id="path54713"
       sodipodi:nodetypes="ccccccc" />
  </g>
</svg>
