<?xml version="1.0" encoding="UTF-8" standalone="no"?>
<!-- Created with Inkscape (http://www.inkscape.org/) -->

<svg
   width="210mm"
   height="100mm"
   viewBox="0 0 210 100"
   version="1.1"
   id="svg5"
   inkscape:version="1.2.2 (1:1.2.2+202212051552+b0a8486541)"
   sodipodi:docname="rtfk.svg"
   inkscape:export-filename="rtfk.jpg"
   inkscape:export-xdpi="96"
   inkscape:export-ydpi="96"
   xmlns:inkscape="http://www.inkscape.org/namespaces/inkscape"
   xmlns:sodipodi="http://sodipodi.sourceforge.net/DTD/sodipodi-0.dtd"
   xmlns="http://www.w3.org/2000/svg"
   xmlns:svg="http://www.w3.org/2000/svg">
  <sodipodi:namedview
     id="namedview7"
     pagecolor="#ffffff"
     bordercolor="#666666"
     borderopacity="1.0"
     inkscape:showpageshadow="2"
     inkscape:pageopacity="0.0"
     inkscape:pagecheckerboard="0"
     inkscape:deskcolor="#d1d1d1"
     inkscape:document-units="mm"
     showgrid="false"
     inkscape:zoom="0.84096521"
     inkscape:cx="281.22448"
     inkscape:cy="505.37168"
     inkscape:window-width="1080"
     inkscape:window-height="1864"
     inkscape:window-x="0"
     inkscape:window-y="0"
     inkscape:window-maximized="1"
     inkscape:current-layer="text281" />
  <defs
     id="defs2" />
  <g
     inkscape:label="Layer 1"
     inkscape:groupmode="layer"
     id="layer1">
    <g
       aria-label="Read        The         Fuckin   Kapital"
       id="text113"
       style="font-size:10.9172px;line-height:1.25;word-spacing:0px;stroke-width:3.53521"
       transform="translate(-0.55549854,8.049813)">
      <path
         d="m 10.152605,68.638819 h 0.633198 c 1.102637,0.04367 1.539325,0.491274 1.659414,1.692166 l 0.05459,0.556777 c 0.131006,1.233644 0.534943,1.735835 1.397402,1.735835 0.89521,0 1.320981,-0.600446 1.353732,-1.91051 h -0.458522 c -0.04367,0.753287 -0.174675,1.080803 -0.46944,1.080803 -0.251095,0 -0.360267,-0.185593 -0.54586,-0.93888 L 13.60244,70.167227 c -0.240178,-1.004383 -0.665949,-1.462905 -1.517491,-1.681249 1.572077,-0.218344 2.325364,-0.851542 2.325364,-1.954179 0,-1.244561 -1.048051,-1.954179 -2.882141,-1.954179 H 7.750821 v 0.513109 h 0.1965096 c 0.6222804,0.01092 0.8297072,0.04367 0.9170448,0.152841 0.065503,0.09825 0.065503,0.120089 0.065503,0.676866 v 5.207504 c 0,0.54586 0,0.567695 -0.065503,0.676867 C 8.7770378,71.913979 8.569611,71.94673 7.9473306,71.94673 H 7.750821 v 0.513109 h 3.580842 V 71.94673 h -0.19651 c -0.62228,0 -0.829707,-0.03275 -0.917045,-0.141923 -0.0655,-0.109172 -0.0655,-0.131007 -0.0655,-0.676867 z m 0,-0.513109 v -2.401784 c -0.02183,-0.600446 0.03275,-0.644114 0.753287,-0.633197 h 0.589529 c 1.080802,0 1.572076,0.458522 1.572076,1.451987 0,0.556778 -0.141923,0.982548 -0.42577,1.21181 -0.27293,0.229261 -0.764204,0.371184 -1.28823,0.371184 z"
         style="font-family:C059;-inkscape-font-specification:C059"
         id="path351" />
      <path
         d="m 20.578511,70.003469 c 0.01092,-1.63758 -0.917045,-2.794803 -2.248943,-2.794803 -1.397402,0 -2.445453,1.211809 -2.445453,2.849389 0,1.539325 0.993465,2.565542 2.467287,2.565542 1.048051,0 1.779504,-0.513109 2.227109,-1.550243 l -0.382102,-0.207426 c -0.447605,0.840624 -0.906128,1.16814 -1.63758,1.16814 -0.556777,0 -0.960714,-0.229261 -1.244561,-0.720535 -0.19651,-0.327516 -0.283847,-0.709618 -0.27293,-1.310064 z m -3.526256,-0.46944 c 0,-0.338433 0.04367,-0.578611 0.152841,-0.884293 0.229261,-0.655032 0.578612,-0.971631 1.113554,-0.971631 0.655032,0 1.09172,0.578612 1.09172,1.462905 0,0.305682 -0.09825,0.393019 -0.447605,0.393019 z"
         style="font-family:C059;-inkscape-font-specification:C059"
         id="path353" />
      <path
         d="m 25.829657,68.9445 c 0,-0.687783 -0.120089,-1.037134 -0.436688,-1.299146 -0.360267,-0.294765 -0.89521,-0.436688 -1.593911,-0.436688 -1.233643,0 -2.128854,0.578611 -2.128854,1.375567 0,0.403936 0.251096,0.665949 0.633198,0.665949 0.34935,0 0.589529,-0.229261 0.589529,-0.556777 0,-0.141924 -0.05459,-0.294765 -0.163758,-0.447605 -0.0655,-0.07642 -0.07642,-0.09826 -0.07642,-0.152841 0,-0.218344 0.436688,-0.414854 0.960714,-0.414854 0.34935,0 0.731452,0.109172 0.906127,0.27293 0.207427,0.174675 0.283848,0.436688 0.283848,0.927962 v 0.425771 c -1.135389,0.19651 -1.495657,0.283847 -2.0306,0.491274 -0.949796,0.34935 -1.397401,0.851542 -1.397401,1.550242 0,0.786039 0.611363,1.277313 1.582994,1.277313 0.753287,0 1.430153,-0.305682 1.899593,-0.862459 0.174675,0.556777 0.447605,0.775121 0.960713,0.775121 0.491274,0 1.004383,-0.316599 1.004383,-0.633197 0,-0.07642 -0.04367,-0.131007 -0.109172,-0.131007 -0.04367,0 -0.08734,0.01092 -0.163758,0.04367 -0.152841,0.0655 -0.218344,0.07642 -0.305682,0.07642 -0.305682,0 -0.414854,-0.196509 -0.414854,-0.753286 z m -1.026216,1.331899 c 0,0.655032 -0.03275,0.807873 -0.218344,1.09172 -0.27293,0.403936 -0.764204,0.676866 -1.244561,0.676866 -0.502191,0 -0.862459,-0.360267 -0.862459,-0.851541 0,-0.458523 0.229261,-0.786039 0.709618,-1.0153 0.338433,-0.152841 0.764204,-0.262013 1.615746,-0.403936 z"
         style="font-family:C059;-inkscape-font-specification:C059"
         id="path355" />
      <path
         d="m 31.11358,72.536259 1.899592,-0.07642 v -0.46944 h -0.196509 c -0.622281,-0.03275 -0.676867,-0.09825 -0.676867,-0.796955 v -6.779582 l -2.139771,0.12009 v 0.469439 h 0.644115 c 0.414854,0.01092 0.46944,0.07642 0.46944,0.54586 v 2.467287 c -0.403937,-0.556777 -0.873376,-0.807872 -1.506574,-0.807872 -1.233644,0 -2.172523,1.189974 -2.172523,2.762051 0,1.550243 0.906128,2.65288 2.172523,2.65288 0.687784,0 1.157223,-0.294765 1.506574,-0.949797 z m -1.28823,-4.738065 c 0.447605,0 0.873376,0.327516 1.069886,0.829708 0.141923,0.327516 0.207426,0.775121 0.207426,1.310064 0,1.277312 -0.502191,2.096102 -1.288229,2.096102 -0.775121,0 -1.233644,-0.720535 -1.233644,-1.932344 0,-0.655032 0.0655,-1.146306 0.207427,-1.506574 0.185592,-0.491274 0.589529,-0.796956 1.037134,-0.796956 z"
         style="font-family:C059;-inkscape-font-specification:C059"
         id="path357" />
      <path
         d="M 71.301113,64.57762 H 64.76171 l -0.163758,3.034982 h 0.469439 c 0.07642,-0.54586 0.163758,-0.960714 0.294765,-1.310064 0.283847,-0.807873 0.807873,-1.211809 1.550242,-1.211809 0.360268,0 0.513109,0.120089 0.513109,0.393019 v 5.633275 c 0,0.556777 0,0.578612 -0.0655,0.676867 -0.08734,0.109172 -0.294764,0.15284 -0.917044,0.15284 h -0.283852 v 0.513109 h 3.7446 V 71.94673 h -0.283847 c -0.611363,0 -0.81879,-0.04367 -0.906128,-0.15284 -0.0655,-0.09826 -0.0655,-0.12009 -0.0655,-0.676867 v -5.633275 c 0,-0.27293 0.152841,-0.393019 0.513108,-0.393019 0.66595,0 1.200892,0.371185 1.473822,1.026217 0.163758,0.403936 0.27293,0.873376 0.360268,1.495656 h 0.46944 z"
         style="font-family:C059;-inkscape-font-specification:C059"
         id="path359" />
      <path
         d="m 74.019483,64.413862 -2.019682,0.12009 v 0.469439 h 0.524026 c 0.414854,0.01092 0.46944,0.07642 0.46944,0.54586 v 5.567772 0.262013 0.262013 c -0.01092,0.152841 -0.02184,0.218344 -0.0655,0.27293 -0.07642,0.09826 -0.283847,0.141923 -0.753286,0.152841 h -0.04367 v 0.393019 h 2.762051 V 72.06682 h -0.04367 C 74.117739,72.04498 74.019484,71.9904 74.019484,71.59738 v -0.480357 -1.135389 c 0,-0.534942 0.07642,-1.026216 0.19651,-1.277312 0.240178,-0.491274 0.720535,-0.829707 1.189975,-0.829707 0.283847,0 0.611363,0.163758 0.764204,0.382102 0.174675,0.240178 0.251096,0.567694 0.251096,1.102637 v 1.757669 0.524026 c -0.01092,0.152841 -0.02183,0.218344 -0.0655,0.27293 -0.07642,0.09826 -0.294764,0.141923 -0.764204,0.152841 h -0.04367 v 0.393019 h 2.762052 V 72.06682 h -0.04367 c -0.720535,-0.02184 -0.81879,-0.07642 -0.81879,-0.46944 v -0.480357 -1.714 c 0,-0.786039 -0.03275,-0.982548 -0.229261,-1.353733 -0.27293,-0.534943 -0.81879,-0.840624 -1.473822,-0.840624 -0.709618,0 -1.233644,0.316598 -1.724918,1.048051 z"
         style="font-family:C059;-inkscape-font-specification:C059"
         id="path361" />
      <path
         d="m 83.582929,70.003469 c 0.01092,-1.63758 -0.917045,-2.794803 -2.248943,-2.794803 -1.397402,0 -2.445453,1.211809 -2.445453,2.849389 0,1.539325 0.993465,2.565542 2.467287,2.565542 1.048051,0 1.779504,-0.513109 2.227109,-1.550243 l -0.382102,-0.207426 c -0.447605,0.840624 -0.906128,1.16814 -1.63758,1.16814 -0.556777,0 -0.960714,-0.229261 -1.244561,-0.720535 -0.19651,-0.327516 -0.283847,-0.709618 -0.27293,-1.310064 z m -3.526256,-0.46944 c 0,-0.338433 0.04367,-0.578611 0.152841,-0.884293 0.229261,-0.655032 0.578612,-0.971631 1.113554,-0.971631 0.655032,0 1.09172,0.578612 1.09172,1.462905 0,0.305682 -0.09825,0.393019 -0.447605,0.393019 z"
         style="font-family:C059;-inkscape-font-specification:C059"
         id="path363" />
      <path
         d="m 110.68383,64.57762 h -6.49573 v 0.513109 h 0.19651 c 0.62228,0.01092 0.8297,0.04367 0.91704,0.152841 0.0655,0.09825 0.0655,0.120089 0.0655,0.676866 v 5.196587 c 0,0.556777 0,0.578612 -0.0655,0.676867 -0.0873,0.109172 -0.29476,0.15284 -0.91704,0.15284 h -0.19651 v 0.513109 h 3.7446 V 71.94673 h -0.36027 c -0.62228,0 -0.82971,-0.04367 -0.91705,-0.15284 -0.0655,-0.09826 -0.0655,-0.131007 -0.0655,-0.676867 v -2.478204 h 0.21834 c 1.12448,-0.04367 1.52841,0.360267 1.57208,1.572077 h 0.51311 v -3.580842 h -0.51311 c -0.0655,1.069886 -0.49127,1.484739 -1.52841,1.495656 h -0.26201 v -2.489121 c -0.0109,-0.458523 0.0982,-0.534943 0.68778,-0.54586 h 0.50219 c 1.79043,-0.01092 2.23803,0.393019 2.57646,2.270777 h 0.48036 z"
         style="font-family:C059;-inkscape-font-specification:C059"
         id="path365" />
      <path
         d="m 115.80399,72.536259 1.98693,-0.07642 v -0.46944 h -0.27293 c -0.6332,-0.02183 -0.68778,-0.08734 -0.68778,-0.796955 v -3.82102 l -2.05244,0.120089 v 0.469439 h 0.55678 c 0.41486,0.01092 0.46944,0.07642 0.46944,0.54586 v 1.342816 c 0,0.62228 -0.0655,0.993465 -0.22926,1.342816 -0.22926,0.491274 -0.66595,0.764204 -1.20089,0.764204 -0.33843,0 -0.62228,-0.12009 -0.76421,-0.338434 -0.14192,-0.207426 -0.16375,-0.316598 -0.16375,-0.917044 v -3.329746 l -1.91051,0.120089 v 0.469439 h 0.41485 c 0.41485,0.01092 0.46944,0.07642 0.46944,0.54586 v 2.358116 c 0,0.556777 0.0437,0.807872 0.20743,1.058968 0.29476,0.447605 0.81879,0.698701 1.47382,0.698701 0.72053,0 1.22272,-0.294765 1.70308,-0.993465 z"
         style="font-family:C059;-inkscape-font-specification:C059"
         id="path367" />
      <path
         d="m 122.20145,70.85501 c -0.34935,0.786039 -0.72054,1.102638 -1.28823,1.102638 -0.87338,0 -1.41924,-0.796956 -1.41924,-2.074268 0,-1.331899 0.53495,-2.205275 1.34282,-2.205275 0.32751,0 0.61136,0.152841 0.61136,0.327516 0,0.03275 -0.0109,0.0655 -0.0655,0.131007 -0.17468,0.207426 -0.21835,0.316598 -0.21835,0.502191 0,0.360267 0.27293,0.611363 0.65504,0.611363 0.39302,0 0.66595,-0.305682 0.66595,-0.74237 0,-0.742369 -0.73146,-1.299146 -1.70309,-1.299146 -1.41923,0 -2.43453,1.157223 -2.43453,2.794803 0,1.550242 0.92796,2.620128 2.28169,2.620128 0.97163,0 1.52841,-0.447605 1.99785,-1.604829 z"
         style="font-family:C059;-inkscape-font-specification:C059"
         id="path369" />
      <path
         d="m 124.86522,69.817876 v -5.404014 l -2.01968,0.12009 v 0.469439 h 0.52402 c 0.41485,0.01092 0.46944,0.07642 0.46944,0.54586 v 5.567772 0.524026 c -0.0109,0.152841 -0.0218,0.218344 -0.0655,0.27293 -0.0764,0.09826 -0.28385,0.141923 -0.75329,0.152841 h -0.0437 v 0.393019 h 2.76205 V 72.06682 h -0.0437 c -0.73145,-0.02184 -0.8297,-0.07642 -0.8297,-0.46944 v -0.480357 -0.62228 l 0.66595,-0.633198 1.29914,1.823173 c 0.0546,0.08734 0.0764,0.141923 0.0764,0.185592 0,0.152841 -0.12009,0.19651 -0.48035,0.19651 h -0.20743 v 0.393019 h 2.88214 V 72.06682 c -0.61136,-0.05459 -0.82971,-0.185593 -1.27731,-0.753287 l -1.55024,-2.117937 0.49127,-0.480357 c 0.64411,-0.62228 1.10264,-0.862459 1.84501,-0.949796 v -0.393019 h -2.87123 v 0.393019 h 0.33844 c 0.34935,0 0.5131,0.0655 0.5131,0.207427 0,0.120089 -0.0764,0.251095 -0.25109,0.42577 z"
         style="font-family:C059;-inkscape-font-specification:C059"
         id="path371" />
      <path
         d="m 131.57927,67.372424 -2.05243,0.120089 v 0.469439 h 0.55678 c 0.41485,0.01092 0.46943,0.07642 0.46943,0.54586 v 2.609211 0.513109 c -0.0109,0.163758 -0.0218,0.229261 -0.0655,0.283847 -0.0764,0.09826 -0.28385,0.141923 -0.75329,0.152841 h -0.0764 v 0.393019 h 2.82756 V 72.06682 h -0.0764 c -0.73145,-0.02184 -0.82971,-0.07642 -0.82971,-0.46944 v -0.480357 z m -0.51311,-2.718383 c -0.34935,0 -0.63319,0.283847 -0.63319,0.633197 0,0.349351 0.28384,0.633198 0.62228,0.633198 0.36026,0 0.64411,-0.283847 0.64411,-0.633198 0,-0.34935 -0.28385,-0.633197 -0.6332,-0.633197 z"
         style="font-family:C059;-inkscape-font-specification:C059"
         id="path373" />
      <path
         d="m 134.95267,67.372424 -1.88867,0.120089 v 0.469439 h 0.39302 c 0.41485,0.01092 0.46944,0.07642 0.46944,0.54586 v 2.609211 0.262013 0.251096 c -0.0109,0.163758 -0.0218,0.229261 -0.0655,0.283847 -0.0764,0.09826 -0.28384,0.141923 -0.75328,0.152841 h -0.0437 v 0.393019 h 2.76205 V 72.06682 h -0.0437 c -0.73145,-0.02184 -0.82971,-0.07642 -0.82971,-0.46944 v -0.480357 -1.135389 c 0,-0.534942 0.0764,-1.026216 0.19651,-1.277312 0.22926,-0.491274 0.72054,-0.829707 1.18998,-0.829707 0.28384,0 0.61136,0.152841 0.77512,0.382102 0.16376,0.240178 0.24018,0.567694 0.24018,1.09172 v 1.768586 0.513109 c -0.0109,0.163758 -0.0218,0.229261 -0.0655,0.283847 -0.0764,0.09826 -0.29476,0.141923 -0.7642,0.152841 h -0.0437 v 0.393019 h 2.76205 V 72.06682 h -0.0437 c -0.72053,-0.02184 -0.81879,-0.07642 -0.81879,-0.46944 v -0.480357 -1.714 c 0,-0.786039 -0.0327,-0.982548 -0.22926,-1.353733 -0.27293,-0.524026 -0.81879,-0.840624 -1.47382,-0.840624 -0.70962,0 -1.24456,0.327516 -1.72492,1.048051 z"
         style="font-family:C059;-inkscape-font-specification:C059"
         id="path375" />
      <path
         d="m 152.86138,68.889914 v -2.969478 c 0,-0.556777 0,-0.578612 0.0764,-0.676866 0.0764,-0.109172 0.28385,-0.141924 0.90613,-0.152841 h 0.20742 V 64.57762 h -3.59175 v 0.513109 h 0.19651 c 0.62228,0.01092 0.8297,0.04367 0.91704,0.152841 0.0655,0.09825 0.0655,0.131006 0.0655,0.676866 v 5.196587 c 0,0.54586 0,0.578612 -0.0655,0.676867 -0.0873,0.109172 -0.29476,0.15284 -0.91704,0.15284 h -0.19651 v 0.513109 h 3.59175 V 71.94673 h -0.20742 c -0.62228,-0.01092 -0.81879,-0.04367 -0.90613,-0.15284 -0.0764,-0.09826 -0.0764,-0.12009 -0.0764,-0.676867 v -1.386484 l 1.26639,-1.277313 1.8996,2.783886 c 0.17467,0.262013 0.21834,0.349351 0.21834,0.458523 0,0.185592 -0.20743,0.251095 -0.74237,0.251095 h -0.33843 v 0.513109 h 3.73368 V 71.94673 h -0.20743 c -0.62228,-0.01092 -0.74237,-0.0655 -1.06988,-0.54586 l -2.64196,-3.810102 1.62666,-1.626663 c 0.52402,-0.556777 1.18997,-0.873376 1.84501,-0.873376 V 64.57762 h -3.3625 v 0.513109 h 0.27293 c 0.50219,0 0.70962,0.09826 0.70962,0.327516 0,0.152841 -0.21835,0.458522 -0.53495,0.786038 z"
         style="font-family:C059;-inkscape-font-specification:C059"
         id="path377" />
      <path
         d="m 163.84406,68.9445 c 0,-0.687783 -0.12009,-1.037134 -0.43669,-1.299146 -0.36027,-0.294765 -0.89521,-0.436688 -1.59391,-0.436688 -1.23364,0 -2.12885,0.578611 -2.12885,1.375567 0,0.403936 0.25109,0.665949 0.63319,0.665949 0.34935,0 0.58953,-0.229261 0.58953,-0.556777 0,-0.141924 -0.0546,-0.294765 -0.16376,-0.447605 -0.0655,-0.07642 -0.0764,-0.09826 -0.0764,-0.152841 0,-0.218344 0.43669,-0.414854 0.96072,-0.414854 0.34935,0 0.73145,0.109172 0.90612,0.27293 0.20743,0.174675 0.28385,0.436688 0.28385,0.927962 v 0.425771 c -1.13539,0.19651 -1.49565,0.283847 -2.0306,0.491274 -0.94979,0.34935 -1.3974,0.851542 -1.3974,1.550242 0,0.786039 0.61136,1.277313 1.583,1.277313 0.75328,0 1.43015,-0.305682 1.89959,-0.862459 0.17467,0.556777 0.4476,0.775121 0.96071,0.775121 0.49128,0 1.00438,-0.316599 1.00438,-0.633197 0,-0.07642 -0.0437,-0.131007 -0.10917,-0.131007 -0.0437,0 -0.0873,0.01092 -0.16376,0.04367 -0.15284,0.0655 -0.21834,0.07642 -0.30568,0.07642 -0.30568,0 -0.41485,-0.196509 -0.41485,-0.753286 z m -1.02622,1.331899 c 0,0.655032 -0.0327,0.807873 -0.21834,1.09172 -0.27293,0.403936 -0.76421,0.676866 -1.24456,0.676866 -0.50219,0 -0.86246,-0.360267 -0.86246,-0.851541 0,-0.458523 0.22926,-0.786039 0.70962,-1.0153 0.33843,-0.152841 0.7642,-0.262013 1.61574,-0.403936 z"
         style="font-family:C059;-inkscape-font-specification:C059"
         id="path379" />
      <path
         d="m 167.1738,67.372424 -1.88867,0.120089 v 0.469439 h 0.39302 c 0.41485,0.01092 0.46944,0.07642 0.46944,0.54586 v 4.814486 0.524025 c -0.0109,0.152841 -0.0218,0.218344 -0.0655,0.27293 -0.0764,0.09825 -0.28384,0.141924 -0.75328,0.152841 h -0.0437 v 0.393019 h 2.83847 v -0.393019 h -0.12009 c -0.73145,-0.02183 -0.82971,-0.07642 -0.82971,-0.46944 v -0.480356 -1.582994 c 0.36027,0.633197 0.76421,0.884293 1.44107,0.884293 0.66595,0 1.21181,-0.283847 1.60483,-0.81879 0.3821,-0.524026 0.60045,-1.200892 0.60045,-1.91051 0,-0.709618 -0.21835,-1.375567 -0.62228,-1.899593 -0.40394,-0.524026 -0.90613,-0.786038 -1.51749,-0.786038 -0.67687,0 -1.12447,0.283847 -1.50658,0.938879 z m 1.31007,0.42577 c 0.75328,0 1.18997,0.753287 1.18997,2.0306 0,1.408318 -0.43669,2.205274 -1.22272,2.205274 -0.78604,0 -1.28823,-0.807873 -1.28823,-2.063351 0,-1.36465 0.49127,-2.172523 1.32098,-2.172523 z"
         style="font-family:C059;-inkscape-font-specification:C059"
         id="path381" />
      <path
         d="m 173.49485,67.372424 -2.05243,0.120089 v 0.469439 h 0.55678 c 0.41485,0.01092 0.46944,0.07642 0.46944,0.54586 v 2.609211 0.513109 c -0.0109,0.163758 -0.0218,0.229261 -0.0655,0.283847 -0.0764,0.09826 -0.28384,0.141923 -0.75328,0.152841 h -0.0764 v 0.393019 h 2.82755 V 72.06682 h -0.0764 c -0.73145,-0.02184 -0.82971,-0.07642 -0.82971,-0.46944 v -0.480357 z m -0.51311,-2.718383 c -0.34935,0 -0.63319,0.283847 -0.63319,0.633197 0,0.349351 0.28384,0.633198 0.62228,0.633198 0.36027,0 0.64411,-0.283847 0.64411,-0.633198 0,-0.34935 -0.28384,-0.633197 -0.6332,-0.633197 z"
         style="font-family:C059;-inkscape-font-specification:C059"
         id="path383" />
      <path
         d="m 176.80275,67.372424 v -2.161606 h -0.4476 c -0.10918,1.419236 -0.58953,2.139771 -1.47383,2.205274 v 0.425771 h 0.89521 v 2.783886 c 0,0.764204 0.0218,1.037134 0.13101,1.28823 0.17468,0.458522 0.61136,0.709618 1.24456,0.709618 0.98255,0 1.61575,-0.74237 1.61575,-1.899593 0,-0.0655 0,-0.141924 -0.0109,-0.251096 h -0.45852 c -0.0327,0.982548 -0.3166,1.48474 -0.85154,1.48474 -0.2511,0 -0.46944,-0.131007 -0.54586,-0.316599 -0.0655,-0.152841 -0.0983,-0.425771 -0.0983,-0.81879 v -2.980396 h 1.60483 v -0.469439 z"
         style="font-family:C059;-inkscape-font-specification:C059"
         id="path385" />
      <path
         d="m 183.888,68.9445 c 0,-0.687783 -0.12009,-1.037134 -0.43668,-1.299146 -0.36027,-0.294765 -0.89521,-0.436688 -1.59392,-0.436688 -1.23364,0 -2.12885,0.578611 -2.12885,1.375567 0,0.403936 0.2511,0.665949 0.6332,0.665949 0.34935,0 0.58953,-0.229261 0.58953,-0.556777 0,-0.141924 -0.0546,-0.294765 -0.16376,-0.447605 -0.0655,-0.07642 -0.0764,-0.09826 -0.0764,-0.152841 0,-0.218344 0.43669,-0.414854 0.96071,-0.414854 0.34935,0 0.73145,0.109172 0.90613,0.27293 0.20743,0.174675 0.28385,0.436688 0.28385,0.927962 v 0.425771 c -1.13539,0.19651 -1.49566,0.283847 -2.0306,0.491274 -0.9498,0.34935 -1.3974,0.851542 -1.3974,1.550242 0,0.786039 0.61136,1.277313 1.58299,1.277313 0.75329,0 1.43015,-0.305682 1.89959,-0.862459 0.17468,0.556777 0.44761,0.775121 0.96072,0.775121 0.49127,0 1.00438,-0.316599 1.00438,-0.633197 0,-0.07642 -0.0437,-0.131007 -0.10917,-0.131007 -0.0437,0 -0.0873,0.01092 -0.16376,0.04367 -0.15284,0.0655 -0.21834,0.07642 -0.30568,0.07642 -0.30568,0 -0.41486,-0.196509 -0.41486,-0.753286 z m -1.02621,1.331899 c 0,0.655032 -0.0327,0.807873 -0.21835,1.09172 -0.27293,0.403936 -0.7642,0.676866 -1.24456,0.676866 -0.50219,0 -0.86246,-0.360267 -0.86246,-0.851541 0,-0.458523 0.22926,-0.786039 0.70962,-1.0153 0.33843,-0.152841 0.76421,-0.262013 1.61575,-0.403936 z"
         style="font-family:C059;-inkscape-font-specification:C059"
         id="path387" />
      <path
         d="m 187.2505,64.413862 -2.01968,0.12009 v 0.469439 h 0.53494 c 0.40394,0.01092 0.45852,0.07642 0.45852,0.54586 v 5.567772 0.513109 c -0.0109,0.163758 -0.0218,0.229261 -0.0655,0.283847 -0.0764,0.09826 -0.28385,0.141923 -0.75329,0.152841 h -0.0764 v 0.393019 h 2.82756 V 72.06682 h -0.0764 c -0.73146,-0.02184 -0.82971,-0.07642 -0.82971,-0.46944 v -0.480357 z"
         style="font-family:C059;-inkscape-font-specification:C059"
         id="path389" />
    </g>
    <g
       aria-label="RTFK"
       id="text281"
       style="font-size:69.0004px;line-height:1.25;word-spacing:0px;stroke-width:1.72501">
      <path
         d="m 22.747597,44.618733 h 4.002023 c 6.96904,0.276002 9.729056,3.105018 10.48806,10.695062 l 0.345002,3.51902 c 0.828005,7.797045 3.38102,10.971063 8.832051,10.971063 5.658033,0 8.349048,-3.795022 8.556049,-12.075069 h -2.898016 c -0.276002,4.761027 -1.104007,6.831039 -2.967017,6.831039 -1.587009,0 -2.277013,-1.173007 -3.45002,-5.934034 l -1.104006,-4.347025 c -1.518009,-6.348037 -4.209025,-9.246053 -9.591056,-10.626061 9.936058,-1.380008 14.697085,-5.382031 14.697085,-12.351071 0,-7.866046 -6.624038,-12.351071 -18.216105,-12.351071 H 7.5675104 v 3.243018 h 1.2420071 c 3.9330225,0.069 5.2440295,0.276002 5.7960325,0.966006 0.414003,0.621003 0.414003,0.759004 0.414003,4.278024 v 32.91319 c 0,3.450019 0,3.58802 -0.414003,4.278024 -0.552003,0.690004 -1.86301,0.897005 -5.7960325,0.897005 H 7.5675104 v 3.243019 H 30.19964 v -3.243019 h -1.242007 c -3.933023,0 -5.24403,-0.207001 -5.796033,-0.897005 -0.414003,-0.690004 -0.414003,-0.828005 -0.414003,-4.278024 z m 0,-3.243019 V 26.195627 c -0.138001,-3.795022 0.207001,-4.071023 4.761028,-4.002023 h 3.726021 c 6.831039,0 9.936057,2.898017 9.936057,9.177053 0,3.51902 -0.897005,6.210036 -2.691015,7.659044 -1.72501,1.449008 -4.830028,2.346013 -8.142047,2.346013 z"
         style="font-family:C059;-inkscape-font-specification:C059"
         id="path342" />
      <path
         d="M 97.190148,19.504856 H 55.85891 l -1.035006,19.18211 h 2.967017 c 0.483003,-3.45002 1.035006,-6.072035 1.863011,-8.280048 1.79401,-5.106029 5.10603,-7.659044 9.798057,-7.659044 2.277013,0 3.243018,0.759005 3.243018,2.484014 v 35.604205 c 0,3.51902 0,3.657021 -0.414002,4.278025 -0.552003,0.690004 -1.863011,0.966005 -5.796034,0.966005 h -1.79401 v 3.243019 h 23.667136 v -3.243019 h -1.79401 c -3.864022,0 -5.17503,-0.276001 -5.727033,-0.966005 -0.414002,-0.621004 -0.414002,-0.759005 -0.414002,-4.278025 V 25.231888 c 0,-1.725009 0.966005,-2.484014 3.243018,-2.484014 4.209024,0 7.590044,2.346014 9.315054,6.486037 1.035006,2.553015 1.72501,5.520032 2.277013,9.453055 h 2.967018 z"
         style="font-family:C059;-inkscape-font-specification:C059"
         id="path468" />
      <path
         d="M 97.190148,19.504856 H 55.85891 l -1.035006,19.18211 h 2.967017 c 0.483003,-3.45002 1.035006,-6.072035 1.863011,-8.280048 1.79401,-5.106029 5.10603,-7.659044 9.798057,-7.659044 2.277013,0 3.243018,0.759005 3.243018,2.484014 v 35.604205 c 0,3.51902 0,3.657021 -0.414002,4.278025 -0.552003,0.690004 -1.863011,0.966005 -5.796034,0.966005 h -1.79401 v 3.243019 h 23.667136 v -3.243019 h -1.79401 c -3.864022,0 -5.17503,-0.276001 -5.727033,-0.966005 -0.414002,-0.621004 -0.414002,-0.759005 -0.414002,-4.278025 V 25.231888 c 0,-1.725009 0.966005,-2.484014 3.243018,-2.484014 4.209024,0 7.590044,2.346014 9.315054,6.486037 1.035006,2.553015 1.72501,5.520032 2.277013,9.453055 h 2.967018 z"
         style="font-family:C059;-inkscape-font-specification:C059"
         id="path470" />
      <path
         d="M 97.190148,19.504856 H 55.85891 l -1.035006,19.18211 h 2.967017 c 0.483003,-3.45002 1.035006,-6.072035 1.863011,-8.280048 1.79401,-5.106029 5.10603,-7.659044 9.798057,-7.659044 2.277013,0 3.243018,0.759005 3.243018,2.484014 v 35.604205 c 0,3.51902 0,3.657021 -0.414002,4.278025 -0.552003,0.690004 -1.863011,0.966005 -5.796034,0.966005 h -1.79401 v 3.243019 h 23.667136 v -3.243019 h -1.79401 c -3.864022,0 -5.17503,-0.276001 -5.727033,-0.966005 -0.414002,-0.621004 -0.414002,-0.759005 -0.414002,-4.278025 V 25.231888 c 0,-1.725009 0.966005,-2.484014 3.243018,-2.484014 4.209024,0 7.590044,2.346014 9.315054,6.486037 1.035006,2.553015 1.72501,5.520032 2.277013,9.453055 h 2.967018 z"
         style="font-family:C059;-inkscape-font-specification:C059"
         id="path472" />
      <path
         d="M 97.190148,19.504856 H 55.85891 l -1.035006,19.18211 h 2.967017 c 0.483003,-3.45002 1.035006,-6.072035 1.863011,-8.280048 1.79401,-5.106029 5.10603,-7.659044 9.798057,-7.659044 2.277013,0 3.243018,0.759005 3.243018,2.484014 v 35.604205 c 0,3.51902 0,3.657021 -0.414002,4.278025 -0.552003,0.690004 -1.863011,0.966005 -5.796034,0.966005 h -1.79401 v 3.243019 h 23.667136 v -3.243019 h -1.79401 c -3.864022,0 -5.17503,-0.276001 -5.727033,-0.966005 -0.414002,-0.621004 -0.414002,-0.759005 -0.414002,-4.278025 V 25.231888 c 0,-1.725009 0.966005,-2.484014 3.243018,-2.484014 4.209024,0 7.590044,2.346014 9.315054,6.486037 1.035006,2.553015 1.72501,5.520032 2.277013,9.453055 h 2.967018 z"
         style="font-family:C059;-inkscape-font-specification:C059"
         id="path474" />
      <path
         d="M 97.190148,19.504856 H 55.85891 l -1.035006,19.18211 h 2.967017 c 0.483003,-3.45002 1.035006,-6.072035 1.863011,-8.280048 1.79401,-5.106029 5.10603,-7.659044 9.798057,-7.659044 2.277013,0 3.243018,0.759005 3.243018,2.484014 v 35.604205 c 0,3.51902 0,3.657021 -0.414002,4.278025 -0.552003,0.690004 -1.863011,0.966005 -5.796034,0.966005 h -1.79401 v 3.243019 h 23.667136 v -3.243019 h -1.79401 c -3.864022,0 -5.17503,-0.276001 -5.727033,-0.966005 -0.414002,-0.621004 -0.414002,-0.759005 -0.414002,-4.278025 V 25.231888 c 0,-1.725009 0.966005,-2.484014 3.243018,-2.484014 4.209024,0 7.590044,2.346014 9.315054,6.486037 1.035006,2.553015 1.72501,5.520032 2.277013,9.453055 h 2.967018 z"
         style="font-family:C059;-inkscape-font-specification:C059"
         id="path344" />
      <path
         d="m 144.94715,18.950586 h -41.05524 v 3.243018 h 1.24201 c 3.93302,0.069 5.24403,0.276002 5.79603,0.966006 0.414,0.621003 0.414,0.759004 0.414,4.278024 v 32.844189 c 0,3.51902 0,3.657021 -0.414,4.278025 -0.552,0.690004 -1.86301,0.966005 -5.79603,0.966005 h -1.24201 v 3.243019 h 23.66714 v -3.243019 h -2.27702 c -3.93302,0 -5.24403,-0.276001 -5.79603,-0.966005 -0.414,-0.621004 -0.414,-0.828005 -0.414,-4.278025 v -15.66309 h 1.38001 c 7.10704,-0.276001 9.66005,2.277013 9.93605,9.936057 h 3.24302 V 31.92266 h -3.24302 c -0.414,6.762039 -3.10501,9.384054 -9.66005,9.453054 H 119.072 v -15.73209 c -0.069,-2.898017 0.621,-3.381019 4.34702,-3.45002 h 3.17402 c 11.31607,-0.069 14.14508,2.484014 16.2841,14.352083 h 3.03601 z"
         style="font-family:C059;-inkscape-font-specification:C059"
         id="path346" />
      <path
         d="M 165.16425,46.205742 V 27.437634 c 0,-3.51902 0,-3.657021 0.48301,-4.278024 0.483,-0.690004 1.79401,-0.897005 5.72703,-0.966006 h 1.31101 v -3.243018 h -22.70113 v 3.243018 h 1.242 c 3.93303,0.069 5.24403,0.276002 5.79604,0.966006 0.414,0.621003 0.414,0.828005 0.414,4.278024 v 32.844189 c 0,3.45002 0,3.657021 -0.414,4.278025 -0.55201,0.690004 -1.86301,0.966005 -5.79604,0.966005 h -1.242 v 3.243019 h 22.70113 v -3.243019 h -1.31101 c -3.93302,-0.069 -5.17503,-0.276001 -5.72703,-0.966005 -0.48301,-0.621004 -0.48301,-0.759005 -0.48301,-4.278025 v -8.76305 l 8.00405,-8.073047 12.00607,17.595102 c 1.104,1.656009 1.38001,2.208012 1.38001,2.898016 0,1.173007 -1.31101,1.587009 -4.69203,1.587009 h -2.13901 v 3.243019 h 23.59813 v -3.243019 h -1.311 c -3.93303,-0.069 -4.69203,-0.414002 -6.76204,-3.450019 l -16.6981,-24.081139 10.28106,-10.281059 c 3.31202,-3.51902 7.52104,-5.520032 11.66107,-5.520032 v -3.243018 h -21.25213 v 3.243018 h 1.72501 c 3.17402,0 4.48503,0.621004 4.48503,2.070012 0,0.966006 -1.38001,2.898017 -3.38102,4.968029 z"
         style="font-family:C059;-inkscape-font-specification:C059"
         id="path348" />
    </g>
  </g>
</svg>
